G04 EAGLE Gerber RS-274X export*
G75*
%MOMM*%
%FSLAX34Y34*%
%LPD*%
%INBottom Copper*%
%IPPOS*%
%AMOC8*
5,1,8,0,0,1.08239X$1,22.5*%
G01*
%ADD10R,1.676400X1.676400*%
%ADD11P,1.814519X8X292.500000*%
%ADD12R,3.116000X3.116000*%
%ADD13C,1.650000*%
%ADD14C,2.705100*%
%ADD15C,1.508000*%
%ADD16P,1.429621X8X202.500000*%
%ADD17P,1.429621X8X292.500000*%
%ADD18P,1.429621X8X22.500000*%
%ADD19C,1.524000*%
%ADD20C,1.208000*%
%ADD21P,1.429621X8X112.500000*%
%ADD22C,1.320800*%
%ADD23C,0.756400*%
%ADD24C,0.609600*%
%ADD25C,0.406400*%

G36*
X521911Y10173D02*
X521911Y10173D01*
X522037Y10176D01*
X522111Y10193D01*
X522186Y10201D01*
X522307Y10238D01*
X522430Y10266D01*
X522499Y10297D01*
X522571Y10319D01*
X522682Y10379D01*
X522797Y10431D01*
X522859Y10475D01*
X522925Y10511D01*
X523022Y10591D01*
X523125Y10665D01*
X523176Y10720D01*
X523234Y10768D01*
X523313Y10867D01*
X523400Y10959D01*
X523439Y11023D01*
X523487Y11082D01*
X523545Y11194D01*
X523611Y11302D01*
X523637Y11373D01*
X523672Y11439D01*
X523707Y11561D01*
X523751Y11679D01*
X523763Y11754D01*
X523784Y11826D01*
X523794Y11952D01*
X523813Y12077D01*
X523810Y12152D01*
X523816Y12228D01*
X523802Y12353D01*
X523796Y12479D01*
X523778Y12553D01*
X523769Y12627D01*
X523730Y12747D01*
X523700Y12870D01*
X523668Y12938D01*
X523645Y13010D01*
X523583Y13120D01*
X523529Y13235D01*
X523484Y13295D01*
X523447Y13361D01*
X523364Y13456D01*
X523289Y13558D01*
X523233Y13608D01*
X523184Y13665D01*
X523084Y13743D01*
X522990Y13828D01*
X522915Y13874D01*
X522865Y13912D01*
X522800Y13945D01*
X522708Y14002D01*
X521394Y14671D01*
X520020Y15669D01*
X518819Y16870D01*
X517821Y18244D01*
X517050Y19758D01*
X516597Y21151D01*
X526332Y21151D01*
X526350Y21152D01*
X526367Y21151D01*
X526550Y21172D01*
X526732Y21191D01*
X526749Y21196D01*
X526767Y21198D01*
X526942Y21255D01*
X527042Y21286D01*
X527049Y21282D01*
X527227Y21234D01*
X527402Y21184D01*
X527420Y21182D01*
X527437Y21178D01*
X527768Y21151D01*
X537503Y21151D01*
X537050Y19758D01*
X536279Y18244D01*
X535281Y16870D01*
X534080Y15669D01*
X532706Y14671D01*
X531392Y14002D01*
X531286Y13934D01*
X531175Y13873D01*
X531117Y13825D01*
X531054Y13784D01*
X530963Y13697D01*
X530866Y13616D01*
X530818Y13557D01*
X530764Y13504D01*
X530693Y13400D01*
X530613Y13302D01*
X530579Y13235D01*
X530536Y13173D01*
X530486Y13056D01*
X530428Y12945D01*
X530407Y12872D01*
X530377Y12803D01*
X530351Y12679D01*
X530316Y12558D01*
X530310Y12483D01*
X530295Y12409D01*
X530294Y12282D01*
X530284Y12156D01*
X530292Y12081D01*
X530292Y12006D01*
X530316Y11882D01*
X530331Y11757D01*
X530354Y11685D01*
X530368Y11611D01*
X530416Y11494D01*
X530455Y11374D01*
X530492Y11308D01*
X530521Y11238D01*
X530591Y11133D01*
X530653Y11023D01*
X530703Y10966D01*
X530744Y10903D01*
X530834Y10814D01*
X530916Y10718D01*
X530976Y10672D01*
X531029Y10619D01*
X531135Y10549D01*
X531235Y10472D01*
X531302Y10438D01*
X531365Y10396D01*
X531482Y10349D01*
X531595Y10292D01*
X531668Y10273D01*
X531738Y10244D01*
X531862Y10221D01*
X531984Y10188D01*
X532071Y10181D01*
X532133Y10169D01*
X532207Y10170D01*
X532315Y10161D01*
X578358Y10161D01*
X578376Y10163D01*
X578394Y10161D01*
X578576Y10182D01*
X578759Y10201D01*
X578776Y10206D01*
X578793Y10208D01*
X578968Y10265D01*
X579144Y10319D01*
X579159Y10327D01*
X579176Y10333D01*
X579336Y10423D01*
X579498Y10511D01*
X579511Y10522D01*
X579527Y10531D01*
X579666Y10651D01*
X579807Y10768D01*
X579818Y10782D01*
X579832Y10794D01*
X579944Y10939D01*
X580059Y11082D01*
X580067Y11098D01*
X580078Y11112D01*
X580160Y11277D01*
X580245Y11439D01*
X580250Y11456D01*
X580258Y11472D01*
X580305Y11651D01*
X580356Y11826D01*
X580358Y11844D01*
X580362Y11861D01*
X580389Y12192D01*
X580389Y243164D01*
X580380Y243257D01*
X580381Y243350D01*
X580360Y243457D01*
X580349Y243564D01*
X580322Y243654D01*
X580304Y243745D01*
X580263Y243846D01*
X580231Y243949D01*
X580187Y244031D01*
X580151Y244118D01*
X580091Y244208D01*
X580039Y244303D01*
X579980Y244375D01*
X579928Y244453D01*
X579851Y244529D01*
X579782Y244613D01*
X579709Y244671D01*
X579643Y244737D01*
X579552Y244797D01*
X579468Y244865D01*
X579385Y244908D01*
X579308Y244960D01*
X579207Y245001D01*
X579111Y245051D01*
X579021Y245076D01*
X578935Y245112D01*
X578828Y245132D01*
X578724Y245162D01*
X578631Y245170D01*
X578539Y245187D01*
X578431Y245186D01*
X578322Y245195D01*
X578230Y245184D01*
X578137Y245183D01*
X578030Y245161D01*
X577923Y245148D01*
X577834Y245119D01*
X577743Y245100D01*
X577619Y245049D01*
X577540Y245023D01*
X577497Y244999D01*
X577436Y244974D01*
X576670Y244584D01*
X575149Y244089D01*
X573570Y243839D01*
X567689Y243839D01*
X567689Y253492D01*
X567687Y253510D01*
X567689Y253527D01*
X567668Y253710D01*
X567649Y253892D01*
X567644Y253909D01*
X567642Y253927D01*
X567617Y254005D01*
X567656Y254142D01*
X567658Y254160D01*
X567662Y254177D01*
X567689Y254508D01*
X567689Y264161D01*
X573570Y264161D01*
X575149Y263911D01*
X576670Y263416D01*
X577436Y263026D01*
X577523Y262992D01*
X577605Y262949D01*
X577710Y262919D01*
X577811Y262880D01*
X577903Y262864D01*
X577992Y262838D01*
X578101Y262829D01*
X578207Y262810D01*
X578301Y262813D01*
X578394Y262805D01*
X578501Y262818D01*
X578610Y262821D01*
X578701Y262841D01*
X578793Y262852D01*
X578897Y262886D01*
X579003Y262910D01*
X579088Y262948D01*
X579176Y262977D01*
X579271Y263030D01*
X579370Y263075D01*
X579446Y263129D01*
X579527Y263175D01*
X579609Y263246D01*
X579697Y263309D01*
X579761Y263377D01*
X579832Y263438D01*
X579898Y263524D01*
X579972Y263603D01*
X580021Y263683D01*
X580078Y263756D01*
X580127Y263853D01*
X580184Y263946D01*
X580216Y264033D01*
X580258Y264117D01*
X580286Y264222D01*
X580323Y264323D01*
X580338Y264415D01*
X580362Y264505D01*
X580373Y264639D01*
X580386Y264721D01*
X580384Y264771D01*
X580389Y264836D01*
X580389Y269618D01*
X580388Y269631D01*
X580389Y269644D01*
X580368Y269831D01*
X580349Y270018D01*
X580345Y270031D01*
X580344Y270045D01*
X580286Y270223D01*
X580231Y270403D01*
X580225Y270415D01*
X580221Y270428D01*
X580129Y270592D01*
X580039Y270757D01*
X580031Y270768D01*
X580024Y270779D01*
X579902Y270923D01*
X579782Y271067D01*
X579771Y271075D01*
X579763Y271085D01*
X579614Y271201D01*
X579468Y271319D01*
X579456Y271325D01*
X579446Y271333D01*
X579277Y271418D01*
X579111Y271504D01*
X579098Y271508D01*
X579086Y271514D01*
X578904Y271564D01*
X578724Y271616D01*
X578710Y271617D01*
X578697Y271621D01*
X578509Y271633D01*
X578322Y271649D01*
X578309Y271647D01*
X578296Y271648D01*
X578108Y271624D01*
X577923Y271602D01*
X577910Y271598D01*
X577897Y271596D01*
X577581Y271494D01*
X574589Y270255D01*
X555711Y270255D01*
X552765Y271475D01*
X552744Y271482D01*
X552724Y271492D01*
X552552Y271540D01*
X552380Y271592D01*
X552358Y271594D01*
X552336Y271600D01*
X552157Y271613D01*
X551979Y271630D01*
X551957Y271628D01*
X551935Y271629D01*
X551757Y271607D01*
X551579Y271588D01*
X551557Y271582D01*
X551535Y271579D01*
X551365Y271522D01*
X551194Y271468D01*
X551175Y271458D01*
X551154Y271451D01*
X550999Y271361D01*
X550841Y271275D01*
X550824Y271261D01*
X550805Y271250D01*
X550552Y271035D01*
X538568Y259051D01*
X538551Y259030D01*
X538530Y259013D01*
X538423Y258875D01*
X538313Y258739D01*
X538300Y258716D01*
X538284Y258695D01*
X538206Y258538D01*
X538124Y258384D01*
X538116Y258358D01*
X538104Y258334D01*
X538059Y258165D01*
X538009Y257998D01*
X538007Y257971D01*
X538000Y257945D01*
X537973Y257615D01*
X537973Y202290D01*
X537277Y200610D01*
X516940Y180273D01*
X515260Y179577D01*
X383735Y179577D01*
X383709Y179575D01*
X383682Y179577D01*
X383508Y179555D01*
X383335Y179537D01*
X383309Y179530D01*
X383283Y179526D01*
X383117Y179471D01*
X382950Y179419D01*
X382926Y179406D01*
X382901Y179398D01*
X382749Y179311D01*
X382596Y179227D01*
X382575Y179210D01*
X382552Y179197D01*
X382299Y178982D01*
X358190Y154873D01*
X356510Y154177D01*
X265790Y154177D01*
X264110Y154873D01*
X243773Y175210D01*
X243077Y176890D01*
X243077Y232215D01*
X243075Y232241D01*
X243077Y232268D01*
X243055Y232442D01*
X243037Y232615D01*
X243030Y232641D01*
X243026Y232667D01*
X242971Y232833D01*
X242919Y233000D01*
X242906Y233024D01*
X242898Y233049D01*
X242811Y233201D01*
X242727Y233354D01*
X242710Y233375D01*
X242697Y233398D01*
X242482Y233651D01*
X224723Y251410D01*
X224027Y253090D01*
X224027Y271636D01*
X224025Y271662D01*
X224027Y271689D01*
X224005Y271863D01*
X223987Y272036D01*
X223980Y272062D01*
X223976Y272088D01*
X223921Y272254D01*
X223869Y272421D01*
X223856Y272445D01*
X223848Y272470D01*
X223761Y272622D01*
X223677Y272775D01*
X223660Y272796D01*
X223647Y272819D01*
X223432Y273072D01*
X222924Y273580D01*
X222917Y273586D01*
X222912Y273592D01*
X222762Y273713D01*
X222613Y273835D01*
X222605Y273839D01*
X222598Y273845D01*
X222427Y273934D01*
X222257Y274024D01*
X222249Y274026D01*
X222241Y274030D01*
X222055Y274084D01*
X221871Y274138D01*
X221862Y274139D01*
X221854Y274142D01*
X221662Y274157D01*
X221470Y274175D01*
X221461Y274174D01*
X221452Y274175D01*
X221263Y274152D01*
X221070Y274131D01*
X221061Y274129D01*
X221053Y274128D01*
X220871Y274068D01*
X220686Y274010D01*
X220678Y274006D01*
X220670Y274003D01*
X220501Y273908D01*
X220334Y273815D01*
X220327Y273809D01*
X220319Y273805D01*
X220173Y273679D01*
X220027Y273555D01*
X220021Y273548D01*
X220014Y273542D01*
X219897Y273390D01*
X219777Y273239D01*
X219773Y273231D01*
X219768Y273224D01*
X219682Y273052D01*
X219595Y272880D01*
X219592Y272871D01*
X219588Y272863D01*
X219538Y272677D01*
X219487Y272492D01*
X219486Y272483D01*
X219484Y272474D01*
X219457Y272144D01*
X219457Y237293D01*
X219458Y237284D01*
X219457Y237275D01*
X219478Y237084D01*
X219497Y236893D01*
X219499Y236884D01*
X219500Y236875D01*
X219558Y236693D01*
X219615Y236508D01*
X219619Y236500D01*
X219622Y236491D01*
X219715Y236323D01*
X219807Y236154D01*
X219812Y236147D01*
X219817Y236139D01*
X219941Y235992D01*
X220064Y235844D01*
X220071Y235839D01*
X220077Y235832D01*
X220228Y235713D01*
X220378Y235592D01*
X220386Y235588D01*
X220393Y235582D01*
X220566Y235495D01*
X220735Y235407D01*
X220744Y235404D01*
X220752Y235400D01*
X220938Y235348D01*
X221122Y235295D01*
X221131Y235294D01*
X221140Y235292D01*
X221333Y235278D01*
X221524Y235262D01*
X221532Y235263D01*
X221541Y235263D01*
X221734Y235287D01*
X221923Y235309D01*
X221932Y235312D01*
X221941Y235313D01*
X222124Y235374D01*
X222306Y235434D01*
X222314Y235438D01*
X222322Y235441D01*
X222488Y235537D01*
X222657Y235632D01*
X222664Y235638D01*
X222671Y235642D01*
X222924Y235857D01*
X224812Y237745D01*
X226569Y237745D01*
X226569Y228600D01*
X226569Y219455D01*
X224812Y219455D01*
X222924Y221343D01*
X222917Y221349D01*
X222912Y221356D01*
X222762Y221476D01*
X222613Y221598D01*
X222605Y221602D01*
X222598Y221608D01*
X222428Y221696D01*
X222257Y221787D01*
X222248Y221789D01*
X222241Y221793D01*
X222056Y221847D01*
X221871Y221902D01*
X221862Y221902D01*
X221854Y221905D01*
X221663Y221921D01*
X221470Y221938D01*
X221461Y221937D01*
X221452Y221938D01*
X221263Y221916D01*
X221070Y221895D01*
X221061Y221892D01*
X221053Y221891D01*
X220871Y221831D01*
X220686Y221773D01*
X220678Y221769D01*
X220670Y221766D01*
X220501Y221671D01*
X220334Y221578D01*
X220327Y221573D01*
X220319Y221568D01*
X220173Y221442D01*
X220027Y221318D01*
X220021Y221311D01*
X220014Y221305D01*
X219897Y221154D01*
X219777Y221002D01*
X219773Y220994D01*
X219768Y220987D01*
X219682Y220815D01*
X219595Y220643D01*
X219592Y220634D01*
X219588Y220626D01*
X219538Y220439D01*
X219487Y220255D01*
X219486Y220246D01*
X219484Y220238D01*
X219457Y219907D01*
X219457Y163539D01*
X219459Y163513D01*
X219457Y163486D01*
X219479Y163312D01*
X219497Y163139D01*
X219505Y163113D01*
X219508Y163087D01*
X219563Y162921D01*
X219615Y162754D01*
X219628Y162730D01*
X219636Y162705D01*
X219723Y162553D01*
X219807Y162400D01*
X219824Y162379D01*
X219837Y162356D01*
X220052Y162103D01*
X220399Y161756D01*
X221207Y159806D01*
X221207Y157694D01*
X220399Y155744D01*
X218906Y154251D01*
X216956Y153443D01*
X214844Y153443D01*
X212894Y154251D01*
X211401Y155744D01*
X210593Y157694D01*
X210593Y159806D01*
X211401Y161756D01*
X211748Y162103D01*
X211765Y162124D01*
X211786Y162141D01*
X211892Y162279D01*
X212003Y162415D01*
X212016Y162438D01*
X212032Y162459D01*
X212110Y162616D01*
X212192Y162770D01*
X212200Y162796D01*
X212212Y162820D01*
X212257Y162989D01*
X212307Y163156D01*
X212309Y163183D01*
X212316Y163209D01*
X212343Y163539D01*
X212343Y169445D01*
X212343Y169449D01*
X212343Y169454D01*
X212323Y169648D01*
X212303Y169845D01*
X212302Y169850D01*
X212302Y169854D01*
X212243Y170042D01*
X212185Y170230D01*
X212183Y170234D01*
X212182Y170239D01*
X212086Y170413D01*
X211993Y170584D01*
X211991Y170588D01*
X211988Y170592D01*
X211860Y170745D01*
X211736Y170894D01*
X211732Y170896D01*
X211729Y170900D01*
X211575Y171023D01*
X211422Y171146D01*
X211418Y171148D01*
X211415Y171151D01*
X211240Y171240D01*
X211065Y171332D01*
X211060Y171333D01*
X211056Y171335D01*
X210869Y171388D01*
X210678Y171443D01*
X210673Y171443D01*
X210669Y171444D01*
X210476Y171459D01*
X210276Y171476D01*
X210272Y171475D01*
X210268Y171476D01*
X210074Y171452D01*
X209877Y171429D01*
X209872Y171427D01*
X209868Y171427D01*
X209683Y171366D01*
X209494Y171304D01*
X209490Y171302D01*
X209486Y171300D01*
X209316Y171204D01*
X209143Y171106D01*
X209140Y171103D01*
X209136Y171101D01*
X208985Y170970D01*
X208839Y170843D01*
X208836Y170839D01*
X208832Y170837D01*
X208712Y170680D01*
X208592Y170525D01*
X208590Y170521D01*
X208587Y170517D01*
X208435Y170222D01*
X207699Y168444D01*
X206206Y166951D01*
X204256Y166143D01*
X202144Y166143D01*
X200194Y166951D01*
X198701Y168444D01*
X197893Y170394D01*
X197893Y172506D01*
X198701Y174456D01*
X199048Y174803D01*
X199065Y174824D01*
X199086Y174841D01*
X199193Y174979D01*
X199303Y175115D01*
X199316Y175138D01*
X199332Y175159D01*
X199410Y175316D01*
X199492Y175470D01*
X199500Y175496D01*
X199512Y175520D01*
X199557Y175689D01*
X199607Y175856D01*
X199609Y175883D01*
X199616Y175909D01*
X199643Y176240D01*
X199643Y320040D01*
X199641Y320058D01*
X199643Y320076D01*
X199622Y320258D01*
X199603Y320441D01*
X199598Y320458D01*
X199596Y320475D01*
X199539Y320650D01*
X199485Y320826D01*
X199477Y320841D01*
X199471Y320858D01*
X199381Y321018D01*
X199293Y321180D01*
X199282Y321193D01*
X199273Y321209D01*
X199153Y321348D01*
X199036Y321489D01*
X199022Y321500D01*
X199010Y321514D01*
X198865Y321626D01*
X198722Y321741D01*
X198706Y321749D01*
X198692Y321760D01*
X198527Y321842D01*
X198365Y321927D01*
X198348Y321932D01*
X198332Y321940D01*
X198153Y321987D01*
X197978Y322038D01*
X197960Y322040D01*
X197943Y322044D01*
X197612Y322071D01*
X194979Y322071D01*
X191991Y323309D01*
X189705Y325595D01*
X188467Y328583D01*
X188467Y331817D01*
X189705Y334805D01*
X191991Y337091D01*
X194979Y338329D01*
X197612Y338329D01*
X197630Y338331D01*
X197648Y338329D01*
X197830Y338350D01*
X198013Y338369D01*
X198030Y338374D01*
X198047Y338376D01*
X198222Y338433D01*
X198398Y338487D01*
X198413Y338495D01*
X198430Y338501D01*
X198590Y338591D01*
X198752Y338679D01*
X198765Y338690D01*
X198781Y338699D01*
X198920Y338819D01*
X199061Y338936D01*
X199072Y338950D01*
X199086Y338962D01*
X199198Y339107D01*
X199313Y339250D01*
X199321Y339266D01*
X199332Y339280D01*
X199414Y339445D01*
X199499Y339607D01*
X199504Y339624D01*
X199512Y339640D01*
X199559Y339819D01*
X199610Y339994D01*
X199612Y340012D01*
X199616Y340029D01*
X199643Y340360D01*
X199643Y345440D01*
X199641Y345458D01*
X199643Y345476D01*
X199622Y345658D01*
X199603Y345841D01*
X199598Y345858D01*
X199596Y345875D01*
X199539Y346050D01*
X199485Y346226D01*
X199477Y346241D01*
X199471Y346258D01*
X199381Y346418D01*
X199293Y346580D01*
X199282Y346593D01*
X199273Y346609D01*
X199153Y346748D01*
X199036Y346889D01*
X199022Y346900D01*
X199010Y346914D01*
X198865Y347026D01*
X198722Y347141D01*
X198706Y347149D01*
X198692Y347160D01*
X198527Y347242D01*
X198365Y347327D01*
X198348Y347332D01*
X198332Y347340D01*
X198153Y347387D01*
X197978Y347438D01*
X197960Y347440D01*
X197943Y347444D01*
X197612Y347471D01*
X194979Y347471D01*
X191991Y348709D01*
X189705Y350995D01*
X188467Y353983D01*
X188467Y357217D01*
X189705Y360205D01*
X191991Y362491D01*
X194979Y363729D01*
X197612Y363729D01*
X197630Y363731D01*
X197648Y363729D01*
X197830Y363750D01*
X198013Y363769D01*
X198030Y363774D01*
X198047Y363776D01*
X198222Y363833D01*
X198398Y363887D01*
X198413Y363895D01*
X198430Y363901D01*
X198590Y363991D01*
X198752Y364079D01*
X198765Y364090D01*
X198781Y364099D01*
X198920Y364219D01*
X199061Y364336D01*
X199072Y364350D01*
X199086Y364362D01*
X199198Y364507D01*
X199313Y364650D01*
X199321Y364666D01*
X199332Y364680D01*
X199414Y364845D01*
X199499Y365007D01*
X199504Y365024D01*
X199512Y365040D01*
X199559Y365219D01*
X199610Y365394D01*
X199612Y365412D01*
X199616Y365429D01*
X199643Y365760D01*
X199643Y372220D01*
X199641Y372246D01*
X199643Y372273D01*
X199621Y372447D01*
X199603Y372620D01*
X199596Y372646D01*
X199592Y372672D01*
X199536Y372838D01*
X199485Y373005D01*
X199472Y373029D01*
X199464Y373054D01*
X199377Y373206D01*
X199293Y373359D01*
X199276Y373380D01*
X199263Y373403D01*
X199048Y373656D01*
X195071Y377633D01*
X195071Y384367D01*
X199833Y389129D01*
X206567Y389129D01*
X211329Y384367D01*
X211329Y377633D01*
X207352Y373656D01*
X207335Y373635D01*
X207314Y373618D01*
X207207Y373480D01*
X207097Y373344D01*
X207084Y373321D01*
X207068Y373300D01*
X206990Y373143D01*
X206908Y372989D01*
X206900Y372963D01*
X206888Y372939D01*
X206843Y372770D01*
X206793Y372603D01*
X206791Y372576D01*
X206784Y372550D01*
X206757Y372220D01*
X206757Y365760D01*
X206759Y365742D01*
X206757Y365724D01*
X206778Y365542D01*
X206797Y365359D01*
X206802Y365342D01*
X206804Y365325D01*
X206861Y365150D01*
X206915Y364974D01*
X206923Y364959D01*
X206929Y364942D01*
X207019Y364782D01*
X207107Y364620D01*
X207118Y364607D01*
X207127Y364591D01*
X207247Y364452D01*
X207364Y364311D01*
X207378Y364300D01*
X207390Y364286D01*
X207535Y364174D01*
X207678Y364059D01*
X207694Y364051D01*
X207708Y364040D01*
X207873Y363958D01*
X208035Y363873D01*
X208052Y363868D01*
X208068Y363860D01*
X208247Y363813D01*
X208422Y363762D01*
X208440Y363760D01*
X208457Y363756D01*
X208788Y363729D01*
X211421Y363729D01*
X214409Y362491D01*
X216695Y360205D01*
X217933Y357217D01*
X217933Y353983D01*
X216695Y350995D01*
X214409Y348709D01*
X211421Y347471D01*
X208788Y347471D01*
X208770Y347469D01*
X208752Y347471D01*
X208570Y347450D01*
X208387Y347431D01*
X208370Y347426D01*
X208353Y347424D01*
X208178Y347367D01*
X208002Y347313D01*
X207987Y347305D01*
X207970Y347299D01*
X207810Y347209D01*
X207648Y347121D01*
X207635Y347110D01*
X207619Y347101D01*
X207480Y346981D01*
X207339Y346864D01*
X207328Y346850D01*
X207314Y346838D01*
X207202Y346693D01*
X207087Y346550D01*
X207079Y346534D01*
X207068Y346520D01*
X206986Y346355D01*
X206901Y346193D01*
X206896Y346176D01*
X206888Y346160D01*
X206841Y345981D01*
X206790Y345806D01*
X206788Y345788D01*
X206784Y345771D01*
X206757Y345440D01*
X206757Y340360D01*
X206759Y340342D01*
X206757Y340324D01*
X206778Y340142D01*
X206797Y339959D01*
X206802Y339942D01*
X206804Y339925D01*
X206861Y339750D01*
X206915Y339574D01*
X206923Y339559D01*
X206929Y339542D01*
X207019Y339382D01*
X207107Y339220D01*
X207118Y339207D01*
X207127Y339191D01*
X207247Y339052D01*
X207364Y338911D01*
X207378Y338900D01*
X207390Y338886D01*
X207535Y338774D01*
X207678Y338659D01*
X207694Y338651D01*
X207708Y338640D01*
X207873Y338558D01*
X208035Y338473D01*
X208052Y338468D01*
X208068Y338460D01*
X208247Y338413D01*
X208422Y338362D01*
X208440Y338360D01*
X208457Y338356D01*
X208788Y338329D01*
X211421Y338329D01*
X214409Y337091D01*
X216695Y334805D01*
X217933Y331817D01*
X217933Y328583D01*
X216695Y325595D01*
X214409Y323309D01*
X211421Y322071D01*
X208788Y322071D01*
X208770Y322069D01*
X208752Y322071D01*
X208570Y322050D01*
X208387Y322031D01*
X208370Y322026D01*
X208353Y322024D01*
X208178Y321967D01*
X208002Y321913D01*
X207987Y321905D01*
X207970Y321899D01*
X207810Y321809D01*
X207648Y321721D01*
X207635Y321710D01*
X207619Y321701D01*
X207480Y321581D01*
X207339Y321464D01*
X207328Y321450D01*
X207314Y321438D01*
X207202Y321293D01*
X207087Y321150D01*
X207079Y321134D01*
X207068Y321120D01*
X206986Y320955D01*
X206901Y320793D01*
X206896Y320776D01*
X206888Y320760D01*
X206841Y320581D01*
X206790Y320406D01*
X206788Y320388D01*
X206784Y320371D01*
X206757Y320040D01*
X206757Y300455D01*
X206757Y300451D01*
X206757Y300446D01*
X206777Y300248D01*
X206797Y300054D01*
X206798Y300050D01*
X206798Y300046D01*
X206857Y299858D01*
X206915Y299670D01*
X206917Y299666D01*
X206918Y299661D01*
X207014Y299487D01*
X207107Y299316D01*
X207109Y299312D01*
X207112Y299308D01*
X207240Y299155D01*
X207364Y299006D01*
X207368Y299004D01*
X207371Y299000D01*
X207526Y298877D01*
X207678Y298754D01*
X207682Y298752D01*
X207686Y298749D01*
X207865Y298657D01*
X208035Y298568D01*
X208040Y298567D01*
X208044Y298565D01*
X208237Y298510D01*
X208422Y298457D01*
X208427Y298457D01*
X208431Y298455D01*
X208627Y298440D01*
X208824Y298424D01*
X208828Y298425D01*
X208832Y298424D01*
X209026Y298448D01*
X209223Y298471D01*
X209228Y298472D01*
X209232Y298473D01*
X209417Y298534D01*
X209606Y298596D01*
X209610Y298598D01*
X209614Y298600D01*
X209783Y298696D01*
X209957Y298794D01*
X209960Y298797D01*
X209964Y298799D01*
X210111Y298927D01*
X210261Y299057D01*
X210264Y299061D01*
X210268Y299063D01*
X210388Y299220D01*
X210508Y299375D01*
X210510Y299379D01*
X210513Y299383D01*
X210665Y299678D01*
X211401Y301456D01*
X212894Y302949D01*
X214844Y303757D01*
X216956Y303757D01*
X218906Y302949D01*
X220399Y301456D01*
X221207Y299506D01*
X221207Y297394D01*
X220399Y295444D01*
X220052Y295097D01*
X220035Y295076D01*
X220014Y295059D01*
X219908Y294921D01*
X219797Y294785D01*
X219784Y294762D01*
X219768Y294741D01*
X219690Y294584D01*
X219608Y294430D01*
X219600Y294404D01*
X219588Y294380D01*
X219543Y294211D01*
X219493Y294044D01*
X219491Y294017D01*
X219484Y293991D01*
X219457Y293661D01*
X219457Y286656D01*
X219458Y286648D01*
X219457Y286639D01*
X219478Y286446D01*
X219497Y286256D01*
X219499Y286247D01*
X219500Y286238D01*
X219559Y286053D01*
X219615Y285871D01*
X219619Y285863D01*
X219622Y285854D01*
X219715Y285686D01*
X219807Y285517D01*
X219812Y285510D01*
X219817Y285502D01*
X219941Y285355D01*
X220064Y285208D01*
X220071Y285202D01*
X220077Y285195D01*
X220228Y285076D01*
X220378Y284955D01*
X220386Y284951D01*
X220393Y284946D01*
X220566Y284858D01*
X220735Y284770D01*
X220744Y284767D01*
X220752Y284763D01*
X220938Y284711D01*
X221122Y284658D01*
X221131Y284658D01*
X221140Y284655D01*
X221333Y284641D01*
X221524Y284625D01*
X221532Y284626D01*
X221541Y284626D01*
X221734Y284650D01*
X221923Y284672D01*
X221932Y284675D01*
X221941Y284676D01*
X222124Y284738D01*
X222306Y284797D01*
X222314Y284802D01*
X222322Y284804D01*
X222488Y284900D01*
X222657Y284995D01*
X222664Y285001D01*
X222671Y285005D01*
X222924Y285220D01*
X225233Y287529D01*
X229421Y287529D01*
X229447Y287531D01*
X229474Y287529D01*
X229648Y287551D01*
X229821Y287569D01*
X229847Y287576D01*
X229873Y287580D01*
X230039Y287635D01*
X230206Y287687D01*
X230230Y287700D01*
X230255Y287708D01*
X230407Y287795D01*
X230560Y287879D01*
X230581Y287896D01*
X230604Y287909D01*
X230857Y288124D01*
X237138Y294405D01*
X238710Y295977D01*
X240390Y296673D01*
X250754Y296673D01*
X250772Y296675D01*
X250790Y296673D01*
X250972Y296694D01*
X251155Y296713D01*
X251172Y296718D01*
X251189Y296720D01*
X251364Y296777D01*
X251540Y296831D01*
X251555Y296839D01*
X251572Y296845D01*
X251732Y296935D01*
X251894Y297023D01*
X251907Y297034D01*
X251923Y297043D01*
X252062Y297163D01*
X252203Y297280D01*
X252214Y297294D01*
X252228Y297306D01*
X252340Y297451D01*
X252455Y297594D01*
X252463Y297610D01*
X252474Y297624D01*
X252556Y297789D01*
X252641Y297951D01*
X252646Y297968D01*
X252654Y297984D01*
X252701Y298163D01*
X252752Y298338D01*
X252754Y298356D01*
X252758Y298373D01*
X252785Y298704D01*
X252785Y299645D01*
X253937Y302425D01*
X256065Y304553D01*
X256782Y304850D01*
X258845Y305705D01*
X261855Y305705D01*
X264635Y304553D01*
X266763Y302425D01*
X267915Y299645D01*
X267915Y284555D01*
X266763Y281775D01*
X264635Y279647D01*
X261855Y278495D01*
X258845Y278495D01*
X256065Y279647D01*
X253937Y281775D01*
X252785Y284555D01*
X252785Y285496D01*
X252783Y285514D01*
X252785Y285532D01*
X252764Y285713D01*
X252745Y285897D01*
X252740Y285914D01*
X252738Y285931D01*
X252681Y286106D01*
X252627Y286282D01*
X252619Y286297D01*
X252613Y286314D01*
X252523Y286474D01*
X252435Y286636D01*
X252424Y286649D01*
X252415Y286665D01*
X252296Y286803D01*
X252178Y286945D01*
X252164Y286956D01*
X252152Y286970D01*
X252007Y287082D01*
X251864Y287197D01*
X251848Y287205D01*
X251834Y287216D01*
X251669Y287298D01*
X251507Y287383D01*
X251490Y287388D01*
X251474Y287396D01*
X251295Y287443D01*
X251120Y287494D01*
X251102Y287496D01*
X251085Y287500D01*
X250754Y287527D01*
X244035Y287527D01*
X244009Y287525D01*
X243982Y287527D01*
X243808Y287505D01*
X243635Y287487D01*
X243609Y287480D01*
X243583Y287476D01*
X243417Y287421D01*
X243250Y287369D01*
X243226Y287356D01*
X243201Y287348D01*
X243050Y287261D01*
X242896Y287177D01*
X242875Y287160D01*
X242852Y287147D01*
X242599Y286932D01*
X237324Y281657D01*
X237307Y281636D01*
X237286Y281619D01*
X237179Y281481D01*
X237069Y281345D01*
X237056Y281322D01*
X237040Y281301D01*
X236962Y281144D01*
X236880Y280990D01*
X236872Y280964D01*
X236860Y280940D01*
X236815Y280771D01*
X236765Y280604D01*
X236763Y280577D01*
X236756Y280551D01*
X236729Y280221D01*
X236729Y276033D01*
X233768Y273072D01*
X233751Y273051D01*
X233730Y273034D01*
X233623Y272896D01*
X233513Y272760D01*
X233500Y272737D01*
X233484Y272716D01*
X233406Y272559D01*
X233324Y272405D01*
X233316Y272379D01*
X233304Y272355D01*
X233259Y272186D01*
X233209Y272019D01*
X233207Y271992D01*
X233200Y271966D01*
X233173Y271636D01*
X233173Y256735D01*
X233175Y256709D01*
X233173Y256682D01*
X233195Y256508D01*
X233213Y256335D01*
X233220Y256309D01*
X233224Y256283D01*
X233279Y256117D01*
X233331Y255950D01*
X233344Y255926D01*
X233352Y255901D01*
X233439Y255749D01*
X233523Y255596D01*
X233540Y255575D01*
X233553Y255552D01*
X233768Y255299D01*
X251527Y237540D01*
X252223Y235860D01*
X252223Y229415D01*
X252224Y229406D01*
X252223Y229397D01*
X252244Y229205D01*
X252263Y229014D01*
X252265Y229006D01*
X252266Y228997D01*
X252325Y228812D01*
X252381Y228629D01*
X252385Y228621D01*
X252388Y228613D01*
X252481Y228444D01*
X252573Y228275D01*
X252578Y228268D01*
X252583Y228260D01*
X252707Y228114D01*
X252830Y227966D01*
X252837Y227960D01*
X252843Y227953D01*
X252994Y227834D01*
X253144Y227714D01*
X253152Y227709D01*
X253159Y227704D01*
X253331Y227616D01*
X253501Y227528D01*
X253510Y227526D01*
X253518Y227522D01*
X253703Y227470D01*
X253888Y227417D01*
X253897Y227416D01*
X253906Y227414D01*
X254098Y227399D01*
X254290Y227384D01*
X254298Y227385D01*
X254307Y227384D01*
X254499Y227408D01*
X254689Y227431D01*
X254698Y227433D01*
X254707Y227435D01*
X254889Y227496D01*
X255072Y227556D01*
X255080Y227560D01*
X255088Y227563D01*
X255256Y227659D01*
X255423Y227753D01*
X255430Y227759D01*
X255437Y227764D01*
X255690Y227978D01*
X256065Y228353D01*
X258845Y229505D01*
X261855Y229505D01*
X264635Y228353D01*
X266763Y226225D01*
X267915Y223445D01*
X267915Y208355D01*
X266763Y205575D01*
X264635Y203447D01*
X261855Y202295D01*
X258845Y202295D01*
X256065Y203447D01*
X255690Y203822D01*
X255683Y203827D01*
X255678Y203834D01*
X255529Y203954D01*
X255379Y204077D01*
X255371Y204081D01*
X255364Y204086D01*
X255195Y204174D01*
X255023Y204265D01*
X255014Y204268D01*
X255007Y204272D01*
X254823Y204325D01*
X254637Y204380D01*
X254628Y204381D01*
X254620Y204383D01*
X254429Y204399D01*
X254236Y204416D01*
X254227Y204415D01*
X254218Y204416D01*
X254029Y204394D01*
X253836Y204373D01*
X253827Y204370D01*
X253819Y204369D01*
X253636Y204310D01*
X253452Y204252D01*
X253444Y204247D01*
X253436Y204244D01*
X253267Y204149D01*
X253100Y204057D01*
X253093Y204051D01*
X253085Y204047D01*
X252940Y203921D01*
X252793Y203796D01*
X252787Y203789D01*
X252780Y203783D01*
X252663Y203632D01*
X252543Y203480D01*
X252539Y203472D01*
X252534Y203465D01*
X252447Y203292D01*
X252361Y203121D01*
X252358Y203113D01*
X252354Y203105D01*
X252304Y202916D01*
X252253Y202734D01*
X252252Y202725D01*
X252250Y202716D01*
X252223Y202385D01*
X252223Y180535D01*
X252225Y180509D01*
X252223Y180482D01*
X252245Y180308D01*
X252263Y180135D01*
X252270Y180109D01*
X252274Y180083D01*
X252329Y179917D01*
X252381Y179750D01*
X252394Y179726D01*
X252402Y179701D01*
X252489Y179549D01*
X252573Y179396D01*
X252590Y179375D01*
X252603Y179352D01*
X252818Y179099D01*
X267999Y163918D01*
X268020Y163901D01*
X268037Y163880D01*
X268175Y163773D01*
X268311Y163663D01*
X268334Y163650D01*
X268355Y163634D01*
X268512Y163556D01*
X268666Y163474D01*
X268692Y163466D01*
X268716Y163454D01*
X268885Y163409D01*
X269052Y163359D01*
X269079Y163357D01*
X269105Y163350D01*
X269435Y163323D01*
X352865Y163323D01*
X352891Y163325D01*
X352918Y163323D01*
X353092Y163345D01*
X353265Y163363D01*
X353291Y163370D01*
X353317Y163374D01*
X353483Y163429D01*
X353650Y163481D01*
X353674Y163494D01*
X353699Y163502D01*
X353851Y163589D01*
X354004Y163673D01*
X354025Y163690D01*
X354048Y163703D01*
X354301Y163918D01*
X378410Y188027D01*
X380090Y188723D01*
X511615Y188723D01*
X511641Y188725D01*
X511668Y188723D01*
X511842Y188745D01*
X512015Y188763D01*
X512041Y188770D01*
X512067Y188774D01*
X512233Y188829D01*
X512400Y188881D01*
X512424Y188894D01*
X512449Y188902D01*
X512601Y188989D01*
X512754Y189073D01*
X512775Y189090D01*
X512798Y189103D01*
X513051Y189318D01*
X528232Y204499D01*
X528249Y204520D01*
X528270Y204537D01*
X528377Y204675D01*
X528487Y204811D01*
X528500Y204834D01*
X528516Y204855D01*
X528594Y205012D01*
X528676Y205166D01*
X528684Y205192D01*
X528696Y205216D01*
X528741Y205385D01*
X528791Y205552D01*
X528793Y205579D01*
X528800Y205605D01*
X528827Y205935D01*
X528827Y261260D01*
X529523Y262940D01*
X531095Y264512D01*
X548512Y281929D01*
X548532Y281953D01*
X548555Y281973D01*
X548659Y282108D01*
X548767Y282240D01*
X548782Y282268D01*
X548801Y282292D01*
X548952Y282588D01*
X549777Y284580D01*
X552350Y287153D01*
X555711Y288545D01*
X574589Y288545D01*
X577581Y287306D01*
X577594Y287302D01*
X577605Y287296D01*
X577786Y287244D01*
X577966Y287189D01*
X577979Y287188D01*
X577992Y287184D01*
X578180Y287169D01*
X578367Y287151D01*
X578380Y287152D01*
X578394Y287151D01*
X578581Y287173D01*
X578767Y287193D01*
X578780Y287197D01*
X578793Y287198D01*
X578973Y287257D01*
X579152Y287312D01*
X579163Y287319D01*
X579176Y287323D01*
X579341Y287416D01*
X579505Y287506D01*
X579515Y287514D01*
X579527Y287521D01*
X579669Y287644D01*
X579813Y287765D01*
X579821Y287775D01*
X579832Y287784D01*
X579947Y287933D01*
X580064Y288080D01*
X580070Y288092D01*
X580078Y288102D01*
X580162Y288271D01*
X580248Y288438D01*
X580252Y288451D01*
X580258Y288463D01*
X580307Y288646D01*
X580358Y288825D01*
X580359Y288838D01*
X580362Y288851D01*
X580389Y289182D01*
X580389Y295018D01*
X580388Y295031D01*
X580389Y295044D01*
X580368Y295231D01*
X580349Y295418D01*
X580345Y295431D01*
X580344Y295445D01*
X580286Y295623D01*
X580231Y295803D01*
X580225Y295815D01*
X580221Y295828D01*
X580129Y295992D01*
X580039Y296157D01*
X580031Y296168D01*
X580024Y296179D01*
X579902Y296323D01*
X579782Y296467D01*
X579771Y296475D01*
X579763Y296485D01*
X579614Y296601D01*
X579468Y296719D01*
X579456Y296725D01*
X579446Y296733D01*
X579277Y296818D01*
X579111Y296904D01*
X579098Y296908D01*
X579086Y296914D01*
X578904Y296964D01*
X578724Y297016D01*
X578710Y297017D01*
X578697Y297021D01*
X578509Y297033D01*
X578322Y297049D01*
X578309Y297047D01*
X578296Y297048D01*
X578108Y297024D01*
X577923Y297002D01*
X577910Y296998D01*
X577897Y296996D01*
X577581Y296894D01*
X576409Y296409D01*
X574589Y295655D01*
X555711Y295655D01*
X552350Y297047D01*
X549777Y299620D01*
X548385Y302981D01*
X548385Y306619D01*
X549777Y309980D01*
X552350Y312553D01*
X555711Y313945D01*
X574589Y313945D01*
X577581Y312706D01*
X577594Y312702D01*
X577605Y312696D01*
X577786Y312644D01*
X577966Y312589D01*
X577979Y312588D01*
X577992Y312584D01*
X578180Y312569D01*
X578367Y312551D01*
X578380Y312552D01*
X578394Y312551D01*
X578581Y312573D01*
X578767Y312593D01*
X578780Y312597D01*
X578793Y312598D01*
X578973Y312657D01*
X579152Y312712D01*
X579163Y312719D01*
X579176Y312723D01*
X579341Y312816D01*
X579505Y312906D01*
X579515Y312914D01*
X579527Y312921D01*
X579669Y313044D01*
X579813Y313165D01*
X579821Y313175D01*
X579832Y313184D01*
X579947Y313333D01*
X580064Y313480D01*
X580070Y313492D01*
X580078Y313502D01*
X580162Y313671D01*
X580248Y313838D01*
X580252Y313851D01*
X580258Y313863D01*
X580307Y314046D01*
X580358Y314225D01*
X580359Y314238D01*
X580362Y314251D01*
X580389Y314582D01*
X580389Y320418D01*
X580388Y320431D01*
X580389Y320444D01*
X580368Y320631D01*
X580349Y320818D01*
X580345Y320831D01*
X580344Y320845D01*
X580286Y321023D01*
X580231Y321203D01*
X580225Y321215D01*
X580221Y321228D01*
X580129Y321392D01*
X580039Y321557D01*
X580031Y321568D01*
X580024Y321579D01*
X579902Y321723D01*
X579782Y321867D01*
X579771Y321875D01*
X579763Y321885D01*
X579614Y322001D01*
X579468Y322119D01*
X579456Y322125D01*
X579446Y322133D01*
X579277Y322218D01*
X579111Y322304D01*
X579098Y322308D01*
X579086Y322314D01*
X578904Y322364D01*
X578724Y322416D01*
X578710Y322417D01*
X578697Y322421D01*
X578509Y322433D01*
X578322Y322449D01*
X578309Y322447D01*
X578296Y322448D01*
X578108Y322424D01*
X577923Y322402D01*
X577910Y322398D01*
X577897Y322396D01*
X577581Y322294D01*
X574589Y321055D01*
X555711Y321055D01*
X552350Y322447D01*
X549777Y325020D01*
X548385Y328381D01*
X548385Y332019D01*
X549777Y335380D01*
X552350Y337953D01*
X555711Y339345D01*
X574589Y339345D01*
X577581Y338106D01*
X577594Y338102D01*
X577605Y338096D01*
X577786Y338044D01*
X577966Y337989D01*
X577979Y337988D01*
X577992Y337984D01*
X578180Y337969D01*
X578367Y337951D01*
X578380Y337952D01*
X578394Y337951D01*
X578581Y337973D01*
X578767Y337993D01*
X578780Y337997D01*
X578793Y337998D01*
X578973Y338057D01*
X579152Y338112D01*
X579163Y338119D01*
X579176Y338123D01*
X579341Y338216D01*
X579505Y338306D01*
X579515Y338314D01*
X579527Y338321D01*
X579669Y338444D01*
X579813Y338565D01*
X579821Y338575D01*
X579832Y338584D01*
X579947Y338733D01*
X580064Y338880D01*
X580070Y338892D01*
X580078Y338902D01*
X580162Y339071D01*
X580248Y339238D01*
X580252Y339251D01*
X580258Y339263D01*
X580307Y339446D01*
X580358Y339625D01*
X580359Y339638D01*
X580362Y339651D01*
X580389Y339982D01*
X580389Y470370D01*
X580375Y470516D01*
X580368Y470662D01*
X580355Y470716D01*
X580349Y470771D01*
X580306Y470910D01*
X580271Y471052D01*
X580248Y471102D01*
X580231Y471156D01*
X580162Y471284D01*
X580099Y471416D01*
X580066Y471461D01*
X580039Y471510D01*
X579946Y471622D01*
X579859Y471739D01*
X579817Y471776D01*
X579782Y471819D01*
X579668Y471910D01*
X579559Y472008D01*
X579511Y472036D01*
X579468Y472071D01*
X579338Y472139D01*
X579212Y472213D01*
X579160Y472231D01*
X579111Y472257D01*
X578970Y472297D01*
X578832Y472345D01*
X578777Y472353D01*
X578724Y472368D01*
X578578Y472380D01*
X578433Y472400D01*
X578378Y472396D01*
X578322Y472401D01*
X578177Y472384D01*
X578031Y472375D01*
X577978Y472361D01*
X577923Y472354D01*
X577784Y472309D01*
X577642Y472271D01*
X577585Y472244D01*
X577540Y472229D01*
X577467Y472188D01*
X577342Y472129D01*
X575248Y470920D01*
X568594Y469137D01*
X561706Y469137D01*
X555052Y470920D01*
X549086Y474365D01*
X544215Y479236D01*
X540770Y485202D01*
X538987Y491856D01*
X538987Y498744D01*
X540770Y505398D01*
X544215Y511364D01*
X549086Y516235D01*
X555052Y519680D01*
X561706Y521463D01*
X568594Y521463D01*
X575248Y519680D01*
X577342Y518471D01*
X577476Y518411D01*
X577605Y518343D01*
X577659Y518328D01*
X577709Y518305D01*
X577852Y518272D01*
X577992Y518232D01*
X578048Y518227D01*
X578102Y518215D01*
X578248Y518211D01*
X578394Y518199D01*
X578449Y518205D01*
X578504Y518204D01*
X578648Y518229D01*
X578793Y518246D01*
X578846Y518263D01*
X578901Y518273D01*
X579037Y518325D01*
X579176Y518371D01*
X579225Y518398D01*
X579276Y518418D01*
X579399Y518497D01*
X579527Y518569D01*
X579569Y518605D01*
X579616Y518635D01*
X579721Y518736D01*
X579832Y518832D01*
X579865Y518876D01*
X579906Y518914D01*
X579989Y519035D01*
X580078Y519150D01*
X580103Y519200D01*
X580135Y519245D01*
X580192Y519379D01*
X580258Y519510D01*
X580272Y519564D01*
X580294Y519615D01*
X580324Y519758D01*
X580362Y519899D01*
X580367Y519962D01*
X580377Y520009D01*
X580378Y520093D01*
X580389Y520230D01*
X580389Y592419D01*
X580388Y592428D01*
X580389Y592437D01*
X580368Y592629D01*
X580349Y592820D01*
X580347Y592828D01*
X580346Y592837D01*
X580288Y593019D01*
X580231Y593205D01*
X580227Y593213D01*
X580224Y593221D01*
X580131Y593389D01*
X580039Y593559D01*
X580034Y593565D01*
X580029Y593573D01*
X579904Y593721D01*
X579782Y593868D01*
X579775Y593873D01*
X579769Y593880D01*
X579617Y594000D01*
X579468Y594120D01*
X579460Y594124D01*
X579453Y594130D01*
X579281Y594217D01*
X579111Y594306D01*
X579102Y594308D01*
X579094Y594312D01*
X578908Y594364D01*
X578724Y594417D01*
X578715Y594418D01*
X578706Y594420D01*
X578514Y594434D01*
X578322Y594450D01*
X578314Y594449D01*
X578305Y594450D01*
X578112Y594425D01*
X577923Y594403D01*
X577914Y594400D01*
X577905Y594399D01*
X577722Y594338D01*
X577540Y594278D01*
X577532Y594274D01*
X577524Y594271D01*
X577358Y594176D01*
X577189Y594080D01*
X577182Y594075D01*
X577175Y594070D01*
X576922Y593855D01*
X575562Y592495D01*
X543138Y592495D01*
X542245Y593388D01*
X542245Y625812D01*
X543138Y626705D01*
X575562Y626705D01*
X576922Y625345D01*
X576929Y625339D01*
X576934Y625332D01*
X577084Y625212D01*
X577233Y625090D01*
X577241Y625085D01*
X577248Y625080D01*
X577418Y624991D01*
X577589Y624901D01*
X577598Y624898D01*
X577605Y624894D01*
X577790Y624841D01*
X577975Y624786D01*
X577984Y624785D01*
X577992Y624783D01*
X578183Y624767D01*
X578376Y624750D01*
X578385Y624751D01*
X578394Y624750D01*
X578583Y624772D01*
X578776Y624793D01*
X578785Y624796D01*
X578793Y624797D01*
X578975Y624856D01*
X579160Y624915D01*
X579168Y624919D01*
X579176Y624922D01*
X579342Y625015D01*
X579512Y625109D01*
X579519Y625115D01*
X579527Y625120D01*
X579672Y625245D01*
X579819Y625370D01*
X579825Y625377D01*
X579832Y625383D01*
X579948Y625533D01*
X580069Y625686D01*
X580073Y625694D01*
X580078Y625701D01*
X580164Y625872D01*
X580251Y626045D01*
X580254Y626053D01*
X580258Y626061D01*
X580308Y626247D01*
X580359Y626433D01*
X580360Y626442D01*
X580362Y626450D01*
X580389Y626781D01*
X580389Y834768D01*
X580388Y834781D01*
X580389Y834794D01*
X580368Y834980D01*
X580349Y835168D01*
X580345Y835181D01*
X580344Y835195D01*
X580286Y835373D01*
X580231Y835553D01*
X580225Y835565D01*
X580221Y835578D01*
X580129Y835742D01*
X580039Y835907D01*
X580031Y835918D01*
X580024Y835929D01*
X579902Y836073D01*
X579782Y836217D01*
X579771Y836225D01*
X579763Y836235D01*
X579614Y836351D01*
X579468Y836469D01*
X579456Y836475D01*
X579446Y836483D01*
X579277Y836568D01*
X579111Y836654D01*
X579098Y836658D01*
X579086Y836664D01*
X578904Y836714D01*
X578724Y836766D01*
X578710Y836767D01*
X578697Y836771D01*
X578509Y836783D01*
X578322Y836799D01*
X578309Y836797D01*
X578296Y836798D01*
X578108Y836774D01*
X577923Y836752D01*
X577910Y836748D01*
X577897Y836746D01*
X577581Y836644D01*
X574589Y835405D01*
X555711Y835405D01*
X552350Y836797D01*
X549777Y839370D01*
X548385Y842731D01*
X548385Y846369D01*
X549777Y849730D01*
X552350Y852303D01*
X555711Y853695D01*
X574589Y853695D01*
X577581Y852456D01*
X577594Y852452D01*
X577605Y852446D01*
X577786Y852394D01*
X577966Y852339D01*
X577979Y852338D01*
X577992Y852334D01*
X578180Y852319D01*
X578367Y852301D01*
X578380Y852302D01*
X578394Y852301D01*
X578581Y852323D01*
X578767Y852343D01*
X578780Y852347D01*
X578793Y852348D01*
X578973Y852407D01*
X579152Y852462D01*
X579163Y852469D01*
X579176Y852473D01*
X579341Y852566D01*
X579505Y852656D01*
X579515Y852664D01*
X579527Y852671D01*
X579669Y852794D01*
X579813Y852915D01*
X579821Y852925D01*
X579832Y852934D01*
X579947Y853083D01*
X580064Y853230D01*
X580070Y853242D01*
X580078Y853252D01*
X580162Y853421D01*
X580248Y853588D01*
X580252Y853601D01*
X580258Y853613D01*
X580307Y853796D01*
X580358Y853975D01*
X580359Y853988D01*
X580362Y854001D01*
X580389Y854332D01*
X580389Y860168D01*
X580388Y860181D01*
X580389Y860194D01*
X580368Y860381D01*
X580349Y860568D01*
X580345Y860581D01*
X580344Y860595D01*
X580286Y860773D01*
X580231Y860953D01*
X580225Y860965D01*
X580221Y860978D01*
X580129Y861142D01*
X580039Y861307D01*
X580031Y861318D01*
X580024Y861329D01*
X579902Y861473D01*
X579782Y861617D01*
X579771Y861625D01*
X579763Y861635D01*
X579614Y861751D01*
X579468Y861869D01*
X579456Y861875D01*
X579446Y861883D01*
X579277Y861968D01*
X579111Y862054D01*
X579098Y862058D01*
X579086Y862064D01*
X578904Y862114D01*
X578724Y862166D01*
X578710Y862167D01*
X578697Y862171D01*
X578509Y862183D01*
X578322Y862199D01*
X578309Y862197D01*
X578296Y862198D01*
X578108Y862174D01*
X577923Y862152D01*
X577910Y862148D01*
X577897Y862146D01*
X577581Y862044D01*
X574589Y860805D01*
X555711Y860805D01*
X552350Y862197D01*
X549777Y864770D01*
X548385Y868131D01*
X548385Y871769D01*
X549777Y875130D01*
X552350Y877703D01*
X555711Y879095D01*
X574589Y879095D01*
X577581Y877856D01*
X577594Y877852D01*
X577605Y877846D01*
X577786Y877794D01*
X577966Y877739D01*
X577979Y877738D01*
X577992Y877734D01*
X578180Y877719D01*
X578367Y877701D01*
X578380Y877702D01*
X578394Y877701D01*
X578581Y877723D01*
X578767Y877743D01*
X578780Y877747D01*
X578793Y877748D01*
X578973Y877807D01*
X579152Y877862D01*
X579163Y877869D01*
X579176Y877873D01*
X579341Y877966D01*
X579505Y878056D01*
X579515Y878064D01*
X579527Y878071D01*
X579669Y878194D01*
X579813Y878315D01*
X579821Y878325D01*
X579832Y878334D01*
X579947Y878483D01*
X580064Y878630D01*
X580070Y878642D01*
X580078Y878652D01*
X580162Y878821D01*
X580248Y878988D01*
X580252Y879001D01*
X580258Y879013D01*
X580307Y879196D01*
X580358Y879375D01*
X580359Y879388D01*
X580362Y879401D01*
X580389Y879732D01*
X580389Y885568D01*
X580388Y885581D01*
X580389Y885594D01*
X580368Y885781D01*
X580349Y885968D01*
X580345Y885981D01*
X580344Y885995D01*
X580286Y886173D01*
X580231Y886353D01*
X580225Y886365D01*
X580221Y886378D01*
X580129Y886542D01*
X580039Y886707D01*
X580031Y886718D01*
X580024Y886729D01*
X579902Y886873D01*
X579782Y887017D01*
X579771Y887025D01*
X579763Y887035D01*
X579614Y887151D01*
X579468Y887269D01*
X579456Y887275D01*
X579446Y887283D01*
X579277Y887368D01*
X579111Y887454D01*
X579098Y887458D01*
X579086Y887464D01*
X578904Y887514D01*
X578724Y887566D01*
X578710Y887567D01*
X578697Y887571D01*
X578509Y887583D01*
X578322Y887599D01*
X578309Y887597D01*
X578296Y887598D01*
X578108Y887574D01*
X577923Y887552D01*
X577910Y887548D01*
X577897Y887546D01*
X577581Y887444D01*
X574589Y886205D01*
X555711Y886205D01*
X552294Y887621D01*
X552163Y887727D01*
X552148Y887736D01*
X552134Y887747D01*
X551969Y887830D01*
X551808Y887916D01*
X551791Y887921D01*
X551775Y887929D01*
X551597Y887979D01*
X551422Y888031D01*
X551404Y888032D01*
X551387Y888037D01*
X551204Y888051D01*
X551021Y888067D01*
X551003Y888065D01*
X550985Y888067D01*
X550803Y888044D01*
X550621Y888024D01*
X550604Y888018D01*
X550586Y888016D01*
X550412Y887958D01*
X550237Y887902D01*
X550221Y887894D01*
X550204Y887888D01*
X550045Y887796D01*
X549884Y887708D01*
X549871Y887696D01*
X549855Y887687D01*
X549602Y887472D01*
X543902Y881772D01*
X543885Y881751D01*
X543864Y881733D01*
X543757Y881596D01*
X543647Y881460D01*
X543634Y881437D01*
X543618Y881415D01*
X543540Y881258D01*
X543458Y881104D01*
X543450Y881079D01*
X543438Y881055D01*
X543393Y880885D01*
X543343Y880719D01*
X543341Y880692D01*
X543334Y880666D01*
X543307Y880335D01*
X543307Y821465D01*
X543309Y821438D01*
X543307Y821411D01*
X543329Y821237D01*
X543347Y821064D01*
X543354Y821039D01*
X543358Y821012D01*
X543413Y820846D01*
X543465Y820679D01*
X543478Y820656D01*
X543486Y820630D01*
X543573Y820479D01*
X543657Y820325D01*
X543674Y820305D01*
X543687Y820281D01*
X543902Y820028D01*
X556007Y807923D01*
X556007Y677977D01*
X531202Y653172D01*
X531185Y653151D01*
X531164Y653133D01*
X531057Y652996D01*
X530947Y652860D01*
X530934Y652837D01*
X530918Y652815D01*
X530840Y652658D01*
X530758Y652504D01*
X530750Y652479D01*
X530738Y652455D01*
X530693Y652285D01*
X530643Y652119D01*
X530641Y652092D01*
X530634Y652066D01*
X530607Y651735D01*
X530607Y586515D01*
X530609Y586488D01*
X530607Y586461D01*
X530629Y586287D01*
X530647Y586114D01*
X530654Y586088D01*
X530658Y586062D01*
X530714Y585896D01*
X530765Y585729D01*
X530778Y585705D01*
X530786Y585680D01*
X530873Y585529D01*
X530957Y585375D01*
X530974Y585355D01*
X530987Y585331D01*
X531202Y585078D01*
X543307Y572973D01*
X543307Y550495D01*
X543309Y550468D01*
X543307Y550442D01*
X543329Y550268D01*
X543347Y550094D01*
X543354Y550069D01*
X543358Y550042D01*
X543413Y549876D01*
X543465Y549709D01*
X543478Y549686D01*
X543486Y549660D01*
X543573Y549509D01*
X543657Y549355D01*
X543674Y549335D01*
X543687Y549312D01*
X543902Y549059D01*
X549257Y543703D01*
X549257Y535497D01*
X543453Y529693D01*
X535247Y529693D01*
X529443Y535497D01*
X529443Y543703D01*
X535598Y549859D01*
X535615Y549879D01*
X535636Y549897D01*
X535743Y550035D01*
X535853Y550170D01*
X535866Y550194D01*
X535882Y550215D01*
X535960Y550371D01*
X536042Y550526D01*
X536050Y550551D01*
X536062Y550575D01*
X536107Y550745D01*
X536157Y550912D01*
X536159Y550938D01*
X536166Y550964D01*
X536193Y551295D01*
X536193Y569185D01*
X536191Y569212D01*
X536193Y569239D01*
X536171Y569413D01*
X536153Y569586D01*
X536146Y569611D01*
X536142Y569638D01*
X536087Y569804D01*
X536035Y569971D01*
X536022Y569994D01*
X536014Y570020D01*
X535927Y570171D01*
X535843Y570325D01*
X535826Y570345D01*
X535813Y570369D01*
X535598Y570622D01*
X526172Y580048D01*
X523493Y582727D01*
X523493Y655523D01*
X548298Y680328D01*
X548315Y680349D01*
X548336Y680367D01*
X548443Y680504D01*
X548553Y680640D01*
X548566Y680663D01*
X548582Y680685D01*
X548660Y680842D01*
X548742Y680996D01*
X548750Y681021D01*
X548762Y681045D01*
X548807Y681214D01*
X548857Y681381D01*
X548859Y681408D01*
X548866Y681434D01*
X548893Y681765D01*
X548893Y804135D01*
X548891Y804162D01*
X548893Y804189D01*
X548871Y804363D01*
X548853Y804536D01*
X548846Y804561D01*
X548842Y804588D01*
X548787Y804754D01*
X548735Y804921D01*
X548722Y804944D01*
X548714Y804970D01*
X548627Y805121D01*
X548543Y805275D01*
X548526Y805295D01*
X548513Y805319D01*
X548298Y805572D01*
X536193Y817677D01*
X536193Y884123D01*
X547790Y895720D01*
X547807Y895741D01*
X547828Y895758D01*
X547935Y895896D01*
X548045Y896032D01*
X548058Y896055D01*
X548074Y896077D01*
X548152Y896233D01*
X548234Y896387D01*
X548242Y896413D01*
X548254Y896437D01*
X548299Y896606D01*
X548349Y896773D01*
X548351Y896800D01*
X548358Y896826D01*
X548385Y897157D01*
X548385Y897169D01*
X549777Y900530D01*
X552350Y903103D01*
X555711Y904495D01*
X574589Y904495D01*
X577581Y903256D01*
X577594Y903252D01*
X577605Y903246D01*
X577786Y903194D01*
X577966Y903139D01*
X577979Y903138D01*
X577992Y903134D01*
X578180Y903119D01*
X578367Y903101D01*
X578380Y903102D01*
X578394Y903101D01*
X578581Y903123D01*
X578767Y903143D01*
X578780Y903147D01*
X578793Y903148D01*
X578973Y903207D01*
X579152Y903262D01*
X579163Y903269D01*
X579176Y903273D01*
X579341Y903366D01*
X579505Y903456D01*
X579515Y903464D01*
X579527Y903471D01*
X579669Y903594D01*
X579813Y903715D01*
X579821Y903725D01*
X579832Y903734D01*
X579947Y903883D01*
X580064Y904030D01*
X580070Y904042D01*
X580078Y904052D01*
X580162Y904221D01*
X580248Y904388D01*
X580252Y904401D01*
X580258Y904413D01*
X580307Y904596D01*
X580358Y904775D01*
X580359Y904788D01*
X580362Y904801D01*
X580389Y905132D01*
X580389Y910968D01*
X580388Y910981D01*
X580389Y910994D01*
X580368Y911181D01*
X580349Y911368D01*
X580345Y911381D01*
X580344Y911395D01*
X580286Y911573D01*
X580231Y911753D01*
X580225Y911765D01*
X580221Y911778D01*
X580129Y911942D01*
X580039Y912107D01*
X580031Y912118D01*
X580024Y912129D01*
X579902Y912273D01*
X579782Y912417D01*
X579771Y912425D01*
X579763Y912435D01*
X579614Y912551D01*
X579468Y912669D01*
X579456Y912675D01*
X579446Y912683D01*
X579277Y912768D01*
X579111Y912854D01*
X579098Y912858D01*
X579086Y912864D01*
X578904Y912914D01*
X578724Y912966D01*
X578710Y912967D01*
X578697Y912971D01*
X578509Y912983D01*
X578322Y912999D01*
X578309Y912997D01*
X578296Y912998D01*
X578108Y912974D01*
X577923Y912952D01*
X577910Y912948D01*
X577897Y912946D01*
X577581Y912844D01*
X575247Y911878D01*
X574589Y911605D01*
X555711Y911605D01*
X552350Y912997D01*
X549777Y915570D01*
X548385Y918931D01*
X548385Y922569D01*
X549777Y925930D01*
X552350Y928503D01*
X555711Y929895D01*
X574589Y929895D01*
X577581Y928656D01*
X577594Y928652D01*
X577605Y928646D01*
X577786Y928594D01*
X577966Y928539D01*
X577979Y928538D01*
X577992Y928534D01*
X578180Y928519D01*
X578367Y928501D01*
X578380Y928502D01*
X578394Y928501D01*
X578581Y928523D01*
X578767Y928543D01*
X578780Y928547D01*
X578793Y928548D01*
X578973Y928607D01*
X579152Y928662D01*
X579163Y928669D01*
X579176Y928673D01*
X579341Y928766D01*
X579505Y928856D01*
X579515Y928864D01*
X579527Y928871D01*
X579669Y928994D01*
X579813Y929115D01*
X579821Y929125D01*
X579832Y929134D01*
X579947Y929283D01*
X580064Y929430D01*
X580070Y929442D01*
X580078Y929452D01*
X580162Y929621D01*
X580248Y929788D01*
X580252Y929801D01*
X580258Y929813D01*
X580307Y929996D01*
X580358Y930175D01*
X580359Y930188D01*
X580362Y930201D01*
X580389Y930532D01*
X580389Y936368D01*
X580388Y936381D01*
X580389Y936394D01*
X580368Y936581D01*
X580349Y936768D01*
X580345Y936781D01*
X580344Y936795D01*
X580286Y936973D01*
X580231Y937153D01*
X580225Y937165D01*
X580221Y937178D01*
X580129Y937342D01*
X580039Y937507D01*
X580031Y937518D01*
X580024Y937529D01*
X579902Y937673D01*
X579782Y937817D01*
X579771Y937825D01*
X579763Y937835D01*
X579614Y937951D01*
X579468Y938069D01*
X579456Y938075D01*
X579446Y938083D01*
X579277Y938168D01*
X579111Y938254D01*
X579098Y938258D01*
X579086Y938264D01*
X578904Y938314D01*
X578724Y938366D01*
X578710Y938367D01*
X578697Y938371D01*
X578509Y938383D01*
X578322Y938399D01*
X578309Y938397D01*
X578296Y938398D01*
X578108Y938374D01*
X577923Y938352D01*
X577910Y938348D01*
X577897Y938346D01*
X577581Y938244D01*
X574589Y937005D01*
X555711Y937005D01*
X552350Y938397D01*
X549777Y940970D01*
X548385Y944331D01*
X548385Y947969D01*
X549777Y951330D01*
X552350Y953903D01*
X555711Y955295D01*
X574589Y955295D01*
X577581Y954056D01*
X577594Y954052D01*
X577605Y954046D01*
X577786Y953994D01*
X577966Y953939D01*
X577979Y953938D01*
X577992Y953934D01*
X578180Y953919D01*
X578367Y953901D01*
X578380Y953902D01*
X578394Y953901D01*
X578581Y953923D01*
X578767Y953943D01*
X578780Y953947D01*
X578793Y953948D01*
X578973Y954007D01*
X579152Y954062D01*
X579163Y954069D01*
X579176Y954073D01*
X579341Y954166D01*
X579505Y954256D01*
X579515Y954264D01*
X579527Y954271D01*
X579669Y954394D01*
X579813Y954515D01*
X579821Y954525D01*
X579832Y954534D01*
X579947Y954683D01*
X580064Y954830D01*
X580070Y954842D01*
X580078Y954852D01*
X580162Y955021D01*
X580248Y955188D01*
X580252Y955201D01*
X580258Y955213D01*
X580307Y955396D01*
X580358Y955575D01*
X580359Y955588D01*
X580362Y955601D01*
X580389Y955932D01*
X580389Y961768D01*
X580388Y961781D01*
X580389Y961794D01*
X580368Y961981D01*
X580349Y962168D01*
X580345Y962181D01*
X580344Y962195D01*
X580286Y962373D01*
X580231Y962553D01*
X580225Y962565D01*
X580221Y962578D01*
X580129Y962742D01*
X580039Y962907D01*
X580031Y962918D01*
X580024Y962929D01*
X579902Y963073D01*
X579782Y963217D01*
X579771Y963225D01*
X579763Y963235D01*
X579614Y963351D01*
X579468Y963469D01*
X579456Y963475D01*
X579446Y963483D01*
X579277Y963568D01*
X579111Y963654D01*
X579098Y963658D01*
X579086Y963664D01*
X578904Y963714D01*
X578724Y963766D01*
X578710Y963767D01*
X578697Y963771D01*
X578509Y963783D01*
X578322Y963799D01*
X578309Y963797D01*
X578296Y963798D01*
X578108Y963774D01*
X577923Y963752D01*
X577910Y963748D01*
X577897Y963746D01*
X577581Y963644D01*
X574589Y962405D01*
X555711Y962405D01*
X552350Y963797D01*
X549777Y966370D01*
X549624Y966739D01*
X549614Y966759D01*
X549607Y966780D01*
X549519Y966936D01*
X549434Y967094D01*
X549420Y967111D01*
X549409Y967131D01*
X549292Y967267D01*
X549178Y967405D01*
X549161Y967419D01*
X549146Y967436D01*
X549005Y967545D01*
X548865Y967658D01*
X548845Y967669D01*
X548828Y967682D01*
X548668Y967762D01*
X548509Y967845D01*
X548487Y967852D01*
X548467Y967862D01*
X548294Y967908D01*
X548122Y967958D01*
X548100Y967960D01*
X548079Y967966D01*
X547748Y967993D01*
X510315Y967993D01*
X510288Y967991D01*
X510261Y967993D01*
X510087Y967971D01*
X509914Y967953D01*
X509889Y967946D01*
X509862Y967942D01*
X509696Y967887D01*
X509529Y967835D01*
X509506Y967822D01*
X509480Y967814D01*
X509329Y967727D01*
X509175Y967643D01*
X509155Y967626D01*
X509131Y967613D01*
X508878Y967398D01*
X425002Y883522D01*
X424985Y883501D01*
X424964Y883483D01*
X424857Y883346D01*
X424747Y883210D01*
X424734Y883187D01*
X424718Y883165D01*
X424640Y883008D01*
X424558Y882854D01*
X424550Y882829D01*
X424538Y882805D01*
X424493Y882635D01*
X424443Y882469D01*
X424441Y882442D01*
X424434Y882416D01*
X424407Y882085D01*
X424407Y881594D01*
X423599Y879644D01*
X422106Y878151D01*
X420156Y877343D01*
X418044Y877343D01*
X416094Y878151D01*
X414601Y879644D01*
X413793Y881594D01*
X413793Y883706D01*
X414601Y885656D01*
X416094Y887149D01*
X418044Y887957D01*
X418535Y887957D01*
X418562Y887959D01*
X418589Y887957D01*
X418763Y887979D01*
X418936Y887997D01*
X418961Y888004D01*
X418988Y888008D01*
X419154Y888063D01*
X419321Y888115D01*
X419344Y888128D01*
X419370Y888136D01*
X419521Y888223D01*
X419675Y888307D01*
X419695Y888324D01*
X419719Y888337D01*
X419972Y888552D01*
X506527Y975107D01*
X547748Y975107D01*
X547770Y975109D01*
X547792Y975107D01*
X547970Y975129D01*
X548148Y975147D01*
X548170Y975153D01*
X548192Y975156D01*
X548362Y975212D01*
X548533Y975265D01*
X548553Y975275D01*
X548574Y975282D01*
X548730Y975371D01*
X548887Y975457D01*
X548905Y975471D01*
X548924Y975482D01*
X549059Y975600D01*
X549197Y975714D01*
X549211Y975732D01*
X549227Y975746D01*
X549337Y975889D01*
X549449Y976028D01*
X549459Y976048D01*
X549473Y976066D01*
X549624Y976361D01*
X549777Y976730D01*
X550012Y976965D01*
X550018Y976972D01*
X550025Y976977D01*
X550145Y977127D01*
X550267Y977276D01*
X550271Y977284D01*
X550277Y977291D01*
X550366Y977463D01*
X550456Y977632D01*
X550458Y977640D01*
X550462Y977649D01*
X550516Y977835D01*
X550570Y978018D01*
X550571Y978027D01*
X550574Y978036D01*
X550589Y978227D01*
X550607Y978419D01*
X550606Y978428D01*
X550607Y978437D01*
X550584Y978627D01*
X550563Y978819D01*
X550561Y978828D01*
X550560Y978837D01*
X550500Y979018D01*
X550442Y979203D01*
X550438Y979211D01*
X550435Y979219D01*
X550340Y979387D01*
X550247Y979555D01*
X550241Y979562D01*
X550237Y979570D01*
X550110Y979716D01*
X549987Y979862D01*
X549979Y979868D01*
X549974Y979875D01*
X549822Y979992D01*
X549671Y980112D01*
X549663Y980116D01*
X549655Y980121D01*
X549483Y980207D01*
X549312Y980294D01*
X549303Y980297D01*
X549295Y980301D01*
X549108Y980351D01*
X548924Y980402D01*
X548915Y980403D01*
X548906Y980405D01*
X548575Y980432D01*
X267336Y980385D01*
X267318Y980383D01*
X267300Y980384D01*
X267118Y980363D01*
X266935Y980345D01*
X266918Y980339D01*
X266901Y980337D01*
X266726Y980280D01*
X266550Y980226D01*
X266535Y980218D01*
X266518Y980212D01*
X266358Y980122D01*
X266196Y980035D01*
X266183Y980023D01*
X266167Y980015D01*
X266028Y979894D01*
X265887Y979777D01*
X265876Y979763D01*
X265862Y979751D01*
X265750Y979606D01*
X265635Y979463D01*
X265626Y979447D01*
X265616Y979433D01*
X265534Y979269D01*
X265449Y979106D01*
X265444Y979089D01*
X265436Y979073D01*
X265389Y978895D01*
X265338Y978719D01*
X265336Y978701D01*
X265332Y978684D01*
X265305Y978353D01*
X265305Y948988D01*
X264412Y948095D01*
X231988Y948095D01*
X231095Y948988D01*
X231095Y978347D01*
X231093Y978365D01*
X231095Y978383D01*
X231073Y978565D01*
X231055Y978747D01*
X231050Y978765D01*
X231048Y978783D01*
X230991Y978957D01*
X230937Y979132D01*
X230929Y979148D01*
X230923Y979165D01*
X230833Y979325D01*
X230745Y979486D01*
X230734Y979500D01*
X230725Y979516D01*
X230605Y979655D01*
X230488Y979796D01*
X230474Y979807D01*
X230462Y979821D01*
X230317Y979933D01*
X230174Y980048D01*
X230158Y980056D01*
X230144Y980067D01*
X229979Y980149D01*
X229817Y980233D01*
X229799Y980238D01*
X229783Y980247D01*
X229605Y980294D01*
X229430Y980345D01*
X229412Y980346D01*
X229394Y980351D01*
X229064Y980378D01*
X177336Y980369D01*
X177318Y980368D01*
X177300Y980369D01*
X177118Y980348D01*
X176935Y980329D01*
X176918Y980324D01*
X176901Y980322D01*
X176725Y980265D01*
X176550Y980211D01*
X176535Y980203D01*
X176518Y980197D01*
X176357Y980106D01*
X176196Y980019D01*
X176183Y980008D01*
X176167Y979999D01*
X176028Y979879D01*
X175887Y979761D01*
X175876Y979748D01*
X175862Y979736D01*
X175750Y979591D01*
X175635Y979448D01*
X175626Y979432D01*
X175616Y979418D01*
X175534Y979254D01*
X175449Y979090D01*
X175444Y979073D01*
X175436Y979058D01*
X175389Y978880D01*
X175338Y978703D01*
X175336Y978686D01*
X175332Y978669D01*
X175305Y978338D01*
X175305Y948988D01*
X174412Y948095D01*
X141988Y948095D01*
X141095Y948988D01*
X141095Y978332D01*
X141093Y978349D01*
X141095Y978367D01*
X141073Y978550D01*
X141055Y978732D01*
X141050Y978749D01*
X141048Y978767D01*
X140991Y978942D01*
X140937Y979117D01*
X140929Y979133D01*
X140923Y979150D01*
X140833Y979310D01*
X140745Y979471D01*
X140734Y979485D01*
X140725Y979501D01*
X140605Y979640D01*
X140488Y979780D01*
X140474Y979792D01*
X140462Y979805D01*
X140317Y979918D01*
X140174Y980033D01*
X140158Y980041D01*
X140144Y980052D01*
X139979Y980134D01*
X139817Y980218D01*
X139799Y980223D01*
X139783Y980231D01*
X139605Y980279D01*
X139430Y980330D01*
X139412Y980331D01*
X139394Y980336D01*
X139064Y980363D01*
X42060Y980346D01*
X42051Y980346D01*
X42042Y980346D01*
X41852Y980326D01*
X41659Y980306D01*
X41651Y980304D01*
X41642Y980303D01*
X41458Y980245D01*
X41274Y980188D01*
X41267Y980184D01*
X41258Y980181D01*
X41089Y980088D01*
X40920Y979996D01*
X40914Y979991D01*
X40906Y979987D01*
X40758Y979861D01*
X40611Y979739D01*
X40606Y979732D01*
X40599Y979726D01*
X40479Y979575D01*
X40359Y979425D01*
X40355Y979417D01*
X40349Y979410D01*
X40262Y979239D01*
X40173Y979067D01*
X40171Y979059D01*
X40167Y979051D01*
X40115Y978866D01*
X40062Y978681D01*
X40061Y978672D01*
X40059Y978663D01*
X40045Y978471D01*
X40029Y978279D01*
X40030Y978271D01*
X40030Y978262D01*
X40054Y978071D01*
X40076Y977879D01*
X40079Y977871D01*
X40080Y977862D01*
X40141Y977680D01*
X40201Y977497D01*
X40205Y977489D01*
X40208Y977481D01*
X40304Y977314D01*
X40399Y977146D01*
X40405Y977139D01*
X40409Y977132D01*
X40624Y976879D01*
X40773Y976730D01*
X42165Y973369D01*
X42165Y969731D01*
X40773Y966370D01*
X38200Y963797D01*
X34839Y962405D01*
X15961Y962405D01*
X12969Y963644D01*
X12956Y963648D01*
X12945Y963654D01*
X12764Y963706D01*
X12584Y963761D01*
X12571Y963762D01*
X12558Y963766D01*
X12370Y963781D01*
X12183Y963799D01*
X12170Y963798D01*
X12156Y963799D01*
X11969Y963777D01*
X11783Y963757D01*
X11770Y963753D01*
X11757Y963752D01*
X11577Y963693D01*
X11398Y963638D01*
X11387Y963631D01*
X11374Y963627D01*
X11209Y963534D01*
X11045Y963444D01*
X11035Y963436D01*
X11023Y963429D01*
X10881Y963306D01*
X10737Y963185D01*
X10729Y963175D01*
X10718Y963166D01*
X10603Y963017D01*
X10486Y962870D01*
X10480Y962858D01*
X10472Y962848D01*
X10388Y962679D01*
X10302Y962512D01*
X10298Y962499D01*
X10292Y962487D01*
X10243Y962304D01*
X10192Y962125D01*
X10191Y962112D01*
X10188Y962099D01*
X10161Y961768D01*
X10161Y955932D01*
X10162Y955919D01*
X10161Y955905D01*
X10182Y955719D01*
X10201Y955532D01*
X10205Y955519D01*
X10206Y955505D01*
X10264Y955326D01*
X10319Y955147D01*
X10325Y955135D01*
X10329Y955122D01*
X10421Y954957D01*
X10511Y954793D01*
X10519Y954782D01*
X10526Y954771D01*
X10648Y954627D01*
X10768Y954483D01*
X10779Y954475D01*
X10787Y954465D01*
X10936Y954348D01*
X11082Y954231D01*
X11094Y954225D01*
X11104Y954217D01*
X11274Y954132D01*
X11439Y954045D01*
X11452Y954042D01*
X11464Y954036D01*
X11647Y953986D01*
X11826Y953934D01*
X11840Y953933D01*
X11853Y953929D01*
X12041Y953917D01*
X12228Y953901D01*
X12241Y953903D01*
X12254Y953902D01*
X12442Y953926D01*
X12627Y953948D01*
X12640Y953952D01*
X12653Y953954D01*
X12969Y954056D01*
X15961Y955295D01*
X34839Y955295D01*
X38200Y953903D01*
X40773Y951330D01*
X40926Y950961D01*
X40936Y950941D01*
X40943Y950920D01*
X41031Y950764D01*
X41116Y950606D01*
X41130Y950589D01*
X41141Y950569D01*
X41258Y950433D01*
X41372Y950295D01*
X41389Y950281D01*
X41404Y950264D01*
X41545Y950155D01*
X41685Y950042D01*
X41705Y950031D01*
X41722Y950018D01*
X41882Y949938D01*
X42041Y949855D01*
X42063Y949848D01*
X42083Y949838D01*
X42256Y949792D01*
X42428Y949742D01*
X42450Y949740D01*
X42471Y949734D01*
X42802Y949707D01*
X103073Y949707D01*
X113428Y939352D01*
X113449Y939335D01*
X113467Y939314D01*
X113604Y939207D01*
X113740Y939097D01*
X113763Y939084D01*
X113785Y939068D01*
X113942Y938990D01*
X114096Y938908D01*
X114121Y938900D01*
X114145Y938888D01*
X114315Y938843D01*
X114481Y938793D01*
X114508Y938791D01*
X114534Y938784D01*
X114865Y938757D01*
X115356Y938757D01*
X117306Y937949D01*
X118799Y936456D01*
X119607Y934506D01*
X119607Y932394D01*
X118799Y930444D01*
X117306Y928951D01*
X115528Y928215D01*
X115524Y928212D01*
X115520Y928211D01*
X115348Y928118D01*
X115173Y928024D01*
X115169Y928022D01*
X115166Y928019D01*
X115015Y927894D01*
X114863Y927768D01*
X114860Y927765D01*
X114856Y927762D01*
X114733Y927609D01*
X114609Y927455D01*
X114607Y927451D01*
X114604Y927448D01*
X114514Y927275D01*
X114422Y927099D01*
X114420Y927095D01*
X114418Y927091D01*
X114364Y926903D01*
X114309Y926712D01*
X114308Y926708D01*
X114307Y926704D01*
X114299Y926604D01*
X114279Y926773D01*
X114278Y926778D01*
X114277Y926782D01*
X114216Y926967D01*
X114154Y927156D01*
X114152Y927160D01*
X114150Y927164D01*
X114054Y927333D01*
X113956Y927507D01*
X113953Y927510D01*
X113951Y927514D01*
X113823Y927661D01*
X113693Y927811D01*
X113689Y927814D01*
X113687Y927818D01*
X113530Y927938D01*
X113375Y928058D01*
X113371Y928060D01*
X113367Y928063D01*
X113072Y928215D01*
X111294Y928951D01*
X109801Y930444D01*
X108993Y932394D01*
X108993Y932885D01*
X108991Y932912D01*
X108993Y932939D01*
X108971Y933113D01*
X108953Y933286D01*
X108946Y933311D01*
X108942Y933338D01*
X108887Y933504D01*
X108835Y933671D01*
X108822Y933694D01*
X108814Y933720D01*
X108727Y933871D01*
X108643Y934025D01*
X108626Y934045D01*
X108613Y934069D01*
X108398Y934322D01*
X100722Y941998D01*
X100701Y942015D01*
X100683Y942036D01*
X100546Y942143D01*
X100410Y942253D01*
X100387Y942266D01*
X100365Y942282D01*
X100208Y942360D01*
X100054Y942442D01*
X100029Y942450D01*
X100005Y942462D01*
X99835Y942507D01*
X99669Y942557D01*
X99642Y942559D01*
X99616Y942566D01*
X99285Y942593D01*
X42802Y942593D01*
X42780Y942591D01*
X42758Y942593D01*
X42580Y942571D01*
X42402Y942553D01*
X42380Y942547D01*
X42358Y942544D01*
X42188Y942488D01*
X42017Y942435D01*
X41997Y942425D01*
X41976Y942418D01*
X41820Y942329D01*
X41663Y942243D01*
X41645Y942229D01*
X41626Y942218D01*
X41491Y942100D01*
X41353Y941986D01*
X41339Y941968D01*
X41323Y941954D01*
X41213Y941811D01*
X41101Y941672D01*
X41091Y941652D01*
X41077Y941634D01*
X40926Y941339D01*
X40773Y940970D01*
X38200Y938397D01*
X34839Y937005D01*
X15961Y937005D01*
X12969Y938244D01*
X12956Y938248D01*
X12945Y938255D01*
X12765Y938306D01*
X12584Y938361D01*
X12571Y938362D01*
X12558Y938366D01*
X12370Y938381D01*
X12183Y938399D01*
X12170Y938398D01*
X12156Y938399D01*
X11970Y938377D01*
X11783Y938357D01*
X11770Y938353D01*
X11757Y938352D01*
X11578Y938294D01*
X11398Y938238D01*
X11387Y938231D01*
X11374Y938227D01*
X11210Y938135D01*
X11045Y938044D01*
X11035Y938036D01*
X11023Y938029D01*
X10881Y937907D01*
X10737Y937785D01*
X10729Y937775D01*
X10718Y937766D01*
X10604Y937618D01*
X10486Y937470D01*
X10480Y937458D01*
X10472Y937448D01*
X10388Y937280D01*
X10302Y937112D01*
X10298Y937099D01*
X10292Y937087D01*
X10243Y936905D01*
X10192Y936725D01*
X10191Y936712D01*
X10188Y936699D01*
X10161Y936368D01*
X10161Y930532D01*
X10162Y930519D01*
X10161Y930505D01*
X10182Y930319D01*
X10201Y930132D01*
X10205Y930119D01*
X10206Y930105D01*
X10264Y929926D01*
X10319Y929747D01*
X10325Y929735D01*
X10329Y929722D01*
X10421Y929557D01*
X10511Y929393D01*
X10519Y929382D01*
X10526Y929371D01*
X10648Y929227D01*
X10768Y929083D01*
X10779Y929075D01*
X10787Y929065D01*
X10936Y928948D01*
X11082Y928831D01*
X11094Y928825D01*
X11104Y928817D01*
X11274Y928732D01*
X11439Y928645D01*
X11452Y928642D01*
X11464Y928636D01*
X11647Y928586D01*
X11826Y928534D01*
X11840Y928533D01*
X11853Y928529D01*
X12041Y928517D01*
X12228Y928501D01*
X12241Y928503D01*
X12254Y928502D01*
X12442Y928526D01*
X12627Y928548D01*
X12640Y928552D01*
X12653Y928554D01*
X12969Y928656D01*
X15961Y929895D01*
X34839Y929895D01*
X38200Y928503D01*
X40773Y925930D01*
X40926Y925561D01*
X40936Y925541D01*
X40943Y925520D01*
X41031Y925364D01*
X41116Y925206D01*
X41130Y925189D01*
X41141Y925169D01*
X41258Y925033D01*
X41372Y924895D01*
X41389Y924881D01*
X41404Y924864D01*
X41545Y924755D01*
X41685Y924642D01*
X41705Y924631D01*
X41722Y924618D01*
X41882Y924538D01*
X42041Y924455D01*
X42063Y924448D01*
X42083Y924438D01*
X42256Y924392D01*
X42428Y924342D01*
X42450Y924340D01*
X42471Y924334D01*
X42802Y924307D01*
X52273Y924307D01*
X64378Y912202D01*
X64399Y912185D01*
X64417Y912164D01*
X64554Y912057D01*
X64690Y911947D01*
X64713Y911934D01*
X64735Y911918D01*
X64892Y911840D01*
X65046Y911758D01*
X65071Y911750D01*
X65095Y911738D01*
X65265Y911693D01*
X65431Y911643D01*
X65458Y911641D01*
X65484Y911634D01*
X65815Y911607D01*
X74195Y911607D01*
X74199Y911607D01*
X74204Y911607D01*
X74398Y911627D01*
X74595Y911647D01*
X74600Y911648D01*
X74604Y911648D01*
X74792Y911707D01*
X74980Y911765D01*
X74984Y911767D01*
X74989Y911768D01*
X75163Y911864D01*
X75334Y911957D01*
X75338Y911959D01*
X75342Y911962D01*
X75495Y912090D01*
X75644Y912214D01*
X75646Y912218D01*
X75650Y912221D01*
X75773Y912375D01*
X75896Y912528D01*
X75898Y912532D01*
X75901Y912535D01*
X75990Y912710D01*
X76082Y912885D01*
X76083Y912890D01*
X76085Y912894D01*
X76138Y913081D01*
X76193Y913272D01*
X76193Y913277D01*
X76194Y913281D01*
X76209Y913474D01*
X76226Y913674D01*
X76225Y913678D01*
X76226Y913682D01*
X76202Y913876D01*
X76179Y914073D01*
X76177Y914078D01*
X76177Y914082D01*
X76116Y914267D01*
X76054Y914456D01*
X76052Y914460D01*
X76050Y914464D01*
X75954Y914633D01*
X75856Y914807D01*
X75853Y914810D01*
X75851Y914814D01*
X75724Y914960D01*
X75593Y915111D01*
X75589Y915114D01*
X75587Y915118D01*
X75430Y915238D01*
X75275Y915358D01*
X75271Y915360D01*
X75267Y915363D01*
X74972Y915515D01*
X73194Y916251D01*
X71701Y917744D01*
X70893Y919694D01*
X70893Y921806D01*
X71701Y923756D01*
X73194Y925249D01*
X75144Y926057D01*
X77256Y926057D01*
X79206Y925249D01*
X79553Y924902D01*
X79574Y924885D01*
X79591Y924864D01*
X79729Y924757D01*
X79865Y924647D01*
X79888Y924634D01*
X79909Y924618D01*
X80066Y924540D01*
X80220Y924458D01*
X80246Y924450D01*
X80270Y924438D01*
X80439Y924393D01*
X80606Y924343D01*
X80633Y924341D01*
X80659Y924334D01*
X80990Y924307D01*
X112295Y924307D01*
X112299Y924307D01*
X112304Y924307D01*
X112498Y924327D01*
X112696Y924347D01*
X112700Y924348D01*
X112704Y924348D01*
X112892Y924407D01*
X113080Y924465D01*
X113084Y924467D01*
X113089Y924468D01*
X113262Y924563D01*
X113434Y924657D01*
X113438Y924659D01*
X113442Y924662D01*
X113595Y924790D01*
X113744Y924914D01*
X113746Y924918D01*
X113750Y924921D01*
X113873Y925074D01*
X113996Y925228D01*
X113998Y925232D01*
X114001Y925236D01*
X114093Y925414D01*
X114182Y925585D01*
X114183Y925590D01*
X114185Y925594D01*
X114240Y925787D01*
X114293Y925972D01*
X114293Y925977D01*
X114295Y925981D01*
X114301Y926069D01*
X114319Y925911D01*
X114321Y925907D01*
X114321Y925903D01*
X114382Y925717D01*
X114442Y925528D01*
X114445Y925524D01*
X114446Y925520D01*
X114543Y925348D01*
X114639Y925176D01*
X114642Y925173D01*
X114644Y925169D01*
X114772Y925021D01*
X114901Y924871D01*
X114904Y924868D01*
X114907Y924864D01*
X115062Y924744D01*
X115218Y924622D01*
X115222Y924620D01*
X115225Y924618D01*
X115401Y924530D01*
X115577Y924442D01*
X115582Y924440D01*
X115586Y924438D01*
X115777Y924387D01*
X115966Y924335D01*
X115970Y924335D01*
X115974Y924334D01*
X116305Y924307D01*
X255473Y924307D01*
X318378Y861402D01*
X318399Y861385D01*
X318417Y861364D01*
X318554Y861257D01*
X318690Y861147D01*
X318713Y861134D01*
X318735Y861118D01*
X318892Y861040D01*
X319046Y860958D01*
X319071Y860950D01*
X319095Y860938D01*
X319265Y860893D01*
X319431Y860843D01*
X319458Y860841D01*
X319484Y860834D01*
X319815Y860807D01*
X426612Y860807D01*
X426630Y860809D01*
X426648Y860807D01*
X426830Y860828D01*
X427013Y860847D01*
X427030Y860852D01*
X427047Y860854D01*
X427222Y860911D01*
X427398Y860965D01*
X427413Y860973D01*
X427430Y860979D01*
X427590Y861069D01*
X427752Y861157D01*
X427765Y861168D01*
X427781Y861177D01*
X427920Y861297D01*
X428061Y861414D01*
X428072Y861428D01*
X428086Y861440D01*
X428198Y861585D01*
X428313Y861728D01*
X428321Y861744D01*
X428332Y861758D01*
X428414Y861923D01*
X428499Y862085D01*
X428504Y862102D01*
X428512Y862118D01*
X428559Y862297D01*
X428610Y862472D01*
X428612Y862490D01*
X428616Y862507D01*
X428643Y862838D01*
X428643Y866114D01*
X429536Y867007D01*
X447564Y867007D01*
X448457Y866114D01*
X448457Y848086D01*
X447564Y847193D01*
X429536Y847193D01*
X428643Y848086D01*
X428643Y851662D01*
X428641Y851680D01*
X428643Y851698D01*
X428622Y851880D01*
X428603Y852063D01*
X428598Y852080D01*
X428596Y852097D01*
X428539Y852272D01*
X428485Y852448D01*
X428477Y852463D01*
X428471Y852480D01*
X428381Y852640D01*
X428293Y852802D01*
X428282Y852815D01*
X428273Y852831D01*
X428153Y852970D01*
X428036Y853111D01*
X428022Y853122D01*
X428010Y853136D01*
X427865Y853248D01*
X427722Y853363D01*
X427706Y853371D01*
X427692Y853382D01*
X427527Y853464D01*
X427365Y853549D01*
X427348Y853554D01*
X427332Y853562D01*
X427153Y853609D01*
X426978Y853660D01*
X426960Y853662D01*
X426943Y853666D01*
X426612Y853693D01*
X316027Y853693D01*
X253122Y916598D01*
X253101Y916615D01*
X253083Y916636D01*
X252946Y916743D01*
X252810Y916853D01*
X252787Y916866D01*
X252765Y916882D01*
X252608Y916960D01*
X252454Y917042D01*
X252429Y917050D01*
X252405Y917062D01*
X252235Y917107D01*
X252069Y917157D01*
X252042Y917159D01*
X252016Y917166D01*
X251685Y917193D01*
X116305Y917193D01*
X116301Y917193D01*
X116296Y917193D01*
X116102Y917173D01*
X115905Y917153D01*
X115900Y917152D01*
X115896Y917152D01*
X115708Y917093D01*
X115520Y917035D01*
X115516Y917033D01*
X115511Y917032D01*
X115337Y916936D01*
X115166Y916843D01*
X115162Y916841D01*
X115158Y916838D01*
X115005Y916710D01*
X114856Y916586D01*
X114854Y916582D01*
X114850Y916579D01*
X114727Y916425D01*
X114604Y916272D01*
X114602Y916268D01*
X114599Y916265D01*
X114510Y916090D01*
X114418Y915915D01*
X114417Y915910D01*
X114415Y915906D01*
X114362Y915719D01*
X114307Y915528D01*
X114307Y915523D01*
X114306Y915519D01*
X114291Y915326D01*
X114274Y915126D01*
X114275Y915122D01*
X114274Y915118D01*
X114298Y914924D01*
X114321Y914727D01*
X114323Y914722D01*
X114323Y914718D01*
X114384Y914533D01*
X114446Y914344D01*
X114448Y914340D01*
X114450Y914336D01*
X114546Y914167D01*
X114644Y913993D01*
X114647Y913990D01*
X114649Y913986D01*
X114779Y913837D01*
X114907Y913689D01*
X114911Y913686D01*
X114913Y913682D01*
X115070Y913562D01*
X115225Y913442D01*
X115229Y913440D01*
X115233Y913437D01*
X115528Y913285D01*
X117306Y912549D01*
X118799Y911056D01*
X119607Y909106D01*
X119607Y906994D01*
X118799Y905044D01*
X117306Y903551D01*
X115356Y902743D01*
X113244Y902743D01*
X111294Y903551D01*
X110947Y903898D01*
X110926Y903915D01*
X110909Y903936D01*
X110771Y904042D01*
X110635Y904153D01*
X110612Y904166D01*
X110591Y904182D01*
X110434Y904260D01*
X110280Y904342D01*
X110254Y904350D01*
X110230Y904362D01*
X110061Y904407D01*
X109894Y904457D01*
X109867Y904459D01*
X109841Y904466D01*
X109510Y904493D01*
X62027Y904493D01*
X49922Y916598D01*
X49901Y916615D01*
X49883Y916636D01*
X49746Y916743D01*
X49610Y916853D01*
X49587Y916866D01*
X49565Y916882D01*
X49408Y916960D01*
X49254Y917042D01*
X49229Y917050D01*
X49205Y917062D01*
X49035Y917107D01*
X48869Y917157D01*
X48842Y917159D01*
X48816Y917166D01*
X48485Y917193D01*
X42802Y917193D01*
X42780Y917191D01*
X42758Y917193D01*
X42580Y917171D01*
X42402Y917153D01*
X42380Y917147D01*
X42358Y917144D01*
X42188Y917088D01*
X42017Y917035D01*
X41997Y917025D01*
X41976Y917018D01*
X41820Y916929D01*
X41663Y916843D01*
X41645Y916829D01*
X41626Y916818D01*
X41491Y916700D01*
X41353Y916586D01*
X41339Y916568D01*
X41323Y916554D01*
X41213Y916411D01*
X41101Y916272D01*
X41091Y916252D01*
X41077Y916234D01*
X40926Y915939D01*
X40773Y915570D01*
X38200Y912997D01*
X35497Y911878D01*
X34839Y911605D01*
X15961Y911605D01*
X12969Y912844D01*
X12956Y912848D01*
X12945Y912855D01*
X12765Y912906D01*
X12584Y912961D01*
X12571Y912962D01*
X12558Y912966D01*
X12370Y912981D01*
X12183Y912999D01*
X12170Y912998D01*
X12156Y912999D01*
X11970Y912977D01*
X11783Y912957D01*
X11770Y912953D01*
X11757Y912952D01*
X11578Y912894D01*
X11398Y912838D01*
X11387Y912831D01*
X11374Y912827D01*
X11210Y912735D01*
X11045Y912644D01*
X11035Y912636D01*
X11023Y912629D01*
X10881Y912507D01*
X10737Y912385D01*
X10729Y912375D01*
X10718Y912366D01*
X10604Y912218D01*
X10486Y912070D01*
X10480Y912058D01*
X10472Y912048D01*
X10388Y911880D01*
X10302Y911712D01*
X10298Y911699D01*
X10292Y911687D01*
X10243Y911505D01*
X10192Y911325D01*
X10191Y911312D01*
X10188Y911299D01*
X10161Y910968D01*
X10161Y905132D01*
X10162Y905119D01*
X10161Y905105D01*
X10182Y904919D01*
X10201Y904732D01*
X10205Y904719D01*
X10206Y904705D01*
X10264Y904526D01*
X10319Y904347D01*
X10325Y904335D01*
X10329Y904322D01*
X10421Y904157D01*
X10511Y903993D01*
X10519Y903982D01*
X10526Y903971D01*
X10648Y903827D01*
X10768Y903683D01*
X10779Y903675D01*
X10787Y903665D01*
X10936Y903548D01*
X11082Y903431D01*
X11094Y903425D01*
X11104Y903417D01*
X11274Y903332D01*
X11439Y903245D01*
X11452Y903242D01*
X11464Y903236D01*
X11647Y903186D01*
X11826Y903134D01*
X11840Y903133D01*
X11853Y903129D01*
X12041Y903117D01*
X12228Y903101D01*
X12241Y903103D01*
X12254Y903102D01*
X12442Y903126D01*
X12627Y903148D01*
X12640Y903152D01*
X12653Y903154D01*
X12969Y903256D01*
X15961Y904495D01*
X34839Y904495D01*
X38200Y903103D01*
X40773Y900530D01*
X40926Y900161D01*
X40936Y900141D01*
X40943Y900120D01*
X41031Y899964D01*
X41116Y899806D01*
X41130Y899789D01*
X41141Y899769D01*
X41258Y899633D01*
X41372Y899495D01*
X41389Y899481D01*
X41404Y899464D01*
X41545Y899355D01*
X41685Y899242D01*
X41705Y899231D01*
X41722Y899218D01*
X41882Y899138D01*
X42041Y899055D01*
X42063Y899048D01*
X42083Y899038D01*
X42256Y898992D01*
X42428Y898942D01*
X42450Y898940D01*
X42471Y898934D01*
X42802Y898907D01*
X109423Y898907D01*
X153278Y855052D01*
X153299Y855035D01*
X153317Y855014D01*
X153454Y854907D01*
X153590Y854797D01*
X153613Y854784D01*
X153635Y854768D01*
X153792Y854690D01*
X153946Y854608D01*
X153971Y854600D01*
X153995Y854588D01*
X154165Y854543D01*
X154331Y854493D01*
X154358Y854491D01*
X154384Y854484D01*
X154715Y854457D01*
X173010Y854457D01*
X173037Y854459D01*
X173064Y854457D01*
X173238Y854479D01*
X173411Y854497D01*
X173437Y854504D01*
X173463Y854508D01*
X173629Y854563D01*
X173796Y854615D01*
X173820Y854628D01*
X173845Y854636D01*
X173997Y854723D01*
X174150Y854807D01*
X174171Y854824D01*
X174194Y854837D01*
X174447Y855052D01*
X174794Y855399D01*
X176744Y856207D01*
X178856Y856207D01*
X180806Y855399D01*
X182299Y853906D01*
X183107Y851956D01*
X183107Y849844D01*
X182299Y847894D01*
X180806Y846401D01*
X178856Y845593D01*
X176744Y845593D01*
X174794Y846401D01*
X174447Y846748D01*
X174426Y846765D01*
X174409Y846786D01*
X174271Y846893D01*
X174135Y847003D01*
X174112Y847016D01*
X174091Y847032D01*
X173934Y847110D01*
X173780Y847192D01*
X173754Y847200D01*
X173730Y847212D01*
X173561Y847257D01*
X173394Y847307D01*
X173367Y847309D01*
X173341Y847316D01*
X173010Y847343D01*
X172610Y847343D01*
X172602Y847342D01*
X172593Y847343D01*
X172401Y847322D01*
X172210Y847303D01*
X172201Y847301D01*
X172192Y847300D01*
X172010Y847242D01*
X171825Y847185D01*
X171817Y847181D01*
X171808Y847178D01*
X171640Y847085D01*
X171471Y846993D01*
X171464Y846988D01*
X171456Y846983D01*
X171308Y846858D01*
X171162Y846736D01*
X171156Y846729D01*
X171149Y846723D01*
X171030Y846572D01*
X170909Y846422D01*
X170905Y846414D01*
X170900Y846407D01*
X170813Y846236D01*
X170724Y846065D01*
X170721Y846056D01*
X170717Y846048D01*
X170665Y845862D01*
X170612Y845678D01*
X170612Y845669D01*
X170609Y845660D01*
X170595Y845468D01*
X170579Y845276D01*
X170580Y845268D01*
X170580Y845259D01*
X170604Y845065D01*
X170626Y844877D01*
X170629Y844868D01*
X170630Y844859D01*
X170691Y844678D01*
X170751Y844494D01*
X170756Y844486D01*
X170758Y844478D01*
X170854Y844312D01*
X170949Y844143D01*
X170955Y844136D01*
X170959Y844129D01*
X171174Y843876D01*
X171991Y843059D01*
X173229Y840071D01*
X173229Y837438D01*
X173231Y837420D01*
X173229Y837402D01*
X173250Y837220D01*
X173269Y837037D01*
X173274Y837020D01*
X173276Y837003D01*
X173333Y836828D01*
X173387Y836652D01*
X173395Y836637D01*
X173401Y836620D01*
X173492Y836459D01*
X173579Y836298D01*
X173590Y836285D01*
X173599Y836269D01*
X173719Y836130D01*
X173836Y835989D01*
X173850Y835978D01*
X173862Y835964D01*
X174007Y835852D01*
X174150Y835737D01*
X174166Y835729D01*
X174180Y835718D01*
X174345Y835636D01*
X174507Y835551D01*
X174524Y835546D01*
X174540Y835538D01*
X174719Y835491D01*
X174894Y835440D01*
X174912Y835438D01*
X174929Y835434D01*
X175260Y835407D01*
X180340Y835407D01*
X180358Y835409D01*
X180376Y835407D01*
X180558Y835428D01*
X180741Y835447D01*
X180758Y835452D01*
X180775Y835454D01*
X180950Y835511D01*
X181126Y835565D01*
X181141Y835573D01*
X181158Y835579D01*
X181318Y835669D01*
X181480Y835757D01*
X181493Y835768D01*
X181509Y835777D01*
X181648Y835897D01*
X181789Y836014D01*
X181800Y836028D01*
X181814Y836040D01*
X181926Y836185D01*
X182041Y836328D01*
X182049Y836344D01*
X182060Y836358D01*
X182142Y836523D01*
X182227Y836685D01*
X182232Y836702D01*
X182240Y836718D01*
X182287Y836897D01*
X182338Y837072D01*
X182340Y837090D01*
X182344Y837107D01*
X182371Y837438D01*
X182371Y840071D01*
X183609Y843059D01*
X185895Y845345D01*
X188883Y846583D01*
X192117Y846583D01*
X195105Y845345D01*
X197391Y843059D01*
X198629Y840071D01*
X198629Y837438D01*
X198631Y837420D01*
X198629Y837402D01*
X198650Y837220D01*
X198669Y837037D01*
X198674Y837020D01*
X198676Y837003D01*
X198733Y836828D01*
X198787Y836652D01*
X198795Y836637D01*
X198801Y836620D01*
X198892Y836459D01*
X198979Y836298D01*
X198990Y836285D01*
X198999Y836269D01*
X199119Y836130D01*
X199236Y835989D01*
X199250Y835978D01*
X199262Y835964D01*
X199407Y835852D01*
X199550Y835737D01*
X199566Y835729D01*
X199580Y835718D01*
X199745Y835636D01*
X199907Y835551D01*
X199924Y835546D01*
X199940Y835538D01*
X200119Y835491D01*
X200294Y835440D01*
X200312Y835438D01*
X200329Y835434D01*
X200660Y835407D01*
X207120Y835407D01*
X207146Y835409D01*
X207173Y835407D01*
X207347Y835429D01*
X207520Y835447D01*
X207546Y835454D01*
X207572Y835458D01*
X207738Y835513D01*
X207905Y835565D01*
X207929Y835578D01*
X207954Y835586D01*
X208106Y835673D01*
X208259Y835757D01*
X208280Y835774D01*
X208303Y835787D01*
X208556Y836002D01*
X212533Y839979D01*
X219267Y839979D01*
X224029Y835217D01*
X224029Y828483D01*
X219267Y823721D01*
X212533Y823721D01*
X208556Y827698D01*
X208535Y827715D01*
X208518Y827736D01*
X208380Y827843D01*
X208244Y827953D01*
X208221Y827966D01*
X208200Y827982D01*
X208043Y828060D01*
X207889Y828142D01*
X207863Y828150D01*
X207839Y828162D01*
X207670Y828207D01*
X207503Y828257D01*
X207476Y828259D01*
X207450Y828266D01*
X207120Y828293D01*
X200660Y828293D01*
X200642Y828291D01*
X200624Y828293D01*
X200442Y828272D01*
X200259Y828253D01*
X200242Y828248D01*
X200225Y828246D01*
X200050Y828189D01*
X199874Y828135D01*
X199859Y828127D01*
X199842Y828121D01*
X199682Y828031D01*
X199520Y827943D01*
X199507Y827932D01*
X199491Y827923D01*
X199352Y827803D01*
X199211Y827686D01*
X199200Y827672D01*
X199186Y827660D01*
X199074Y827515D01*
X198959Y827372D01*
X198951Y827356D01*
X198940Y827342D01*
X198858Y827177D01*
X198773Y827015D01*
X198768Y826998D01*
X198760Y826982D01*
X198713Y826803D01*
X198662Y826628D01*
X198660Y826610D01*
X198656Y826593D01*
X198629Y826262D01*
X198629Y823629D01*
X197391Y820641D01*
X195105Y818355D01*
X192117Y817117D01*
X188883Y817117D01*
X185895Y818355D01*
X183609Y820641D01*
X182371Y823629D01*
X182371Y826262D01*
X182369Y826280D01*
X182371Y826298D01*
X182350Y826480D01*
X182331Y826663D01*
X182326Y826680D01*
X182324Y826697D01*
X182267Y826872D01*
X182213Y827048D01*
X182205Y827063D01*
X182199Y827080D01*
X182109Y827240D01*
X182021Y827402D01*
X182010Y827415D01*
X182001Y827431D01*
X181881Y827570D01*
X181764Y827711D01*
X181750Y827722D01*
X181738Y827736D01*
X181593Y827848D01*
X181450Y827963D01*
X181434Y827971D01*
X181420Y827982D01*
X181255Y828064D01*
X181093Y828149D01*
X181076Y828154D01*
X181060Y828162D01*
X180881Y828209D01*
X180706Y828260D01*
X180688Y828262D01*
X180671Y828266D01*
X180340Y828293D01*
X175260Y828293D01*
X175242Y828291D01*
X175224Y828293D01*
X175042Y828272D01*
X174859Y828253D01*
X174842Y828248D01*
X174825Y828246D01*
X174650Y828189D01*
X174474Y828135D01*
X174459Y828127D01*
X174442Y828121D01*
X174282Y828031D01*
X174120Y827943D01*
X174107Y827932D01*
X174091Y827923D01*
X173952Y827803D01*
X173811Y827686D01*
X173800Y827672D01*
X173786Y827660D01*
X173674Y827515D01*
X173559Y827372D01*
X173551Y827356D01*
X173540Y827342D01*
X173458Y827177D01*
X173373Y827015D01*
X173368Y826998D01*
X173360Y826982D01*
X173313Y826803D01*
X173262Y826628D01*
X173260Y826610D01*
X173256Y826593D01*
X173229Y826262D01*
X173229Y823629D01*
X171991Y820641D01*
X169705Y818355D01*
X166717Y817117D01*
X163483Y817117D01*
X160495Y818355D01*
X158209Y820641D01*
X156971Y823629D01*
X156971Y826262D01*
X156969Y826280D01*
X156971Y826298D01*
X156950Y826480D01*
X156931Y826663D01*
X156926Y826680D01*
X156924Y826697D01*
X156867Y826872D01*
X156813Y827048D01*
X156805Y827063D01*
X156799Y827080D01*
X156709Y827240D01*
X156621Y827402D01*
X156610Y827415D01*
X156601Y827431D01*
X156481Y827570D01*
X156364Y827711D01*
X156350Y827722D01*
X156338Y827736D01*
X156193Y827848D01*
X156050Y827963D01*
X156034Y827971D01*
X156020Y827982D01*
X155855Y828064D01*
X155693Y828149D01*
X155676Y828154D01*
X155660Y828162D01*
X155481Y828209D01*
X155306Y828260D01*
X155288Y828262D01*
X155271Y828266D01*
X154940Y828293D01*
X144577Y828293D01*
X132472Y840398D01*
X132451Y840415D01*
X132433Y840436D01*
X132296Y840543D01*
X132160Y840653D01*
X132137Y840666D01*
X132115Y840682D01*
X131958Y840760D01*
X131804Y840842D01*
X131779Y840850D01*
X131755Y840862D01*
X131585Y840907D01*
X131419Y840957D01*
X131392Y840959D01*
X131366Y840966D01*
X131035Y840993D01*
X112395Y840993D01*
X112373Y840991D01*
X112351Y840993D01*
X112174Y840971D01*
X111995Y840953D01*
X111973Y840947D01*
X111951Y840944D01*
X111782Y840888D01*
X111610Y840835D01*
X111590Y840825D01*
X111569Y840818D01*
X111414Y840729D01*
X111256Y840643D01*
X111239Y840629D01*
X111219Y840618D01*
X111084Y840500D01*
X110947Y840386D01*
X110933Y840368D01*
X110916Y840354D01*
X110807Y840212D01*
X110694Y840072D01*
X110684Y840052D01*
X110670Y840034D01*
X110519Y839739D01*
X109887Y838213D01*
X107137Y835463D01*
X103544Y833975D01*
X99656Y833975D01*
X96063Y835463D01*
X93313Y838213D01*
X91825Y841806D01*
X91825Y845694D01*
X93313Y849287D01*
X96063Y852037D01*
X99656Y853525D01*
X103544Y853525D01*
X107137Y852037D01*
X109899Y849274D01*
X109962Y849163D01*
X110046Y849006D01*
X110060Y848989D01*
X110071Y848969D01*
X110189Y848833D01*
X110303Y848695D01*
X110320Y848681D01*
X110335Y848664D01*
X110476Y848555D01*
X110615Y848442D01*
X110635Y848431D01*
X110653Y848418D01*
X110813Y848338D01*
X110972Y848255D01*
X110993Y848248D01*
X111013Y848238D01*
X111187Y848192D01*
X111358Y848142D01*
X111380Y848140D01*
X111402Y848134D01*
X111733Y848107D01*
X134823Y848107D01*
X146928Y836002D01*
X146949Y835985D01*
X146967Y835964D01*
X147104Y835857D01*
X147240Y835747D01*
X147263Y835734D01*
X147285Y835718D01*
X147442Y835640D01*
X147596Y835558D01*
X147621Y835550D01*
X147645Y835538D01*
X147815Y835493D01*
X147981Y835443D01*
X148008Y835441D01*
X148034Y835434D01*
X148365Y835407D01*
X154940Y835407D01*
X154958Y835409D01*
X154976Y835407D01*
X155158Y835428D01*
X155341Y835447D01*
X155358Y835452D01*
X155375Y835454D01*
X155550Y835511D01*
X155726Y835565D01*
X155741Y835573D01*
X155758Y835579D01*
X155918Y835669D01*
X156080Y835757D01*
X156093Y835768D01*
X156109Y835777D01*
X156248Y835897D01*
X156389Y836014D01*
X156400Y836028D01*
X156414Y836040D01*
X156526Y836185D01*
X156641Y836328D01*
X156649Y836344D01*
X156660Y836358D01*
X156742Y836523D01*
X156827Y836685D01*
X156832Y836702D01*
X156840Y836718D01*
X156887Y836897D01*
X156938Y837072D01*
X156940Y837090D01*
X156944Y837107D01*
X156971Y837438D01*
X156971Y840071D01*
X158209Y843059D01*
X159026Y843876D01*
X159032Y843883D01*
X159038Y843888D01*
X159158Y844037D01*
X159281Y844187D01*
X159285Y844195D01*
X159291Y844202D01*
X159379Y844372D01*
X159470Y844543D01*
X159472Y844552D01*
X159476Y844559D01*
X159529Y844742D01*
X159584Y844929D01*
X159585Y844938D01*
X159588Y844946D01*
X159603Y845136D01*
X159621Y845330D01*
X159620Y845339D01*
X159621Y845348D01*
X159598Y845537D01*
X159577Y845730D01*
X159575Y845739D01*
X159574Y845747D01*
X159514Y845930D01*
X159456Y846114D01*
X159452Y846122D01*
X159449Y846130D01*
X159355Y846297D01*
X159261Y846466D01*
X159255Y846473D01*
X159251Y846481D01*
X159126Y846626D01*
X159001Y846773D01*
X158994Y846779D01*
X158988Y846786D01*
X158836Y846903D01*
X158685Y847023D01*
X158677Y847027D01*
X158670Y847032D01*
X158498Y847118D01*
X158326Y847205D01*
X158317Y847208D01*
X158309Y847212D01*
X158124Y847261D01*
X157938Y847313D01*
X157929Y847314D01*
X157920Y847316D01*
X157590Y847343D01*
X150927Y847343D01*
X107072Y891198D01*
X107051Y891215D01*
X107033Y891236D01*
X106896Y891343D01*
X106760Y891453D01*
X106737Y891466D01*
X106715Y891482D01*
X106558Y891560D01*
X106404Y891642D01*
X106379Y891650D01*
X106355Y891662D01*
X106185Y891707D01*
X106019Y891757D01*
X105992Y891759D01*
X105966Y891766D01*
X105635Y891793D01*
X42802Y891793D01*
X42780Y891791D01*
X42758Y891793D01*
X42580Y891771D01*
X42402Y891753D01*
X42380Y891747D01*
X42358Y891744D01*
X42188Y891688D01*
X42017Y891635D01*
X41997Y891625D01*
X41976Y891618D01*
X41820Y891529D01*
X41663Y891443D01*
X41645Y891429D01*
X41626Y891418D01*
X41491Y891300D01*
X41353Y891186D01*
X41339Y891168D01*
X41323Y891154D01*
X41213Y891011D01*
X41101Y890872D01*
X41091Y890852D01*
X41077Y890834D01*
X40926Y890539D01*
X40773Y890170D01*
X38200Y887597D01*
X34839Y886205D01*
X15961Y886205D01*
X12969Y887444D01*
X12956Y887448D01*
X12945Y887455D01*
X12765Y887506D01*
X12584Y887561D01*
X12571Y887562D01*
X12558Y887566D01*
X12370Y887581D01*
X12183Y887599D01*
X12170Y887598D01*
X12156Y887599D01*
X11970Y887577D01*
X11783Y887557D01*
X11770Y887553D01*
X11757Y887552D01*
X11578Y887494D01*
X11398Y887438D01*
X11387Y887431D01*
X11374Y887427D01*
X11210Y887335D01*
X11045Y887244D01*
X11035Y887236D01*
X11023Y887229D01*
X10881Y887107D01*
X10737Y886985D01*
X10729Y886975D01*
X10718Y886966D01*
X10604Y886818D01*
X10486Y886670D01*
X10480Y886658D01*
X10472Y886648D01*
X10388Y886480D01*
X10302Y886312D01*
X10298Y886299D01*
X10292Y886287D01*
X10243Y886104D01*
X10192Y885925D01*
X10191Y885912D01*
X10188Y885899D01*
X10161Y885568D01*
X10161Y879732D01*
X10162Y879719D01*
X10161Y879705D01*
X10182Y879519D01*
X10201Y879332D01*
X10205Y879319D01*
X10206Y879305D01*
X10264Y879126D01*
X10319Y878947D01*
X10325Y878935D01*
X10329Y878922D01*
X10421Y878757D01*
X10511Y878593D01*
X10519Y878582D01*
X10526Y878571D01*
X10648Y878427D01*
X10768Y878283D01*
X10779Y878275D01*
X10787Y878265D01*
X10936Y878148D01*
X11082Y878031D01*
X11094Y878025D01*
X11104Y878017D01*
X11274Y877932D01*
X11439Y877845D01*
X11452Y877842D01*
X11464Y877836D01*
X11647Y877786D01*
X11826Y877734D01*
X11840Y877733D01*
X11853Y877729D01*
X12041Y877717D01*
X12228Y877701D01*
X12241Y877703D01*
X12254Y877702D01*
X12442Y877726D01*
X12627Y877748D01*
X12640Y877752D01*
X12653Y877754D01*
X12969Y877856D01*
X15961Y879095D01*
X34839Y879095D01*
X38200Y877703D01*
X40773Y875130D01*
X42165Y871769D01*
X42165Y868131D01*
X40773Y864770D01*
X38200Y862197D01*
X34839Y860805D01*
X15961Y860805D01*
X12969Y862044D01*
X12956Y862048D01*
X12945Y862055D01*
X12765Y862106D01*
X12584Y862161D01*
X12571Y862162D01*
X12558Y862166D01*
X12370Y862181D01*
X12183Y862199D01*
X12170Y862198D01*
X12156Y862199D01*
X11970Y862177D01*
X11783Y862157D01*
X11770Y862153D01*
X11757Y862152D01*
X11578Y862094D01*
X11398Y862038D01*
X11387Y862031D01*
X11374Y862027D01*
X11210Y861935D01*
X11045Y861844D01*
X11035Y861836D01*
X11023Y861829D01*
X10881Y861707D01*
X10737Y861585D01*
X10729Y861575D01*
X10718Y861566D01*
X10604Y861418D01*
X10486Y861270D01*
X10480Y861258D01*
X10472Y861248D01*
X10388Y861080D01*
X10302Y860912D01*
X10298Y860899D01*
X10292Y860887D01*
X10243Y860705D01*
X10192Y860525D01*
X10191Y860512D01*
X10188Y860499D01*
X10161Y860168D01*
X10161Y854332D01*
X10162Y854319D01*
X10161Y854305D01*
X10182Y854119D01*
X10201Y853932D01*
X10205Y853919D01*
X10206Y853905D01*
X10264Y853726D01*
X10319Y853547D01*
X10325Y853535D01*
X10329Y853522D01*
X10421Y853357D01*
X10511Y853193D01*
X10519Y853182D01*
X10526Y853171D01*
X10648Y853027D01*
X10768Y852883D01*
X10779Y852875D01*
X10787Y852865D01*
X10936Y852748D01*
X11082Y852631D01*
X11094Y852625D01*
X11104Y852617D01*
X11274Y852532D01*
X11439Y852445D01*
X11452Y852442D01*
X11464Y852436D01*
X11647Y852386D01*
X11826Y852334D01*
X11840Y852333D01*
X11853Y852329D01*
X12041Y852317D01*
X12228Y852301D01*
X12241Y852303D01*
X12254Y852302D01*
X12442Y852326D01*
X12627Y852348D01*
X12640Y852352D01*
X12653Y852354D01*
X12969Y852456D01*
X15961Y853695D01*
X34839Y853695D01*
X38200Y852303D01*
X40773Y849730D01*
X40926Y849361D01*
X40936Y849341D01*
X40943Y849320D01*
X41031Y849164D01*
X41116Y849006D01*
X41130Y848989D01*
X41141Y848969D01*
X41258Y848833D01*
X41372Y848695D01*
X41389Y848681D01*
X41404Y848664D01*
X41545Y848555D01*
X41685Y848442D01*
X41705Y848431D01*
X41722Y848418D01*
X41882Y848338D01*
X42041Y848255D01*
X42063Y848248D01*
X42083Y848238D01*
X42256Y848192D01*
X42428Y848142D01*
X42450Y848140D01*
X42471Y848134D01*
X42802Y848107D01*
X71410Y848107D01*
X71437Y848109D01*
X71464Y848107D01*
X71638Y848129D01*
X71811Y848147D01*
X71837Y848154D01*
X71863Y848158D01*
X72029Y848213D01*
X72196Y848265D01*
X72220Y848278D01*
X72245Y848286D01*
X72397Y848373D01*
X72550Y848457D01*
X72571Y848474D01*
X72594Y848487D01*
X72847Y848702D01*
X73194Y849049D01*
X75144Y849857D01*
X77256Y849857D01*
X79206Y849049D01*
X80699Y847556D01*
X81507Y845606D01*
X81507Y843494D01*
X80699Y841544D01*
X79206Y840051D01*
X77256Y839243D01*
X75144Y839243D01*
X73194Y840051D01*
X72847Y840398D01*
X72826Y840415D01*
X72809Y840436D01*
X72671Y840543D01*
X72535Y840653D01*
X72512Y840666D01*
X72491Y840682D01*
X72334Y840760D01*
X72180Y840842D01*
X72154Y840850D01*
X72130Y840862D01*
X71961Y840907D01*
X71794Y840957D01*
X71767Y840959D01*
X71741Y840966D01*
X71410Y840993D01*
X42802Y840993D01*
X42780Y840991D01*
X42758Y840993D01*
X42580Y840971D01*
X42402Y840953D01*
X42380Y840947D01*
X42358Y840944D01*
X42188Y840888D01*
X42017Y840835D01*
X41997Y840825D01*
X41976Y840818D01*
X41820Y840729D01*
X41663Y840643D01*
X41645Y840629D01*
X41626Y840618D01*
X41491Y840500D01*
X41353Y840386D01*
X41339Y840368D01*
X41323Y840354D01*
X41213Y840211D01*
X41101Y840072D01*
X41091Y840052D01*
X41077Y840034D01*
X40926Y839739D01*
X40773Y839370D01*
X38200Y836797D01*
X34839Y835405D01*
X15961Y835405D01*
X12969Y836644D01*
X12956Y836648D01*
X12945Y836655D01*
X12765Y836706D01*
X12584Y836761D01*
X12571Y836762D01*
X12558Y836766D01*
X12370Y836781D01*
X12183Y836799D01*
X12170Y836798D01*
X12156Y836799D01*
X11970Y836777D01*
X11783Y836757D01*
X11770Y836753D01*
X11757Y836752D01*
X11578Y836694D01*
X11398Y836638D01*
X11387Y836631D01*
X11374Y836627D01*
X11210Y836535D01*
X11045Y836444D01*
X11035Y836436D01*
X11023Y836429D01*
X10881Y836307D01*
X10737Y836185D01*
X10729Y836175D01*
X10718Y836166D01*
X10604Y836018D01*
X10486Y835870D01*
X10480Y835858D01*
X10472Y835848D01*
X10388Y835680D01*
X10302Y835512D01*
X10298Y835499D01*
X10292Y835487D01*
X10243Y835305D01*
X10192Y835125D01*
X10191Y835112D01*
X10188Y835099D01*
X10161Y834768D01*
X10161Y40718D01*
X10161Y40714D01*
X10161Y40709D01*
X10181Y40515D01*
X10201Y40318D01*
X10202Y40313D01*
X10202Y40309D01*
X10261Y40121D01*
X10319Y39933D01*
X10321Y39929D01*
X10322Y39925D01*
X10418Y39750D01*
X10511Y39579D01*
X10513Y39575D01*
X10516Y39571D01*
X10644Y39419D01*
X10768Y39270D01*
X10772Y39267D01*
X10775Y39263D01*
X10930Y39140D01*
X11082Y39017D01*
X11086Y39015D01*
X11090Y39012D01*
X11268Y38921D01*
X11439Y38832D01*
X11444Y38830D01*
X11448Y38828D01*
X11641Y38774D01*
X11826Y38720D01*
X11831Y38720D01*
X11835Y38719D01*
X12031Y38704D01*
X12228Y38687D01*
X12232Y38688D01*
X12236Y38688D01*
X12430Y38711D01*
X12627Y38734D01*
X12632Y38736D01*
X12636Y38736D01*
X12821Y38798D01*
X13010Y38859D01*
X13014Y38861D01*
X13018Y38863D01*
X13187Y38959D01*
X13361Y39057D01*
X13364Y39060D01*
X13368Y39062D01*
X13517Y39192D01*
X13665Y39320D01*
X13668Y39324D01*
X13672Y39327D01*
X13794Y39486D01*
X13912Y39638D01*
X13914Y39642D01*
X13917Y39646D01*
X14069Y39941D01*
X14551Y41106D01*
X16044Y42599D01*
X17994Y43407D01*
X20106Y43407D01*
X22056Y42599D01*
X22403Y42252D01*
X22424Y42235D01*
X22441Y42214D01*
X22579Y42107D01*
X22715Y41997D01*
X22738Y41984D01*
X22759Y41968D01*
X22916Y41890D01*
X23070Y41808D01*
X23096Y41800D01*
X23120Y41788D01*
X23289Y41743D01*
X23456Y41693D01*
X23483Y41691D01*
X23509Y41684D01*
X23840Y41657D01*
X57303Y41657D01*
X57308Y41657D01*
X57312Y41657D01*
X57507Y41677D01*
X57704Y41697D01*
X57708Y41698D01*
X57713Y41698D01*
X57900Y41757D01*
X58089Y41815D01*
X58093Y41817D01*
X58097Y41818D01*
X58267Y41911D01*
X58443Y42007D01*
X58446Y42009D01*
X58450Y42012D01*
X58601Y42138D01*
X58752Y42264D01*
X58755Y42268D01*
X58759Y42271D01*
X58882Y42426D01*
X59005Y42578D01*
X59007Y42582D01*
X59010Y42586D01*
X59101Y42763D01*
X59190Y42935D01*
X59191Y42940D01*
X59193Y42944D01*
X59248Y43136D01*
X59302Y43322D01*
X59302Y43327D01*
X59303Y43331D01*
X59318Y43523D01*
X59334Y43724D01*
X59334Y43728D01*
X59334Y43732D01*
X59311Y43927D01*
X59288Y44123D01*
X59286Y44128D01*
X59286Y44132D01*
X59224Y44318D01*
X59163Y44506D01*
X59160Y44510D01*
X59159Y44514D01*
X59062Y44685D01*
X58965Y44857D01*
X58962Y44860D01*
X58960Y44864D01*
X58829Y45014D01*
X58702Y45161D01*
X58698Y45164D01*
X58695Y45168D01*
X58538Y45289D01*
X58384Y45408D01*
X58380Y45410D01*
X58376Y45413D01*
X58081Y45565D01*
X57963Y45613D01*
X55213Y48363D01*
X53725Y51956D01*
X53725Y55844D01*
X55213Y59437D01*
X57963Y62187D01*
X61556Y63675D01*
X65444Y63675D01*
X69037Y62187D01*
X71787Y59437D01*
X73275Y55844D01*
X73275Y51956D01*
X71787Y48363D01*
X69037Y45613D01*
X68919Y45565D01*
X68915Y45563D01*
X68911Y45561D01*
X68738Y45468D01*
X68564Y45374D01*
X68561Y45372D01*
X68557Y45369D01*
X68407Y45244D01*
X68254Y45118D01*
X68251Y45115D01*
X68248Y45112D01*
X68124Y44958D01*
X68000Y44805D01*
X67998Y44801D01*
X67995Y44798D01*
X67905Y44625D01*
X67813Y44449D01*
X67812Y44444D01*
X67810Y44441D01*
X67756Y44255D01*
X67700Y44063D01*
X67700Y44058D01*
X67698Y44054D01*
X67682Y43857D01*
X67665Y43661D01*
X67666Y43657D01*
X67666Y43652D01*
X67689Y43457D01*
X67711Y43261D01*
X67712Y43257D01*
X67712Y43253D01*
X67774Y43065D01*
X67834Y42878D01*
X67836Y42874D01*
X67837Y42870D01*
X67936Y42695D01*
X68030Y42527D01*
X68033Y42523D01*
X68035Y42519D01*
X68165Y42369D01*
X68292Y42221D01*
X68295Y42218D01*
X68298Y42214D01*
X68452Y42095D01*
X68609Y41972D01*
X68613Y41970D01*
X68616Y41968D01*
X68791Y41881D01*
X68969Y41792D01*
X68973Y41790D01*
X68977Y41788D01*
X69167Y41737D01*
X69357Y41685D01*
X69361Y41685D01*
X69366Y41684D01*
X69697Y41657D01*
X118645Y41657D01*
X118649Y41657D01*
X118654Y41657D01*
X118848Y41677D01*
X119045Y41697D01*
X119050Y41698D01*
X119054Y41698D01*
X119242Y41757D01*
X119430Y41815D01*
X119434Y41817D01*
X119439Y41818D01*
X119613Y41914D01*
X119784Y42007D01*
X119788Y42009D01*
X119792Y42012D01*
X119945Y42140D01*
X120094Y42264D01*
X120096Y42268D01*
X120100Y42271D01*
X120223Y42424D01*
X120346Y42578D01*
X120348Y42582D01*
X120351Y42585D01*
X120440Y42760D01*
X120532Y42935D01*
X120533Y42940D01*
X120535Y42944D01*
X120588Y43130D01*
X120643Y43322D01*
X120643Y43327D01*
X120644Y43331D01*
X120659Y43523D01*
X120676Y43724D01*
X120675Y43728D01*
X120676Y43732D01*
X120652Y43926D01*
X120629Y44123D01*
X120627Y44128D01*
X120627Y44132D01*
X120566Y44317D01*
X120504Y44506D01*
X120502Y44510D01*
X120500Y44514D01*
X120404Y44683D01*
X120306Y44857D01*
X120303Y44860D01*
X120301Y44864D01*
X120171Y45013D01*
X120043Y45161D01*
X120039Y45164D01*
X120037Y45168D01*
X119880Y45288D01*
X119725Y45408D01*
X119721Y45410D01*
X119717Y45413D01*
X119422Y45565D01*
X117644Y46301D01*
X116151Y47794D01*
X115343Y49744D01*
X115343Y51856D01*
X116151Y53806D01*
X117644Y55299D01*
X119594Y56107D01*
X121706Y56107D01*
X123656Y55299D01*
X124003Y54952D01*
X124024Y54935D01*
X124041Y54914D01*
X124179Y54807D01*
X124315Y54697D01*
X124338Y54684D01*
X124359Y54668D01*
X124516Y54590D01*
X124670Y54508D01*
X124696Y54500D01*
X124720Y54488D01*
X124889Y54443D01*
X125056Y54393D01*
X125083Y54391D01*
X125109Y54384D01*
X125440Y54357D01*
X217460Y54357D01*
X217487Y54359D01*
X217514Y54357D01*
X217688Y54379D01*
X217861Y54397D01*
X217887Y54404D01*
X217913Y54408D01*
X218079Y54463D01*
X218246Y54515D01*
X218270Y54528D01*
X218295Y54536D01*
X218447Y54623D01*
X218600Y54707D01*
X218621Y54724D01*
X218644Y54737D01*
X218897Y54952D01*
X219244Y55299D01*
X221194Y56107D01*
X223306Y56107D01*
X225256Y55299D01*
X226749Y53806D01*
X227557Y51856D01*
X227557Y49744D01*
X226749Y47794D01*
X225256Y46301D01*
X223478Y45565D01*
X223474Y45563D01*
X223470Y45561D01*
X223297Y45468D01*
X223123Y45374D01*
X223119Y45372D01*
X223116Y45369D01*
X222967Y45245D01*
X222813Y45118D01*
X222810Y45115D01*
X222806Y45112D01*
X222683Y44959D01*
X222559Y44805D01*
X222557Y44801D01*
X222554Y44798D01*
X222464Y44625D01*
X222372Y44449D01*
X222371Y44445D01*
X222368Y44441D01*
X222313Y44248D01*
X222259Y44062D01*
X222258Y44058D01*
X222257Y44054D01*
X222241Y43856D01*
X222224Y43661D01*
X222225Y43657D01*
X222224Y43652D01*
X222247Y43458D01*
X222269Y43261D01*
X222271Y43257D01*
X222271Y43253D01*
X222332Y43065D01*
X222392Y42878D01*
X222395Y42874D01*
X222396Y42870D01*
X222494Y42696D01*
X222589Y42526D01*
X222592Y42523D01*
X222594Y42519D01*
X222722Y42370D01*
X222851Y42221D01*
X222854Y42218D01*
X222857Y42214D01*
X223012Y42094D01*
X223168Y41972D01*
X223172Y41970D01*
X223175Y41968D01*
X223353Y41879D01*
X223527Y41792D01*
X223532Y41790D01*
X223536Y41788D01*
X223728Y41737D01*
X223916Y41685D01*
X223920Y41685D01*
X223924Y41684D01*
X224255Y41657D01*
X397748Y41657D01*
X397771Y41659D01*
X397795Y41657D01*
X397860Y41665D01*
X400052Y41657D01*
X400056Y41657D01*
X400060Y41657D01*
X401531Y41657D01*
X402564Y40616D01*
X402567Y40614D01*
X402570Y40610D01*
X404128Y39052D01*
X404196Y38971D01*
X413685Y29407D01*
X413709Y29388D01*
X413729Y29364D01*
X413864Y29260D01*
X413996Y29151D01*
X414023Y29136D01*
X414047Y29118D01*
X414200Y29042D01*
X414351Y28961D01*
X414380Y28952D01*
X414408Y28938D01*
X414573Y28894D01*
X414736Y28845D01*
X414767Y28842D01*
X414796Y28834D01*
X415127Y28807D01*
X422803Y28807D01*
X428607Y23003D01*
X428607Y14797D01*
X427438Y13628D01*
X427433Y13621D01*
X427426Y13616D01*
X427306Y13466D01*
X427183Y13317D01*
X427179Y13309D01*
X427174Y13302D01*
X427085Y13132D01*
X426995Y12961D01*
X426992Y12952D01*
X426988Y12945D01*
X426935Y12760D01*
X426880Y12575D01*
X426879Y12566D01*
X426877Y12558D01*
X426861Y12367D01*
X426844Y12174D01*
X426845Y12165D01*
X426844Y12156D01*
X426866Y11967D01*
X426887Y11774D01*
X426890Y11765D01*
X426891Y11757D01*
X426950Y11575D01*
X427009Y11390D01*
X427013Y11382D01*
X427016Y11374D01*
X427110Y11207D01*
X427203Y11038D01*
X427209Y11031D01*
X427214Y11023D01*
X427339Y10878D01*
X427464Y10731D01*
X427471Y10725D01*
X427477Y10718D01*
X427627Y10602D01*
X427780Y10481D01*
X427788Y10477D01*
X427795Y10472D01*
X427966Y10386D01*
X428139Y10299D01*
X428147Y10296D01*
X428155Y10292D01*
X428341Y10242D01*
X428527Y10191D01*
X428535Y10190D01*
X428544Y10188D01*
X428875Y10161D01*
X521785Y10161D01*
X521911Y10173D01*
G37*
%LPC*%
G36*
X118779Y322071D02*
X118779Y322071D01*
X115791Y323309D01*
X114068Y325032D01*
X114047Y325049D01*
X114030Y325070D01*
X113892Y325177D01*
X113756Y325287D01*
X113733Y325300D01*
X113712Y325316D01*
X113555Y325394D01*
X113401Y325476D01*
X113375Y325484D01*
X113351Y325496D01*
X113182Y325541D01*
X113015Y325591D01*
X112988Y325593D01*
X112962Y325600D01*
X112632Y325627D01*
X104832Y325627D01*
X104801Y325624D01*
X104769Y325626D01*
X104600Y325604D01*
X104431Y325587D01*
X104401Y325578D01*
X104370Y325574D01*
X104054Y325473D01*
X102656Y324893D01*
X100544Y324893D01*
X99146Y325473D01*
X99116Y325482D01*
X99088Y325496D01*
X98923Y325540D01*
X98760Y325589D01*
X98729Y325592D01*
X98699Y325600D01*
X98368Y325627D01*
X62590Y325627D01*
X60910Y326323D01*
X27873Y359360D01*
X27177Y361040D01*
X27177Y623210D01*
X27873Y624890D01*
X67260Y664277D01*
X68940Y664973D01*
X148119Y664973D01*
X148127Y664974D01*
X148136Y664973D01*
X148328Y664994D01*
X148519Y665013D01*
X148528Y665015D01*
X148537Y665016D01*
X148719Y665074D01*
X148904Y665131D01*
X148912Y665135D01*
X148920Y665138D01*
X149089Y665231D01*
X149258Y665323D01*
X149265Y665328D01*
X149273Y665333D01*
X149421Y665458D01*
X149567Y665580D01*
X149573Y665587D01*
X149580Y665593D01*
X149700Y665745D01*
X149820Y665894D01*
X149824Y665902D01*
X149829Y665909D01*
X149917Y666081D01*
X150005Y666251D01*
X150008Y666260D01*
X150012Y666268D01*
X150064Y666454D01*
X150117Y666638D01*
X150117Y666647D01*
X150120Y666656D01*
X150134Y666848D01*
X150149Y667040D01*
X150148Y667048D01*
X150149Y667057D01*
X150125Y667250D01*
X150103Y667439D01*
X150100Y667448D01*
X150099Y667457D01*
X150037Y667640D01*
X149978Y667822D01*
X149973Y667830D01*
X149970Y667838D01*
X149875Y668004D01*
X149780Y668173D01*
X149774Y668180D01*
X149770Y668187D01*
X149555Y668440D01*
X147901Y670094D01*
X147093Y672044D01*
X147093Y674156D01*
X147901Y676106D01*
X149394Y677599D01*
X151344Y678407D01*
X153456Y678407D01*
X155406Y677599D01*
X155753Y677252D01*
X155774Y677235D01*
X155791Y677214D01*
X155929Y677107D01*
X156065Y676997D01*
X156088Y676984D01*
X156109Y676968D01*
X156266Y676890D01*
X156420Y676808D01*
X156446Y676800D01*
X156470Y676788D01*
X156639Y676743D01*
X156806Y676693D01*
X156833Y676691D01*
X156859Y676684D01*
X157190Y676657D01*
X198410Y676657D01*
X198437Y676659D01*
X198464Y676657D01*
X198638Y676679D01*
X198811Y676697D01*
X198837Y676704D01*
X198863Y676708D01*
X199029Y676763D01*
X199196Y676815D01*
X199220Y676828D01*
X199245Y676836D01*
X199397Y676923D01*
X199550Y677007D01*
X199571Y677024D01*
X199594Y677037D01*
X199847Y677252D01*
X200194Y677599D01*
X202144Y678407D01*
X204256Y678407D01*
X206206Y677599D01*
X207699Y676106D01*
X208507Y674156D01*
X208507Y672044D01*
X207699Y670094D01*
X206206Y668601D01*
X205063Y668128D01*
X204256Y667793D01*
X202144Y667793D01*
X200194Y668601D01*
X199847Y668948D01*
X199826Y668965D01*
X199809Y668986D01*
X199671Y669093D01*
X199535Y669203D01*
X199512Y669216D01*
X199491Y669232D01*
X199334Y669310D01*
X199180Y669392D01*
X199154Y669400D01*
X199130Y669412D01*
X198961Y669457D01*
X198794Y669507D01*
X198767Y669509D01*
X198741Y669516D01*
X198410Y669543D01*
X192505Y669543D01*
X192501Y669543D01*
X192496Y669543D01*
X192302Y669523D01*
X192104Y669503D01*
X192100Y669502D01*
X192096Y669502D01*
X191908Y669443D01*
X191720Y669385D01*
X191716Y669383D01*
X191711Y669382D01*
X191537Y669286D01*
X191366Y669193D01*
X191362Y669191D01*
X191358Y669188D01*
X191205Y669060D01*
X191056Y668936D01*
X191054Y668932D01*
X191050Y668929D01*
X190927Y668774D01*
X190804Y668622D01*
X190802Y668618D01*
X190799Y668614D01*
X190707Y668436D01*
X190618Y668265D01*
X190617Y668260D01*
X190615Y668256D01*
X190560Y668062D01*
X190507Y667878D01*
X190507Y667873D01*
X190505Y667869D01*
X190490Y667673D01*
X190474Y667476D01*
X190475Y667472D01*
X190474Y667468D01*
X190498Y667274D01*
X190521Y667077D01*
X190522Y667072D01*
X190523Y667068D01*
X190584Y666883D01*
X190646Y666694D01*
X190648Y666690D01*
X190650Y666686D01*
X190746Y666517D01*
X190844Y666343D01*
X190847Y666340D01*
X190849Y666336D01*
X190977Y666189D01*
X191107Y666039D01*
X191111Y666036D01*
X191113Y666032D01*
X191270Y665912D01*
X191425Y665792D01*
X191429Y665790D01*
X191433Y665787D01*
X191728Y665635D01*
X193506Y664899D01*
X194999Y663406D01*
X195807Y661456D01*
X195807Y659344D01*
X194999Y657394D01*
X193506Y655901D01*
X191728Y655165D01*
X191724Y655162D01*
X191720Y655161D01*
X191548Y655068D01*
X191373Y654974D01*
X191369Y654972D01*
X191366Y654969D01*
X191215Y654844D01*
X191063Y654718D01*
X191060Y654715D01*
X191056Y654712D01*
X190933Y654559D01*
X190809Y654405D01*
X190807Y654401D01*
X190804Y654398D01*
X190714Y654225D01*
X190622Y654049D01*
X190620Y654045D01*
X190618Y654041D01*
X190564Y653853D01*
X190509Y653662D01*
X190508Y653658D01*
X190507Y653654D01*
X190491Y653456D01*
X190474Y653261D01*
X190475Y653257D01*
X190474Y653252D01*
X190497Y653058D01*
X190519Y652861D01*
X190521Y652857D01*
X190521Y652853D01*
X190582Y652667D01*
X190642Y652478D01*
X190645Y652474D01*
X190646Y652470D01*
X190743Y652298D01*
X190839Y652126D01*
X190842Y652123D01*
X190844Y652119D01*
X190973Y651969D01*
X191101Y651821D01*
X191104Y651818D01*
X191107Y651814D01*
X191262Y651694D01*
X191418Y651572D01*
X191422Y651570D01*
X191425Y651568D01*
X191601Y651480D01*
X191777Y651392D01*
X191782Y651390D01*
X191786Y651388D01*
X191977Y651337D01*
X192166Y651285D01*
X192170Y651285D01*
X192174Y651284D01*
X192505Y651257D01*
X318973Y651257D01*
X321651Y648579D01*
X321652Y648578D01*
X343778Y626452D01*
X346457Y623773D01*
X346457Y614395D01*
X346459Y614368D01*
X346457Y614342D01*
X346479Y614168D01*
X346497Y613994D01*
X346504Y613969D01*
X346508Y613942D01*
X346564Y613776D01*
X346615Y613609D01*
X346628Y613586D01*
X346636Y613560D01*
X346723Y613409D01*
X346807Y613255D01*
X346824Y613235D01*
X346837Y613212D01*
X347052Y612959D01*
X352807Y607203D01*
X352807Y598997D01*
X347003Y593193D01*
X338797Y593193D01*
X332993Y598997D01*
X332993Y607203D01*
X338748Y612959D01*
X338765Y612979D01*
X338786Y612997D01*
X338893Y613135D01*
X339003Y613270D01*
X339016Y613294D01*
X339032Y613315D01*
X339110Y613471D01*
X339192Y613626D01*
X339200Y613651D01*
X339212Y613675D01*
X339257Y613845D01*
X339307Y614012D01*
X339309Y614038D01*
X339316Y614064D01*
X339343Y614395D01*
X339343Y619985D01*
X339341Y620012D01*
X339343Y620039D01*
X339321Y620213D01*
X339303Y620386D01*
X339296Y620411D01*
X339292Y620438D01*
X339237Y620604D01*
X339185Y620771D01*
X339172Y620794D01*
X339164Y620820D01*
X339077Y620971D01*
X338993Y621125D01*
X338976Y621145D01*
X338963Y621169D01*
X338748Y621422D01*
X316622Y643548D01*
X316601Y643565D01*
X316584Y643586D01*
X316446Y643693D01*
X316310Y643803D01*
X316287Y643816D01*
X316265Y643832D01*
X316108Y643910D01*
X315954Y643992D01*
X315929Y644000D01*
X315905Y644012D01*
X315735Y644057D01*
X315569Y644107D01*
X315542Y644109D01*
X315516Y644116D01*
X315185Y644143D01*
X192505Y644143D01*
X192501Y644143D01*
X192496Y644143D01*
X192302Y644123D01*
X192104Y644103D01*
X192100Y644102D01*
X192096Y644102D01*
X191908Y644043D01*
X191720Y643985D01*
X191716Y643983D01*
X191711Y643982D01*
X191537Y643886D01*
X191366Y643793D01*
X191362Y643791D01*
X191358Y643788D01*
X191205Y643660D01*
X191056Y643536D01*
X191054Y643532D01*
X191050Y643529D01*
X190927Y643374D01*
X190804Y643222D01*
X190802Y643218D01*
X190799Y643214D01*
X190707Y643036D01*
X190618Y642865D01*
X190617Y642860D01*
X190615Y642856D01*
X190560Y642663D01*
X190507Y642478D01*
X190507Y642473D01*
X190505Y642469D01*
X190490Y642273D01*
X190474Y642076D01*
X190475Y642072D01*
X190474Y642068D01*
X190498Y641874D01*
X190521Y641677D01*
X190522Y641672D01*
X190523Y641668D01*
X190584Y641483D01*
X190646Y641294D01*
X190648Y641290D01*
X190650Y641286D01*
X190746Y641117D01*
X190844Y640943D01*
X190847Y640940D01*
X190849Y640936D01*
X190977Y640789D01*
X191107Y640639D01*
X191111Y640636D01*
X191113Y640632D01*
X191270Y640512D01*
X191425Y640392D01*
X191429Y640390D01*
X191433Y640387D01*
X191728Y640235D01*
X193506Y639499D01*
X194999Y638006D01*
X195807Y636056D01*
X195807Y633944D01*
X194999Y631994D01*
X193506Y630501D01*
X191556Y629693D01*
X189444Y629693D01*
X187494Y630501D01*
X187147Y630848D01*
X187126Y630865D01*
X187109Y630886D01*
X186971Y630993D01*
X186835Y631103D01*
X186812Y631116D01*
X186791Y631132D01*
X186634Y631210D01*
X186480Y631292D01*
X186454Y631300D01*
X186430Y631312D01*
X186261Y631357D01*
X186094Y631407D01*
X186067Y631409D01*
X186041Y631416D01*
X185710Y631443D01*
X68290Y631443D01*
X68263Y631441D01*
X68236Y631443D01*
X68062Y631421D01*
X67889Y631403D01*
X67863Y631396D01*
X67837Y631392D01*
X67671Y631337D01*
X67504Y631285D01*
X67480Y631272D01*
X67455Y631264D01*
X67303Y631177D01*
X67150Y631093D01*
X67129Y631076D01*
X67106Y631063D01*
X66853Y630848D01*
X66506Y630501D01*
X64556Y629693D01*
X62444Y629693D01*
X60494Y630501D01*
X59001Y631994D01*
X58193Y633944D01*
X58193Y636056D01*
X58684Y637241D01*
X58686Y637245D01*
X58688Y637249D01*
X58743Y637436D01*
X58801Y637626D01*
X58801Y637631D01*
X58802Y637635D01*
X58820Y637833D01*
X58839Y638027D01*
X58838Y638031D01*
X58839Y638036D01*
X58817Y638238D01*
X58797Y638428D01*
X58796Y638432D01*
X58795Y638436D01*
X58734Y638629D01*
X58677Y638812D01*
X58675Y638816D01*
X58674Y638820D01*
X58577Y638995D01*
X58484Y639165D01*
X58481Y639169D01*
X58479Y639172D01*
X58352Y639322D01*
X58225Y639473D01*
X58221Y639476D01*
X58219Y639479D01*
X58063Y639602D01*
X57910Y639724D01*
X57906Y639726D01*
X57903Y639729D01*
X57726Y639819D01*
X57552Y639908D01*
X57548Y639909D01*
X57544Y639911D01*
X57351Y639965D01*
X57165Y640018D01*
X57160Y640018D01*
X57156Y640019D01*
X56954Y640034D01*
X56763Y640049D01*
X56759Y640048D01*
X56754Y640049D01*
X56553Y640023D01*
X56363Y640000D01*
X56359Y639999D01*
X56355Y639998D01*
X56167Y639935D01*
X55981Y639874D01*
X55977Y639872D01*
X55973Y639870D01*
X55803Y639772D01*
X55632Y639674D01*
X55628Y639671D01*
X55624Y639669D01*
X55371Y639454D01*
X36918Y621001D01*
X36901Y620980D01*
X36880Y620963D01*
X36773Y620825D01*
X36663Y620689D01*
X36650Y620666D01*
X36634Y620645D01*
X36556Y620488D01*
X36474Y620334D01*
X36466Y620308D01*
X36454Y620284D01*
X36409Y620115D01*
X36359Y619948D01*
X36357Y619921D01*
X36350Y619895D01*
X36323Y619565D01*
X36323Y364685D01*
X36325Y364659D01*
X36323Y364632D01*
X36345Y364458D01*
X36363Y364285D01*
X36370Y364259D01*
X36374Y364233D01*
X36429Y364067D01*
X36481Y363900D01*
X36494Y363876D01*
X36502Y363851D01*
X36589Y363699D01*
X36673Y363546D01*
X36690Y363525D01*
X36703Y363502D01*
X36918Y363249D01*
X64799Y335368D01*
X64820Y335351D01*
X64837Y335330D01*
X64975Y335223D01*
X65111Y335113D01*
X65134Y335100D01*
X65155Y335084D01*
X65312Y335006D01*
X65466Y334924D01*
X65492Y334916D01*
X65516Y334904D01*
X65685Y334859D01*
X65852Y334809D01*
X65879Y334807D01*
X65905Y334800D01*
X66235Y334773D01*
X98368Y334773D01*
X98399Y334776D01*
X98431Y334774D01*
X98600Y334796D01*
X98769Y334813D01*
X98799Y334822D01*
X98830Y334826D01*
X99146Y334927D01*
X100544Y335507D01*
X102656Y335507D01*
X104054Y334927D01*
X104084Y334918D01*
X104112Y334904D01*
X104277Y334860D01*
X104440Y334811D01*
X104471Y334808D01*
X104501Y334800D01*
X104832Y334773D01*
X112632Y334773D01*
X112658Y334775D01*
X112685Y334773D01*
X112859Y334795D01*
X113032Y334813D01*
X113058Y334820D01*
X113084Y334824D01*
X113250Y334880D01*
X113417Y334931D01*
X113441Y334944D01*
X113466Y334952D01*
X113617Y335039D01*
X113771Y335123D01*
X113792Y335140D01*
X113815Y335153D01*
X114068Y335368D01*
X115791Y337091D01*
X118779Y338329D01*
X135221Y338329D01*
X138209Y337091D01*
X140495Y334805D01*
X141733Y331817D01*
X141733Y328583D01*
X140495Y325595D01*
X138209Y323309D01*
X135221Y322071D01*
X118779Y322071D01*
G37*
%LPD*%
G36*
X58361Y10173D02*
X58361Y10173D01*
X58487Y10176D01*
X58561Y10193D01*
X58636Y10201D01*
X58757Y10238D01*
X58880Y10266D01*
X58949Y10297D01*
X59021Y10319D01*
X59132Y10379D01*
X59247Y10431D01*
X59309Y10475D01*
X59375Y10511D01*
X59472Y10591D01*
X59575Y10665D01*
X59626Y10720D01*
X59684Y10768D01*
X59763Y10867D01*
X59850Y10959D01*
X59889Y11023D01*
X59937Y11082D01*
X59995Y11194D01*
X60061Y11302D01*
X60087Y11373D01*
X60122Y11439D01*
X60157Y11561D01*
X60201Y11679D01*
X60213Y11754D01*
X60234Y11826D01*
X60244Y11952D01*
X60263Y12077D01*
X60260Y12152D01*
X60266Y12228D01*
X60252Y12353D01*
X60246Y12479D01*
X60228Y12553D01*
X60219Y12627D01*
X60180Y12747D01*
X60150Y12870D01*
X60118Y12938D01*
X60095Y13010D01*
X60033Y13120D01*
X59979Y13235D01*
X59934Y13295D01*
X59897Y13361D01*
X59814Y13456D01*
X59739Y13558D01*
X59683Y13608D01*
X59634Y13665D01*
X59534Y13743D01*
X59440Y13828D01*
X59365Y13874D01*
X59315Y13912D01*
X59250Y13945D01*
X59158Y14002D01*
X57844Y14671D01*
X56470Y15669D01*
X55269Y16870D01*
X54271Y18244D01*
X53500Y19758D01*
X53047Y21151D01*
X62782Y21151D01*
X62800Y21152D01*
X62817Y21151D01*
X63000Y21172D01*
X63182Y21191D01*
X63199Y21196D01*
X63217Y21198D01*
X63392Y21255D01*
X63492Y21286D01*
X63499Y21282D01*
X63677Y21234D01*
X63852Y21184D01*
X63870Y21182D01*
X63887Y21178D01*
X64218Y21151D01*
X73953Y21151D01*
X73500Y19758D01*
X72729Y18244D01*
X71731Y16870D01*
X70530Y15669D01*
X69156Y14671D01*
X67842Y14002D01*
X67736Y13934D01*
X67625Y13873D01*
X67567Y13825D01*
X67504Y13784D01*
X67413Y13697D01*
X67316Y13616D01*
X67269Y13557D01*
X67214Y13504D01*
X67143Y13400D01*
X67063Y13302D01*
X67029Y13235D01*
X66986Y13173D01*
X66936Y13057D01*
X66878Y12945D01*
X66857Y12872D01*
X66827Y12803D01*
X66801Y12679D01*
X66767Y12558D01*
X66760Y12482D01*
X66745Y12409D01*
X66744Y12282D01*
X66734Y12156D01*
X66742Y12081D01*
X66742Y12006D01*
X66766Y11882D01*
X66781Y11757D01*
X66804Y11685D01*
X66818Y11611D01*
X66866Y11494D01*
X66905Y11374D01*
X66942Y11308D01*
X66971Y11238D01*
X67041Y11133D01*
X67103Y11023D01*
X67153Y10966D01*
X67194Y10903D01*
X67284Y10814D01*
X67366Y10718D01*
X67426Y10672D01*
X67479Y10619D01*
X67585Y10549D01*
X67685Y10472D01*
X67752Y10438D01*
X67815Y10396D01*
X67932Y10349D01*
X68045Y10292D01*
X68118Y10273D01*
X68188Y10244D01*
X68312Y10221D01*
X68434Y10188D01*
X68521Y10181D01*
X68583Y10169D01*
X68657Y10170D01*
X68765Y10161D01*
X158896Y10161D01*
X158914Y10163D01*
X158932Y10161D01*
X159114Y10182D01*
X159297Y10201D01*
X159314Y10206D01*
X159331Y10208D01*
X159506Y10265D01*
X159682Y10319D01*
X159697Y10327D01*
X159714Y10333D01*
X159874Y10423D01*
X160036Y10511D01*
X160049Y10522D01*
X160065Y10531D01*
X160204Y10651D01*
X160345Y10768D01*
X160356Y10782D01*
X160370Y10794D01*
X160482Y10939D01*
X160597Y11082D01*
X160605Y11098D01*
X160616Y11112D01*
X160698Y11277D01*
X160783Y11439D01*
X160788Y11456D01*
X160796Y11472D01*
X160843Y11651D01*
X160894Y11826D01*
X160896Y11844D01*
X160900Y11861D01*
X160927Y12192D01*
X160927Y16151D01*
X171132Y16151D01*
X171150Y16152D01*
X171167Y16151D01*
X171350Y16172D01*
X171532Y16191D01*
X171549Y16196D01*
X171567Y16198D01*
X171742Y16255D01*
X171842Y16286D01*
X171849Y16282D01*
X172027Y16234D01*
X172202Y16184D01*
X172220Y16182D01*
X172237Y16178D01*
X172568Y16151D01*
X182773Y16151D01*
X182773Y12192D01*
X182775Y12174D01*
X182773Y12156D01*
X182794Y11974D01*
X182813Y11791D01*
X182818Y11774D01*
X182820Y11757D01*
X182877Y11582D01*
X182931Y11406D01*
X182939Y11391D01*
X182945Y11374D01*
X183035Y11214D01*
X183123Y11052D01*
X183134Y11039D01*
X183143Y11023D01*
X183263Y10884D01*
X183380Y10743D01*
X183394Y10732D01*
X183406Y10718D01*
X183551Y10606D01*
X183694Y10491D01*
X183710Y10483D01*
X183724Y10472D01*
X183889Y10390D01*
X184051Y10305D01*
X184068Y10300D01*
X184084Y10292D01*
X184263Y10245D01*
X184438Y10194D01*
X184456Y10192D01*
X184473Y10188D01*
X184804Y10161D01*
X186675Y10161D01*
X186684Y10162D01*
X186693Y10161D01*
X186885Y10182D01*
X187076Y10201D01*
X187084Y10203D01*
X187093Y10204D01*
X187276Y10262D01*
X187461Y10319D01*
X187469Y10323D01*
X187477Y10326D01*
X187645Y10419D01*
X187815Y10511D01*
X187822Y10516D01*
X187829Y10521D01*
X187977Y10646D01*
X188124Y10768D01*
X188130Y10775D01*
X188136Y10781D01*
X188256Y10933D01*
X188376Y11082D01*
X188380Y11090D01*
X188386Y11097D01*
X188473Y11269D01*
X188562Y11439D01*
X188564Y11448D01*
X188568Y11456D01*
X188620Y11642D01*
X188673Y11826D01*
X188674Y11835D01*
X188676Y11844D01*
X188690Y12036D01*
X188706Y12228D01*
X188705Y12236D01*
X188706Y12245D01*
X188681Y12438D01*
X188659Y12627D01*
X188656Y12636D01*
X188655Y12645D01*
X188594Y12828D01*
X188534Y13010D01*
X188530Y13018D01*
X188527Y13026D01*
X188432Y13192D01*
X188336Y13361D01*
X188331Y13368D01*
X188326Y13375D01*
X188112Y13628D01*
X186943Y14797D01*
X186943Y23003D01*
X192747Y28807D01*
X200953Y28807D01*
X206757Y23003D01*
X206757Y14797D01*
X205588Y13628D01*
X205583Y13621D01*
X205576Y13616D01*
X205456Y13466D01*
X205333Y13317D01*
X205329Y13309D01*
X205324Y13302D01*
X205235Y13132D01*
X205145Y12961D01*
X205142Y12952D01*
X205138Y12945D01*
X205085Y12760D01*
X205030Y12575D01*
X205029Y12566D01*
X205027Y12558D01*
X205011Y12367D01*
X204994Y12174D01*
X204995Y12165D01*
X204994Y12156D01*
X205016Y11967D01*
X205037Y11774D01*
X205040Y11765D01*
X205041Y11757D01*
X205100Y11575D01*
X205159Y11390D01*
X205163Y11382D01*
X205166Y11374D01*
X205260Y11207D01*
X205353Y11038D01*
X205359Y11031D01*
X205364Y11023D01*
X205489Y10878D01*
X205614Y10731D01*
X205621Y10725D01*
X205627Y10718D01*
X205777Y10602D01*
X205930Y10481D01*
X205938Y10477D01*
X205945Y10472D01*
X206116Y10386D01*
X206289Y10299D01*
X206297Y10296D01*
X206305Y10292D01*
X206491Y10242D01*
X206677Y10191D01*
X206685Y10190D01*
X206694Y10188D01*
X207025Y10161D01*
X211675Y10161D01*
X211684Y10162D01*
X211693Y10161D01*
X211885Y10182D01*
X212076Y10201D01*
X212084Y10203D01*
X212093Y10204D01*
X212276Y10262D01*
X212461Y10319D01*
X212469Y10323D01*
X212477Y10326D01*
X212645Y10419D01*
X212815Y10511D01*
X212822Y10516D01*
X212829Y10521D01*
X212977Y10646D01*
X213124Y10768D01*
X213130Y10775D01*
X213136Y10781D01*
X213256Y10933D01*
X213376Y11082D01*
X213380Y11090D01*
X213386Y11097D01*
X213473Y11269D01*
X213562Y11439D01*
X213564Y11448D01*
X213568Y11456D01*
X213620Y11642D01*
X213673Y11826D01*
X213674Y11835D01*
X213676Y11844D01*
X213690Y12036D01*
X213706Y12228D01*
X213705Y12236D01*
X213706Y12245D01*
X213681Y12438D01*
X213659Y12627D01*
X213656Y12636D01*
X213655Y12645D01*
X213594Y12828D01*
X213534Y13010D01*
X213530Y13018D01*
X213527Y13026D01*
X213432Y13192D01*
X213336Y13361D01*
X213331Y13368D01*
X213326Y13375D01*
X213112Y13628D01*
X211943Y14797D01*
X211943Y23003D01*
X217747Y28807D01*
X225953Y28807D01*
X231757Y23003D01*
X231757Y14797D01*
X230588Y13628D01*
X230583Y13621D01*
X230576Y13616D01*
X230456Y13466D01*
X230333Y13317D01*
X230329Y13309D01*
X230324Y13302D01*
X230235Y13132D01*
X230145Y12961D01*
X230142Y12952D01*
X230138Y12945D01*
X230085Y12760D01*
X230030Y12575D01*
X230029Y12566D01*
X230027Y12558D01*
X230011Y12367D01*
X229994Y12174D01*
X229995Y12165D01*
X229994Y12156D01*
X230016Y11967D01*
X230037Y11774D01*
X230040Y11765D01*
X230041Y11757D01*
X230100Y11575D01*
X230159Y11390D01*
X230163Y11382D01*
X230166Y11374D01*
X230260Y11207D01*
X230353Y11038D01*
X230359Y11031D01*
X230364Y11023D01*
X230489Y10878D01*
X230614Y10731D01*
X230621Y10725D01*
X230627Y10718D01*
X230777Y10602D01*
X230930Y10481D01*
X230938Y10477D01*
X230945Y10472D01*
X231116Y10386D01*
X231289Y10299D01*
X231297Y10296D01*
X231305Y10292D01*
X231491Y10242D01*
X231677Y10191D01*
X231685Y10190D01*
X231694Y10188D01*
X232025Y10161D01*
X355746Y10161D01*
X355764Y10163D01*
X355782Y10161D01*
X355964Y10182D01*
X356147Y10201D01*
X356164Y10206D01*
X356181Y10208D01*
X356356Y10265D01*
X356532Y10319D01*
X356547Y10327D01*
X356564Y10333D01*
X356724Y10423D01*
X356886Y10511D01*
X356899Y10522D01*
X356915Y10531D01*
X357054Y10651D01*
X357195Y10768D01*
X357206Y10782D01*
X357220Y10794D01*
X357332Y10939D01*
X357447Y11082D01*
X357455Y11098D01*
X357466Y11112D01*
X357548Y11277D01*
X357633Y11439D01*
X357638Y11456D01*
X357646Y11472D01*
X357693Y11651D01*
X357744Y11826D01*
X357746Y11844D01*
X357750Y11861D01*
X357777Y12192D01*
X357777Y16151D01*
X367982Y16151D01*
X368000Y16152D01*
X368017Y16151D01*
X368200Y16172D01*
X368382Y16191D01*
X368399Y16196D01*
X368417Y16198D01*
X368592Y16255D01*
X368692Y16286D01*
X368699Y16282D01*
X368877Y16234D01*
X369052Y16184D01*
X369070Y16182D01*
X369087Y16178D01*
X369418Y16151D01*
X379623Y16151D01*
X379623Y12192D01*
X379625Y12174D01*
X379623Y12156D01*
X379644Y11974D01*
X379663Y11791D01*
X379668Y11774D01*
X379670Y11757D01*
X379727Y11582D01*
X379781Y11406D01*
X379789Y11391D01*
X379795Y11374D01*
X379885Y11214D01*
X379973Y11052D01*
X379984Y11039D01*
X379993Y11023D01*
X380113Y10884D01*
X380230Y10743D01*
X380244Y10732D01*
X380256Y10718D01*
X380401Y10606D01*
X380544Y10491D01*
X380560Y10483D01*
X380574Y10472D01*
X380739Y10390D01*
X380901Y10305D01*
X380918Y10300D01*
X380934Y10292D01*
X381113Y10245D01*
X381288Y10194D01*
X381306Y10192D01*
X381323Y10188D01*
X381654Y10161D01*
X383525Y10161D01*
X383534Y10162D01*
X383543Y10161D01*
X383735Y10182D01*
X383926Y10201D01*
X383934Y10203D01*
X383943Y10204D01*
X384126Y10262D01*
X384311Y10319D01*
X384319Y10323D01*
X384327Y10326D01*
X384495Y10419D01*
X384665Y10511D01*
X384672Y10516D01*
X384679Y10521D01*
X384827Y10646D01*
X384974Y10768D01*
X384980Y10775D01*
X384986Y10781D01*
X385106Y10933D01*
X385226Y11082D01*
X385230Y11090D01*
X385236Y11097D01*
X385323Y11269D01*
X385412Y11439D01*
X385414Y11448D01*
X385418Y11456D01*
X385470Y11642D01*
X385523Y11826D01*
X385524Y11835D01*
X385526Y11844D01*
X385540Y12036D01*
X385556Y12228D01*
X385555Y12236D01*
X385556Y12245D01*
X385531Y12438D01*
X385509Y12627D01*
X385506Y12636D01*
X385505Y12645D01*
X385444Y12828D01*
X385384Y13010D01*
X385380Y13018D01*
X385377Y13026D01*
X385282Y13192D01*
X385186Y13361D01*
X385181Y13368D01*
X385176Y13375D01*
X384962Y13628D01*
X383793Y14797D01*
X383793Y23003D01*
X389597Y28807D01*
X397803Y28807D01*
X403607Y23003D01*
X403607Y14797D01*
X402438Y13628D01*
X402433Y13621D01*
X402426Y13616D01*
X402306Y13466D01*
X402183Y13317D01*
X402179Y13309D01*
X402174Y13302D01*
X402085Y13132D01*
X401995Y12961D01*
X401992Y12952D01*
X401988Y12945D01*
X401935Y12760D01*
X401880Y12575D01*
X401879Y12566D01*
X401877Y12558D01*
X401861Y12367D01*
X401844Y12174D01*
X401845Y12165D01*
X401844Y12156D01*
X401866Y11967D01*
X401887Y11774D01*
X401890Y11765D01*
X401891Y11757D01*
X401950Y11575D01*
X402009Y11390D01*
X402013Y11382D01*
X402016Y11374D01*
X402110Y11207D01*
X402203Y11038D01*
X402209Y11031D01*
X402214Y11023D01*
X402339Y10878D01*
X402464Y10731D01*
X402471Y10725D01*
X402477Y10718D01*
X402627Y10602D01*
X402780Y10481D01*
X402788Y10477D01*
X402795Y10472D01*
X402966Y10386D01*
X403139Y10299D01*
X403147Y10296D01*
X403155Y10292D01*
X403341Y10242D01*
X403527Y10191D01*
X403535Y10190D01*
X403544Y10188D01*
X403875Y10161D01*
X408525Y10161D01*
X408534Y10162D01*
X408543Y10161D01*
X408735Y10182D01*
X408926Y10201D01*
X408934Y10203D01*
X408943Y10204D01*
X409126Y10262D01*
X409311Y10319D01*
X409319Y10323D01*
X409327Y10326D01*
X409495Y10419D01*
X409665Y10511D01*
X409672Y10516D01*
X409679Y10521D01*
X409827Y10646D01*
X409974Y10768D01*
X409980Y10775D01*
X409986Y10781D01*
X410106Y10933D01*
X410226Y11082D01*
X410230Y11090D01*
X410236Y11097D01*
X410323Y11269D01*
X410412Y11439D01*
X410414Y11448D01*
X410418Y11456D01*
X410470Y11642D01*
X410523Y11826D01*
X410524Y11835D01*
X410526Y11844D01*
X410540Y12036D01*
X410556Y12228D01*
X410555Y12236D01*
X410556Y12245D01*
X410531Y12438D01*
X410509Y12627D01*
X410506Y12636D01*
X410505Y12645D01*
X410444Y12828D01*
X410384Y13010D01*
X410380Y13018D01*
X410377Y13026D01*
X410282Y13192D01*
X410186Y13361D01*
X410181Y13368D01*
X410176Y13375D01*
X409962Y13628D01*
X408793Y14797D01*
X408793Y23401D01*
X408791Y23424D01*
X408793Y23447D01*
X408771Y23624D01*
X408753Y23802D01*
X408747Y23824D01*
X408744Y23846D01*
X408688Y24016D01*
X408635Y24187D01*
X408624Y24207D01*
X408617Y24229D01*
X408528Y24384D01*
X408443Y24541D01*
X408429Y24558D01*
X408418Y24578D01*
X408204Y24832D01*
X399164Y33943D01*
X399144Y33959D01*
X399128Y33978D01*
X399125Y33980D01*
X399121Y33986D01*
X398986Y34090D01*
X398854Y34199D01*
X398827Y34214D01*
X398803Y34232D01*
X398650Y34308D01*
X398499Y34389D01*
X398470Y34398D01*
X398442Y34412D01*
X398276Y34456D01*
X398114Y34505D01*
X398083Y34508D01*
X398053Y34516D01*
X397723Y34543D01*
X73021Y34543D01*
X73012Y34542D01*
X73003Y34543D01*
X72812Y34522D01*
X72620Y34503D01*
X72612Y34501D01*
X72603Y34500D01*
X72419Y34442D01*
X72235Y34385D01*
X72228Y34381D01*
X72219Y34378D01*
X72050Y34285D01*
X71881Y34193D01*
X71875Y34188D01*
X71867Y34183D01*
X71719Y34058D01*
X71572Y33936D01*
X71567Y33929D01*
X71560Y33923D01*
X71440Y33771D01*
X71320Y33622D01*
X71316Y33614D01*
X71310Y33607D01*
X71223Y33435D01*
X71134Y33265D01*
X71132Y33256D01*
X71128Y33248D01*
X71076Y33062D01*
X71023Y32878D01*
X71022Y32869D01*
X71020Y32860D01*
X71006Y32669D01*
X70990Y32476D01*
X70991Y32468D01*
X70990Y32459D01*
X71015Y32266D01*
X71037Y32077D01*
X71040Y32068D01*
X71041Y32059D01*
X71102Y31876D01*
X71162Y31694D01*
X71166Y31686D01*
X71169Y31677D01*
X71265Y31511D01*
X71360Y31343D01*
X71366Y31336D01*
X71370Y31329D01*
X71585Y31076D01*
X71731Y30930D01*
X72729Y29556D01*
X73500Y28042D01*
X73953Y26649D01*
X64218Y26649D01*
X64200Y26647D01*
X64183Y26649D01*
X64000Y26628D01*
X63818Y26609D01*
X63801Y26604D01*
X63783Y26602D01*
X63608Y26545D01*
X63508Y26514D01*
X63501Y26518D01*
X63323Y26565D01*
X63148Y26616D01*
X63130Y26618D01*
X63113Y26622D01*
X62782Y26649D01*
X53047Y26649D01*
X53500Y28042D01*
X54271Y29556D01*
X55269Y30930D01*
X55415Y31076D01*
X55418Y31079D01*
X55420Y31081D01*
X55423Y31085D01*
X55428Y31088D01*
X55548Y31238D01*
X55670Y31387D01*
X55675Y31395D01*
X55680Y31402D01*
X55768Y31572D01*
X55859Y31743D01*
X55862Y31751D01*
X55866Y31759D01*
X55919Y31944D01*
X55974Y32129D01*
X55975Y32138D01*
X55977Y32146D01*
X55993Y32338D01*
X56010Y32530D01*
X56009Y32539D01*
X56010Y32548D01*
X55988Y32738D01*
X55967Y32930D01*
X55964Y32938D01*
X55963Y32947D01*
X55903Y33131D01*
X55845Y33314D01*
X55841Y33322D01*
X55838Y33330D01*
X55743Y33499D01*
X55651Y33666D01*
X55645Y33673D01*
X55640Y33681D01*
X55513Y33828D01*
X55390Y33973D01*
X55383Y33979D01*
X55377Y33986D01*
X55225Y34104D01*
X55074Y34223D01*
X55066Y34227D01*
X55059Y34232D01*
X54886Y34318D01*
X54715Y34405D01*
X54707Y34408D01*
X54699Y34412D01*
X54511Y34462D01*
X54327Y34513D01*
X54318Y34514D01*
X54310Y34516D01*
X53979Y34543D01*
X23840Y34543D01*
X23813Y34541D01*
X23786Y34543D01*
X23612Y34521D01*
X23439Y34503D01*
X23413Y34496D01*
X23387Y34492D01*
X23221Y34437D01*
X23054Y34385D01*
X23030Y34372D01*
X23005Y34364D01*
X22853Y34277D01*
X22700Y34193D01*
X22679Y34176D01*
X22656Y34163D01*
X22403Y33948D01*
X22056Y33601D01*
X20106Y32793D01*
X17994Y32793D01*
X16044Y33601D01*
X14551Y35094D01*
X14069Y36259D01*
X14067Y36263D01*
X14065Y36267D01*
X13972Y36440D01*
X13878Y36614D01*
X13876Y36617D01*
X13873Y36621D01*
X13748Y36772D01*
X13622Y36924D01*
X13619Y36927D01*
X13616Y36930D01*
X13465Y37052D01*
X13309Y37178D01*
X13305Y37180D01*
X13302Y37183D01*
X13130Y37272D01*
X12953Y37365D01*
X12949Y37366D01*
X12945Y37368D01*
X12757Y37422D01*
X12566Y37478D01*
X12562Y37478D01*
X12558Y37480D01*
X12360Y37496D01*
X12165Y37513D01*
X12161Y37512D01*
X12156Y37513D01*
X11961Y37490D01*
X11765Y37468D01*
X11761Y37466D01*
X11757Y37466D01*
X11569Y37404D01*
X11382Y37344D01*
X11378Y37342D01*
X11374Y37341D01*
X11201Y37243D01*
X11030Y37148D01*
X11027Y37145D01*
X11023Y37143D01*
X10873Y37013D01*
X10725Y36886D01*
X10722Y36883D01*
X10718Y36880D01*
X10597Y36723D01*
X10476Y36569D01*
X10474Y36565D01*
X10472Y36562D01*
X10384Y36385D01*
X10296Y36210D01*
X10294Y36205D01*
X10292Y36201D01*
X10241Y36010D01*
X10189Y35821D01*
X10189Y35817D01*
X10188Y35812D01*
X10161Y35482D01*
X10161Y12192D01*
X10163Y12174D01*
X10161Y12156D01*
X10182Y11974D01*
X10201Y11791D01*
X10206Y11774D01*
X10208Y11757D01*
X10265Y11582D01*
X10319Y11406D01*
X10327Y11391D01*
X10333Y11374D01*
X10423Y11214D01*
X10511Y11052D01*
X10522Y11039D01*
X10531Y11023D01*
X10651Y10884D01*
X10768Y10743D01*
X10782Y10732D01*
X10794Y10718D01*
X10939Y10606D01*
X11082Y10491D01*
X11098Y10483D01*
X11112Y10472D01*
X11277Y10390D01*
X11439Y10305D01*
X11456Y10300D01*
X11472Y10292D01*
X11651Y10245D01*
X11826Y10194D01*
X11844Y10192D01*
X11861Y10188D01*
X12192Y10161D01*
X58235Y10161D01*
X58361Y10173D01*
G37*
%LPC*%
G36*
X333183Y176021D02*
X333183Y176021D01*
X328421Y180783D01*
X328421Y187517D01*
X331382Y190478D01*
X331399Y190499D01*
X331420Y190516D01*
X331527Y190654D01*
X331637Y190790D01*
X331650Y190813D01*
X331666Y190834D01*
X331744Y190991D01*
X331826Y191145D01*
X331834Y191171D01*
X331846Y191195D01*
X331891Y191364D01*
X331941Y191531D01*
X331943Y191558D01*
X331950Y191584D01*
X331977Y191914D01*
X331977Y202893D01*
X331975Y202920D01*
X331977Y202947D01*
X331955Y203121D01*
X331937Y203294D01*
X331930Y203319D01*
X331926Y203346D01*
X331870Y203512D01*
X331819Y203679D01*
X331806Y203702D01*
X331798Y203728D01*
X331711Y203879D01*
X331627Y204033D01*
X331610Y204053D01*
X331597Y204077D01*
X331382Y204330D01*
X330137Y205575D01*
X328985Y208355D01*
X328985Y223445D01*
X330137Y226225D01*
X331382Y227470D01*
X331399Y227491D01*
X331420Y227509D01*
X331527Y227647D01*
X331637Y227782D01*
X331650Y227806D01*
X331666Y227827D01*
X331744Y227983D01*
X331826Y228138D01*
X331834Y228163D01*
X331846Y228187D01*
X331891Y228356D01*
X331941Y228524D01*
X331943Y228550D01*
X331950Y228576D01*
X331977Y228907D01*
X331977Y235860D01*
X332673Y237540D01*
X353010Y257877D01*
X354690Y258573D01*
X390965Y258573D01*
X390991Y258575D01*
X391018Y258573D01*
X391192Y258595D01*
X391365Y258613D01*
X391391Y258620D01*
X391417Y258624D01*
X391583Y258679D01*
X391750Y258731D01*
X391774Y258744D01*
X391799Y258752D01*
X391951Y258839D01*
X392104Y258923D01*
X392125Y258940D01*
X392148Y258953D01*
X392401Y259168D01*
X407582Y274349D01*
X407599Y274370D01*
X407620Y274387D01*
X407727Y274525D01*
X407837Y274661D01*
X407850Y274684D01*
X407866Y274705D01*
X407944Y274862D01*
X408026Y275016D01*
X408034Y275042D01*
X408046Y275066D01*
X408091Y275235D01*
X408141Y275402D01*
X408143Y275429D01*
X408150Y275455D01*
X408177Y275785D01*
X408177Y314268D01*
X408174Y314299D01*
X408176Y314331D01*
X408154Y314500D01*
X408137Y314669D01*
X408128Y314699D01*
X408124Y314730D01*
X408023Y315046D01*
X407443Y316444D01*
X407443Y318556D01*
X408251Y320506D01*
X409744Y321999D01*
X411694Y322807D01*
X413806Y322807D01*
X415756Y321999D01*
X417249Y320506D01*
X417985Y318728D01*
X417987Y318724D01*
X417989Y318720D01*
X418083Y318545D01*
X418176Y318373D01*
X418178Y318369D01*
X418181Y318366D01*
X418305Y318217D01*
X418432Y318063D01*
X418435Y318060D01*
X418438Y318056D01*
X418591Y317933D01*
X418745Y317809D01*
X418749Y317807D01*
X418752Y317804D01*
X418925Y317714D01*
X419101Y317622D01*
X419105Y317621D01*
X419109Y317618D01*
X419298Y317564D01*
X419488Y317509D01*
X419492Y317508D01*
X419496Y317507D01*
X419694Y317491D01*
X419889Y317474D01*
X419893Y317475D01*
X419898Y317474D01*
X420092Y317497D01*
X420289Y317519D01*
X420293Y317521D01*
X420297Y317521D01*
X420483Y317582D01*
X420672Y317642D01*
X420676Y317645D01*
X420680Y317646D01*
X420853Y317743D01*
X421024Y317839D01*
X421027Y317842D01*
X421031Y317844D01*
X421180Y317972D01*
X421329Y318101D01*
X421332Y318104D01*
X421336Y318107D01*
X421456Y318262D01*
X421578Y318418D01*
X421580Y318422D01*
X421582Y318425D01*
X421669Y318600D01*
X421758Y318777D01*
X421760Y318782D01*
X421762Y318786D01*
X421813Y318978D01*
X421865Y319166D01*
X421865Y319170D01*
X421866Y319174D01*
X421893Y319505D01*
X421893Y382473D01*
X453048Y413628D01*
X453065Y413649D01*
X453086Y413667D01*
X453193Y413804D01*
X453303Y413940D01*
X453316Y413963D01*
X453332Y413985D01*
X453410Y414142D01*
X453492Y414296D01*
X453500Y414321D01*
X453512Y414345D01*
X453557Y414515D01*
X453607Y414681D01*
X453609Y414708D01*
X453616Y414734D01*
X453643Y415065D01*
X453643Y500744D01*
X453642Y500752D01*
X453643Y500761D01*
X453622Y500953D01*
X453603Y501144D01*
X453601Y501153D01*
X453600Y501162D01*
X453542Y501344D01*
X453485Y501529D01*
X453481Y501537D01*
X453478Y501546D01*
X453385Y501714D01*
X453293Y501883D01*
X453288Y501890D01*
X453283Y501898D01*
X453159Y502045D01*
X453036Y502192D01*
X453029Y502198D01*
X453023Y502205D01*
X452872Y502324D01*
X452722Y502445D01*
X452714Y502449D01*
X452707Y502454D01*
X452534Y502542D01*
X452365Y502630D01*
X452356Y502633D01*
X452348Y502637D01*
X452162Y502689D01*
X451978Y502742D01*
X451969Y502742D01*
X451960Y502745D01*
X451767Y502759D01*
X451576Y502775D01*
X451568Y502774D01*
X451559Y502774D01*
X451366Y502750D01*
X451177Y502728D01*
X451168Y502725D01*
X451159Y502724D01*
X450976Y502662D01*
X450794Y502603D01*
X450786Y502598D01*
X450778Y502596D01*
X450612Y502500D01*
X450443Y502405D01*
X450436Y502399D01*
X450429Y502395D01*
X450176Y502180D01*
X447867Y499871D01*
X441133Y499871D01*
X436371Y504633D01*
X436371Y511367D01*
X441133Y516129D01*
X447867Y516129D01*
X450176Y513820D01*
X450183Y513814D01*
X450188Y513808D01*
X450338Y513687D01*
X450487Y513565D01*
X450495Y513561D01*
X450502Y513555D01*
X450672Y513467D01*
X450843Y513376D01*
X450852Y513374D01*
X450859Y513370D01*
X451044Y513317D01*
X451229Y513262D01*
X451238Y513261D01*
X451246Y513258D01*
X451437Y513243D01*
X451630Y513225D01*
X451639Y513226D01*
X451648Y513225D01*
X451837Y513248D01*
X452030Y513269D01*
X452039Y513271D01*
X452047Y513272D01*
X452229Y513332D01*
X452414Y513390D01*
X452422Y513394D01*
X452430Y513397D01*
X452599Y513492D01*
X452766Y513585D01*
X452773Y513591D01*
X452781Y513595D01*
X452927Y513721D01*
X453073Y513845D01*
X453079Y513852D01*
X453086Y513858D01*
X453203Y514010D01*
X453323Y514161D01*
X453327Y514169D01*
X453332Y514176D01*
X453418Y514348D01*
X453505Y514520D01*
X453508Y514529D01*
X453512Y514537D01*
X453562Y514723D01*
X453613Y514908D01*
X453614Y514917D01*
X453616Y514926D01*
X453643Y515256D01*
X453643Y518385D01*
X453641Y518412D01*
X453643Y518439D01*
X453621Y518613D01*
X453603Y518786D01*
X453596Y518811D01*
X453592Y518838D01*
X453537Y519004D01*
X453485Y519171D01*
X453472Y519194D01*
X453464Y519220D01*
X453377Y519371D01*
X453293Y519525D01*
X453276Y519545D01*
X453263Y519569D01*
X453048Y519822D01*
X419972Y552898D01*
X419951Y552915D01*
X419933Y552936D01*
X419796Y553043D01*
X419660Y553153D01*
X419637Y553166D01*
X419615Y553182D01*
X419458Y553260D01*
X419304Y553342D01*
X419279Y553350D01*
X419255Y553362D01*
X419085Y553407D01*
X418919Y553457D01*
X418892Y553459D01*
X418866Y553466D01*
X418535Y553493D01*
X418044Y553493D01*
X416094Y554301D01*
X414601Y555794D01*
X413793Y557744D01*
X413793Y559856D01*
X414601Y561806D01*
X416094Y563299D01*
X417872Y564035D01*
X417876Y564037D01*
X417880Y564039D01*
X418053Y564132D01*
X418227Y564226D01*
X418231Y564228D01*
X418234Y564231D01*
X418383Y564355D01*
X418537Y564482D01*
X418540Y564485D01*
X418544Y564488D01*
X418667Y564641D01*
X418791Y564795D01*
X418793Y564799D01*
X418796Y564802D01*
X418886Y564975D01*
X418978Y565151D01*
X418979Y565155D01*
X418982Y565159D01*
X419036Y565348D01*
X419091Y565538D01*
X419092Y565542D01*
X419093Y565546D01*
X419101Y565647D01*
X419121Y565477D01*
X419123Y565472D01*
X419123Y565468D01*
X419184Y565283D01*
X419246Y565094D01*
X419248Y565090D01*
X419250Y565086D01*
X419346Y564917D01*
X419444Y564743D01*
X419447Y564740D01*
X419449Y564736D01*
X419579Y564587D01*
X419707Y564439D01*
X419711Y564436D01*
X419713Y564432D01*
X419870Y564312D01*
X420025Y564192D01*
X420029Y564190D01*
X420033Y564187D01*
X420328Y564035D01*
X422106Y563299D01*
X423599Y561806D01*
X424407Y559856D01*
X424407Y559365D01*
X424409Y559338D01*
X424407Y559311D01*
X424429Y559137D01*
X424447Y558964D01*
X424454Y558939D01*
X424458Y558912D01*
X424513Y558746D01*
X424565Y558579D01*
X424578Y558556D01*
X424586Y558530D01*
X424673Y558379D01*
X424757Y558225D01*
X424774Y558205D01*
X424787Y558181D01*
X425002Y557928D01*
X460757Y522173D01*
X460757Y411277D01*
X429602Y380122D01*
X429585Y380101D01*
X429564Y380083D01*
X429457Y379946D01*
X429347Y379810D01*
X429334Y379787D01*
X429318Y379765D01*
X429240Y379608D01*
X429158Y379454D01*
X429150Y379429D01*
X429138Y379405D01*
X429093Y379235D01*
X429043Y379069D01*
X429041Y379042D01*
X429034Y379016D01*
X429007Y378685D01*
X429007Y351255D01*
X429007Y351251D01*
X429007Y351246D01*
X429027Y351052D01*
X429047Y350855D01*
X429048Y350850D01*
X429048Y350846D01*
X429107Y350658D01*
X429165Y350470D01*
X429167Y350466D01*
X429168Y350461D01*
X429264Y350287D01*
X429357Y350116D01*
X429359Y350112D01*
X429362Y350108D01*
X429490Y349955D01*
X429614Y349806D01*
X429618Y349804D01*
X429621Y349800D01*
X429775Y349677D01*
X429928Y349554D01*
X429932Y349552D01*
X429935Y349549D01*
X430110Y349460D01*
X430285Y349368D01*
X430290Y349367D01*
X430294Y349365D01*
X430481Y349312D01*
X430672Y349257D01*
X430677Y349257D01*
X430681Y349256D01*
X430874Y349241D01*
X431074Y349224D01*
X431078Y349225D01*
X431082Y349224D01*
X431276Y349248D01*
X431473Y349271D01*
X431478Y349273D01*
X431482Y349273D01*
X431667Y349334D01*
X431856Y349396D01*
X431860Y349398D01*
X431864Y349400D01*
X432033Y349496D01*
X432207Y349594D01*
X432210Y349597D01*
X432214Y349599D01*
X432363Y349729D01*
X432511Y349857D01*
X432514Y349861D01*
X432518Y349863D01*
X432638Y350020D01*
X432758Y350175D01*
X432760Y350179D01*
X432763Y350183D01*
X432915Y350478D01*
X433651Y352256D01*
X433998Y352603D01*
X434015Y352624D01*
X434036Y352641D01*
X434143Y352779D01*
X434253Y352915D01*
X434266Y352938D01*
X434282Y352959D01*
X434360Y353116D01*
X434442Y353270D01*
X434450Y353296D01*
X434462Y353320D01*
X434507Y353489D01*
X434557Y353656D01*
X434559Y353683D01*
X434566Y353709D01*
X434593Y354040D01*
X434593Y363423D01*
X448476Y377306D01*
X448493Y377327D01*
X448514Y377345D01*
X448621Y377482D01*
X448731Y377618D01*
X448744Y377641D01*
X448760Y377663D01*
X448838Y377820D01*
X448920Y377974D01*
X448928Y377999D01*
X448940Y378023D01*
X448985Y378193D01*
X449035Y378359D01*
X449037Y378386D01*
X449044Y378412D01*
X449071Y378743D01*
X449071Y384367D01*
X453833Y389129D01*
X460567Y389129D01*
X465329Y384367D01*
X465329Y377633D01*
X460567Y372871D01*
X454943Y372871D01*
X454916Y372869D01*
X454889Y372871D01*
X454715Y372849D01*
X454542Y372831D01*
X454517Y372824D01*
X454490Y372820D01*
X454324Y372765D01*
X454157Y372713D01*
X454134Y372700D01*
X454108Y372692D01*
X453957Y372605D01*
X453803Y372521D01*
X453783Y372504D01*
X453759Y372491D01*
X453506Y372276D01*
X442302Y361072D01*
X442285Y361051D01*
X442264Y361033D01*
X442157Y360896D01*
X442047Y360760D01*
X442034Y360737D01*
X442018Y360715D01*
X441940Y360558D01*
X441858Y360404D01*
X441850Y360379D01*
X441838Y360355D01*
X441793Y360185D01*
X441743Y360019D01*
X441741Y359992D01*
X441734Y359966D01*
X441707Y359635D01*
X441707Y354040D01*
X441709Y354013D01*
X441707Y353986D01*
X441729Y353812D01*
X441747Y353639D01*
X441754Y353613D01*
X441758Y353587D01*
X441813Y353421D01*
X441865Y353254D01*
X441878Y353230D01*
X441886Y353205D01*
X441973Y353053D01*
X442057Y352900D01*
X442074Y352879D01*
X442087Y352856D01*
X442302Y352603D01*
X442649Y352256D01*
X443457Y350306D01*
X443457Y348194D01*
X442649Y346244D01*
X442302Y345897D01*
X442285Y345876D01*
X442264Y345859D01*
X442157Y345721D01*
X442047Y345585D01*
X442034Y345562D01*
X442018Y345541D01*
X441940Y345384D01*
X441858Y345230D01*
X441850Y345204D01*
X441838Y345180D01*
X441793Y345011D01*
X441743Y344844D01*
X441741Y344817D01*
X441734Y344791D01*
X441707Y344460D01*
X441707Y224565D01*
X441709Y224538D01*
X441707Y224511D01*
X441729Y224337D01*
X441747Y224164D01*
X441754Y224139D01*
X441758Y224112D01*
X441813Y223946D01*
X441865Y223779D01*
X441878Y223756D01*
X441886Y223730D01*
X441973Y223579D01*
X442057Y223425D01*
X442074Y223405D01*
X442087Y223381D01*
X442302Y223128D01*
X453506Y211924D01*
X453527Y211907D01*
X453545Y211886D01*
X453682Y211779D01*
X453818Y211669D01*
X453841Y211656D01*
X453863Y211640D01*
X454020Y211562D01*
X454174Y211480D01*
X454199Y211472D01*
X454223Y211460D01*
X454393Y211415D01*
X454559Y211365D01*
X454586Y211363D01*
X454612Y211356D01*
X454943Y211329D01*
X460567Y211329D01*
X465329Y206567D01*
X465329Y199833D01*
X460567Y195071D01*
X453833Y195071D01*
X449071Y199833D01*
X449071Y205457D01*
X449069Y205484D01*
X449071Y205511D01*
X449049Y205685D01*
X449031Y205858D01*
X449024Y205883D01*
X449020Y205910D01*
X448965Y206075D01*
X448913Y206243D01*
X448900Y206266D01*
X448892Y206292D01*
X448805Y206443D01*
X448721Y206597D01*
X448704Y206617D01*
X448691Y206641D01*
X448476Y206894D01*
X434593Y220777D01*
X434593Y290095D01*
X434593Y290099D01*
X434593Y290104D01*
X434573Y290298D01*
X434553Y290495D01*
X434552Y290500D01*
X434552Y290504D01*
X434494Y290688D01*
X434435Y290880D01*
X434433Y290884D01*
X434432Y290889D01*
X434336Y291063D01*
X434243Y291234D01*
X434241Y291238D01*
X434238Y291242D01*
X434110Y291394D01*
X433986Y291544D01*
X433982Y291546D01*
X433979Y291550D01*
X433825Y291673D01*
X433672Y291796D01*
X433668Y291798D01*
X433665Y291801D01*
X433490Y291890D01*
X433315Y291982D01*
X433310Y291983D01*
X433306Y291985D01*
X433119Y292038D01*
X432928Y292093D01*
X432923Y292093D01*
X432919Y292094D01*
X432726Y292109D01*
X432526Y292126D01*
X432522Y292125D01*
X432518Y292126D01*
X432324Y292102D01*
X432127Y292079D01*
X432122Y292077D01*
X432118Y292077D01*
X431933Y292016D01*
X431744Y291954D01*
X431740Y291952D01*
X431736Y291950D01*
X431567Y291854D01*
X431393Y291756D01*
X431390Y291753D01*
X431386Y291751D01*
X431235Y291620D01*
X431089Y291493D01*
X431086Y291489D01*
X431082Y291487D01*
X430961Y291329D01*
X430842Y291175D01*
X430840Y291171D01*
X430837Y291167D01*
X430685Y290872D01*
X429949Y289094D01*
X428456Y287601D01*
X426506Y286793D01*
X424394Y286793D01*
X422444Y287601D01*
X420790Y289255D01*
X420783Y289261D01*
X420778Y289267D01*
X420628Y289388D01*
X420479Y289510D01*
X420471Y289514D01*
X420464Y289520D01*
X420294Y289608D01*
X420123Y289699D01*
X420114Y289701D01*
X420107Y289705D01*
X419922Y289758D01*
X419737Y289813D01*
X419728Y289814D01*
X419720Y289817D01*
X419529Y289832D01*
X419336Y289850D01*
X419327Y289849D01*
X419318Y289849D01*
X419129Y289827D01*
X418936Y289806D01*
X418927Y289804D01*
X418919Y289803D01*
X418737Y289743D01*
X418552Y289685D01*
X418544Y289681D01*
X418536Y289678D01*
X418368Y289583D01*
X418200Y289490D01*
X418193Y289484D01*
X418185Y289480D01*
X418040Y289355D01*
X417893Y289230D01*
X417887Y289222D01*
X417880Y289217D01*
X417764Y289066D01*
X417643Y288914D01*
X417639Y288906D01*
X417634Y288899D01*
X417548Y288727D01*
X417461Y288555D01*
X417458Y288546D01*
X417454Y288538D01*
X417404Y288352D01*
X417353Y288167D01*
X417352Y288158D01*
X417350Y288149D01*
X417323Y287819D01*
X417323Y272140D01*
X416627Y270460D01*
X396290Y250123D01*
X394610Y249427D01*
X358335Y249427D01*
X358309Y249425D01*
X358282Y249427D01*
X358108Y249405D01*
X357935Y249387D01*
X357909Y249380D01*
X357883Y249376D01*
X357717Y249321D01*
X357550Y249269D01*
X357526Y249256D01*
X357501Y249248D01*
X357349Y249161D01*
X357196Y249077D01*
X357175Y249060D01*
X357152Y249047D01*
X356899Y248832D01*
X341718Y233651D01*
X341701Y233630D01*
X341680Y233613D01*
X341573Y233475D01*
X341463Y233339D01*
X341450Y233316D01*
X341434Y233295D01*
X341356Y233138D01*
X341274Y232984D01*
X341266Y232958D01*
X341254Y232934D01*
X341209Y232765D01*
X341159Y232598D01*
X341157Y232571D01*
X341150Y232545D01*
X341123Y232215D01*
X341123Y228907D01*
X341125Y228880D01*
X341123Y228853D01*
X341145Y228679D01*
X341163Y228506D01*
X341170Y228481D01*
X341174Y228454D01*
X341230Y228288D01*
X341281Y228121D01*
X341294Y228098D01*
X341302Y228072D01*
X341389Y227921D01*
X341473Y227767D01*
X341490Y227747D01*
X341503Y227723D01*
X341718Y227470D01*
X342963Y226225D01*
X344115Y223445D01*
X344115Y208355D01*
X342963Y205575D01*
X341718Y204330D01*
X341701Y204309D01*
X341680Y204291D01*
X341573Y204153D01*
X341463Y204018D01*
X341450Y203994D01*
X341434Y203973D01*
X341356Y203817D01*
X341274Y203662D01*
X341266Y203637D01*
X341254Y203613D01*
X341209Y203444D01*
X341159Y203276D01*
X341157Y203250D01*
X341150Y203224D01*
X341123Y202893D01*
X341123Y191914D01*
X341125Y191888D01*
X341123Y191861D01*
X341145Y191687D01*
X341163Y191514D01*
X341170Y191488D01*
X341174Y191462D01*
X341230Y191296D01*
X341281Y191129D01*
X341294Y191105D01*
X341302Y191080D01*
X341389Y190928D01*
X341473Y190775D01*
X341490Y190754D01*
X341503Y190731D01*
X341718Y190478D01*
X344679Y187517D01*
X344679Y180783D01*
X339917Y176021D01*
X333183Y176021D01*
G37*
%LPD*%
%LPC*%
G36*
X59681Y480250D02*
X59681Y480250D01*
X54149Y482541D01*
X49916Y486775D01*
X47624Y492306D01*
X47624Y498294D01*
X49916Y503825D01*
X54149Y508059D01*
X58850Y510006D01*
X59681Y510350D01*
X92719Y510350D01*
X98251Y508059D01*
X99179Y507131D01*
X99192Y507120D01*
X99204Y507106D01*
X99348Y506992D01*
X99490Y506876D01*
X99506Y506868D01*
X99520Y506857D01*
X99684Y506773D01*
X99846Y506687D01*
X99863Y506682D01*
X99879Y506674D01*
X100056Y506625D01*
X100232Y506573D01*
X100249Y506571D01*
X100267Y506566D01*
X100450Y506553D01*
X100633Y506536D01*
X100650Y506538D01*
X100668Y506537D01*
X100850Y506560D01*
X101033Y506580D01*
X101050Y506585D01*
X101068Y506587D01*
X101241Y506646D01*
X101417Y506701D01*
X101432Y506710D01*
X101449Y506716D01*
X101608Y506807D01*
X101769Y506896D01*
X101783Y506908D01*
X101798Y506916D01*
X102051Y507131D01*
X169977Y575057D01*
X509560Y575057D01*
X509587Y575059D01*
X509614Y575057D01*
X509788Y575079D01*
X509961Y575097D01*
X509987Y575104D01*
X510013Y575108D01*
X510179Y575163D01*
X510346Y575215D01*
X510370Y575228D01*
X510395Y575236D01*
X510547Y575323D01*
X510700Y575407D01*
X510721Y575424D01*
X510744Y575437D01*
X510997Y575652D01*
X511344Y575999D01*
X513294Y576807D01*
X515406Y576807D01*
X517356Y575999D01*
X518849Y574506D01*
X519657Y572556D01*
X519657Y570444D01*
X518849Y568494D01*
X517356Y567001D01*
X516304Y566565D01*
X516303Y566565D01*
X515406Y566193D01*
X513294Y566193D01*
X511344Y567001D01*
X510997Y567348D01*
X510976Y567365D01*
X510959Y567386D01*
X510821Y567493D01*
X510685Y567603D01*
X510662Y567616D01*
X510641Y567632D01*
X510484Y567710D01*
X510330Y567792D01*
X510304Y567800D01*
X510280Y567812D01*
X510111Y567857D01*
X509944Y567907D01*
X509917Y567909D01*
X509891Y567916D01*
X509560Y567943D01*
X421105Y567943D01*
X421101Y567943D01*
X421096Y567943D01*
X420902Y567923D01*
X420705Y567903D01*
X420700Y567902D01*
X420696Y567902D01*
X420508Y567843D01*
X420320Y567785D01*
X420316Y567783D01*
X420311Y567782D01*
X420137Y567686D01*
X419966Y567593D01*
X419962Y567591D01*
X419958Y567588D01*
X419805Y567460D01*
X419656Y567336D01*
X419654Y567332D01*
X419650Y567329D01*
X419527Y567175D01*
X419404Y567022D01*
X419402Y567018D01*
X419399Y567015D01*
X419310Y566840D01*
X419218Y566665D01*
X419217Y566660D01*
X419215Y566656D01*
X419162Y566469D01*
X419107Y566278D01*
X419107Y566273D01*
X419106Y566269D01*
X419099Y566180D01*
X419081Y566339D01*
X419079Y566343D01*
X419079Y566347D01*
X419018Y566533D01*
X418958Y566722D01*
X418955Y566726D01*
X418954Y566730D01*
X418857Y566903D01*
X418761Y567074D01*
X418758Y567077D01*
X418756Y567081D01*
X418628Y567230D01*
X418499Y567379D01*
X418496Y567382D01*
X418493Y567386D01*
X418338Y567506D01*
X418182Y567628D01*
X418178Y567630D01*
X418175Y567632D01*
X417997Y567721D01*
X417823Y567808D01*
X417818Y567810D01*
X417814Y567812D01*
X417622Y567863D01*
X417434Y567915D01*
X417430Y567915D01*
X417426Y567916D01*
X417095Y567943D01*
X173765Y567943D01*
X173738Y567941D01*
X173711Y567943D01*
X173537Y567921D01*
X173364Y567903D01*
X173339Y567896D01*
X173312Y567892D01*
X173146Y567837D01*
X172979Y567785D01*
X172956Y567772D01*
X172930Y567764D01*
X172779Y567677D01*
X172625Y567593D01*
X172605Y567576D01*
X172581Y567563D01*
X172328Y567348D01*
X105295Y500316D01*
X105281Y500298D01*
X105264Y500284D01*
X105154Y500142D01*
X105040Y500004D01*
X105030Y499984D01*
X105016Y499967D01*
X104935Y499806D01*
X104852Y499648D01*
X104845Y499627D01*
X104835Y499607D01*
X104788Y499433D01*
X104737Y499262D01*
X104735Y499240D01*
X104729Y499218D01*
X104717Y499040D01*
X104701Y498861D01*
X104703Y498839D01*
X104702Y498817D01*
X104725Y498640D01*
X104744Y498461D01*
X104751Y498440D01*
X104754Y498418D01*
X104776Y498349D01*
X104776Y492306D01*
X102484Y486775D01*
X98251Y482541D01*
X92719Y480250D01*
X59681Y480250D01*
G37*
%LPD*%
%LPC*%
G36*
X212533Y747521D02*
X212533Y747521D01*
X207771Y752283D01*
X207771Y759017D01*
X212533Y763779D01*
X219267Y763779D01*
X223244Y759802D01*
X223265Y759785D01*
X223282Y759764D01*
X223420Y759657D01*
X223556Y759547D01*
X223579Y759534D01*
X223600Y759518D01*
X223757Y759440D01*
X223911Y759358D01*
X223937Y759350D01*
X223961Y759338D01*
X224130Y759293D01*
X224297Y759243D01*
X224324Y759241D01*
X224350Y759234D01*
X224680Y759207D01*
X362712Y759207D01*
X362730Y759209D01*
X362748Y759207D01*
X362930Y759228D01*
X363113Y759247D01*
X363130Y759252D01*
X363147Y759254D01*
X363322Y759311D01*
X363498Y759365D01*
X363513Y759373D01*
X363530Y759379D01*
X363690Y759469D01*
X363852Y759557D01*
X363865Y759568D01*
X363881Y759577D01*
X364020Y759697D01*
X364161Y759814D01*
X364172Y759828D01*
X364186Y759840D01*
X364298Y759985D01*
X364413Y760128D01*
X364421Y760144D01*
X364432Y760158D01*
X364514Y760323D01*
X364599Y760485D01*
X364604Y760502D01*
X364612Y760518D01*
X364659Y760697D01*
X364710Y760872D01*
X364712Y760890D01*
X364716Y760907D01*
X364743Y761238D01*
X364743Y784970D01*
X364741Y784996D01*
X364743Y785023D01*
X364721Y785197D01*
X364703Y785370D01*
X364696Y785396D01*
X364692Y785422D01*
X364636Y785588D01*
X364585Y785755D01*
X364572Y785779D01*
X364564Y785804D01*
X364477Y785956D01*
X364393Y786109D01*
X364376Y786130D01*
X364363Y786153D01*
X364148Y786406D01*
X360171Y790383D01*
X360171Y797117D01*
X364933Y801879D01*
X371667Y801879D01*
X376429Y797117D01*
X376429Y790383D01*
X372452Y786406D01*
X372435Y786385D01*
X372414Y786368D01*
X372307Y786230D01*
X372197Y786094D01*
X372184Y786071D01*
X372168Y786050D01*
X372090Y785893D01*
X372008Y785739D01*
X372000Y785713D01*
X371988Y785689D01*
X371943Y785520D01*
X371893Y785353D01*
X371891Y785326D01*
X371884Y785300D01*
X371857Y784970D01*
X371857Y761238D01*
X371859Y761220D01*
X371857Y761202D01*
X371878Y761020D01*
X371897Y760837D01*
X371902Y760820D01*
X371904Y760803D01*
X371961Y760627D01*
X372015Y760452D01*
X372023Y760437D01*
X372029Y760420D01*
X372120Y760259D01*
X372207Y760098D01*
X372218Y760085D01*
X372227Y760069D01*
X372347Y759930D01*
X372464Y759789D01*
X372478Y759778D01*
X372490Y759764D01*
X372635Y759652D01*
X372778Y759537D01*
X372794Y759529D01*
X372808Y759518D01*
X372973Y759436D01*
X373135Y759351D01*
X373152Y759346D01*
X373168Y759338D01*
X373347Y759291D01*
X373522Y759240D01*
X373540Y759238D01*
X373557Y759234D01*
X373888Y759207D01*
X435720Y759207D01*
X435746Y759209D01*
X435773Y759207D01*
X435947Y759229D01*
X436120Y759247D01*
X436146Y759254D01*
X436172Y759258D01*
X436338Y759313D01*
X436505Y759365D01*
X436529Y759378D01*
X436554Y759386D01*
X436706Y759473D01*
X436859Y759557D01*
X436880Y759574D01*
X436903Y759587D01*
X437156Y759802D01*
X441133Y763779D01*
X447867Y763779D01*
X452629Y759017D01*
X452629Y752283D01*
X447867Y747521D01*
X441133Y747521D01*
X437156Y751498D01*
X437135Y751515D01*
X437118Y751536D01*
X436980Y751643D01*
X436844Y751753D01*
X436821Y751766D01*
X436800Y751782D01*
X436643Y751860D01*
X436489Y751942D01*
X436463Y751950D01*
X436439Y751962D01*
X436270Y752007D01*
X436103Y752057D01*
X436076Y752059D01*
X436050Y752066D01*
X435720Y752093D01*
X224680Y752093D01*
X224654Y752091D01*
X224627Y752093D01*
X224453Y752071D01*
X224280Y752053D01*
X224254Y752046D01*
X224228Y752042D01*
X224062Y751987D01*
X223895Y751935D01*
X223871Y751922D01*
X223846Y751914D01*
X223694Y751827D01*
X223541Y751743D01*
X223520Y751726D01*
X223497Y751713D01*
X223244Y751498D01*
X219267Y747521D01*
X212533Y747521D01*
G37*
%LPD*%
%LPC*%
G36*
X47356Y164337D02*
X47356Y164337D01*
X40702Y166120D01*
X34736Y169565D01*
X29865Y174436D01*
X26420Y180402D01*
X24637Y187056D01*
X24637Y193944D01*
X26420Y200598D01*
X29865Y206564D01*
X34736Y211435D01*
X40702Y214880D01*
X47356Y216663D01*
X54244Y216663D01*
X60898Y214880D01*
X66864Y211435D01*
X71735Y206564D01*
X75180Y200598D01*
X76963Y193944D01*
X76963Y187056D01*
X75180Y180402D01*
X71735Y174436D01*
X66864Y169565D01*
X60898Y166120D01*
X54244Y164337D01*
X47356Y164337D01*
G37*
%LPD*%
%LPC*%
G36*
X308886Y593193D02*
X308886Y593193D01*
X307993Y594086D01*
X307993Y597512D01*
X307991Y597530D01*
X307993Y597548D01*
X307972Y597730D01*
X307953Y597913D01*
X307948Y597930D01*
X307946Y597947D01*
X307889Y598122D01*
X307835Y598298D01*
X307827Y598313D01*
X307821Y598330D01*
X307731Y598490D01*
X307643Y598652D01*
X307632Y598665D01*
X307623Y598681D01*
X307503Y598820D01*
X307386Y598961D01*
X307372Y598972D01*
X307360Y598986D01*
X307215Y599098D01*
X307072Y599213D01*
X307056Y599221D01*
X307042Y599232D01*
X306877Y599314D01*
X306715Y599399D01*
X306698Y599404D01*
X306682Y599412D01*
X306503Y599459D01*
X306328Y599510D01*
X306310Y599512D01*
X306293Y599516D01*
X305962Y599543D01*
X144490Y599543D01*
X144463Y599541D01*
X144436Y599543D01*
X144262Y599521D01*
X144089Y599503D01*
X144063Y599496D01*
X144037Y599492D01*
X143871Y599437D01*
X143704Y599385D01*
X143680Y599372D01*
X143655Y599364D01*
X143503Y599277D01*
X143350Y599193D01*
X143329Y599176D01*
X143306Y599163D01*
X143053Y598948D01*
X142706Y598601D01*
X140756Y597793D01*
X138644Y597793D01*
X136694Y598601D01*
X135201Y600094D01*
X134393Y602044D01*
X134393Y604156D01*
X135201Y606106D01*
X136694Y607599D01*
X138644Y608407D01*
X140756Y608407D01*
X142706Y607599D01*
X143053Y607252D01*
X143074Y607235D01*
X143091Y607214D01*
X143229Y607107D01*
X143365Y606997D01*
X143388Y606984D01*
X143409Y606968D01*
X143566Y606890D01*
X143720Y606808D01*
X143746Y606800D01*
X143770Y606788D01*
X143939Y606743D01*
X144106Y606693D01*
X144133Y606691D01*
X144159Y606684D01*
X144490Y606657D01*
X305962Y606657D01*
X305980Y606659D01*
X305998Y606657D01*
X306180Y606678D01*
X306363Y606697D01*
X306380Y606702D01*
X306397Y606704D01*
X306572Y606761D01*
X306748Y606815D01*
X306763Y606823D01*
X306780Y606829D01*
X306940Y606919D01*
X307102Y607007D01*
X307115Y607018D01*
X307131Y607027D01*
X307270Y607147D01*
X307411Y607264D01*
X307422Y607278D01*
X307436Y607290D01*
X307548Y607435D01*
X307663Y607578D01*
X307671Y607594D01*
X307682Y607608D01*
X307764Y607773D01*
X307849Y607935D01*
X307854Y607952D01*
X307862Y607968D01*
X307909Y608147D01*
X307960Y608322D01*
X307962Y608340D01*
X307966Y608357D01*
X307993Y608688D01*
X307993Y612114D01*
X308886Y613007D01*
X326914Y613007D01*
X327807Y612114D01*
X327807Y594086D01*
X326914Y593193D01*
X308886Y593193D01*
G37*
%LPD*%
%LPC*%
G36*
X472431Y324040D02*
X472431Y324040D01*
X466899Y326331D01*
X462666Y330565D01*
X460374Y336096D01*
X460374Y342084D01*
X462666Y347615D01*
X466899Y351849D01*
X472431Y354140D01*
X505469Y354140D01*
X511001Y351849D01*
X515234Y347615D01*
X517526Y342084D01*
X517526Y336096D01*
X515234Y330565D01*
X511001Y326331D01*
X505469Y324040D01*
X472431Y324040D01*
G37*
%LPD*%
%LPC*%
G36*
X59681Y527240D02*
X59681Y527240D01*
X54149Y529531D01*
X49916Y533765D01*
X47624Y539296D01*
X47624Y545284D01*
X49916Y550815D01*
X54149Y555049D01*
X59681Y557340D01*
X92719Y557340D01*
X98251Y555049D01*
X102484Y550815D01*
X104776Y545284D01*
X104776Y539296D01*
X102484Y533765D01*
X98251Y529531D01*
X92719Y527240D01*
X59681Y527240D01*
G37*
%LPD*%
%LPC*%
G36*
X472431Y230060D02*
X472431Y230060D01*
X466899Y232351D01*
X462666Y236585D01*
X460374Y242116D01*
X460374Y248104D01*
X462666Y253635D01*
X466899Y257869D01*
X472431Y260160D01*
X505469Y260160D01*
X511001Y257869D01*
X515234Y253635D01*
X517526Y248104D01*
X517526Y242116D01*
X515234Y236585D01*
X511001Y232351D01*
X508727Y231409D01*
X508726Y231409D01*
X505469Y230060D01*
X472431Y230060D01*
G37*
%LPD*%
%LPC*%
G36*
X59681Y433260D02*
X59681Y433260D01*
X54149Y435551D01*
X49916Y439785D01*
X47624Y445316D01*
X47624Y451304D01*
X49916Y456835D01*
X54149Y461069D01*
X59681Y463360D01*
X92719Y463360D01*
X98251Y461069D01*
X102484Y456835D01*
X104776Y451304D01*
X104776Y445316D01*
X102484Y439785D01*
X98251Y435551D01*
X95795Y434534D01*
X92719Y433260D01*
X59681Y433260D01*
G37*
%LPD*%
%LPC*%
G36*
X472431Y277050D02*
X472431Y277050D01*
X466899Y279341D01*
X462666Y283575D01*
X460374Y289106D01*
X460374Y295094D01*
X462666Y300625D01*
X466899Y304859D01*
X471781Y306881D01*
X471782Y306881D01*
X472431Y307150D01*
X505469Y307150D01*
X511001Y304859D01*
X515234Y300625D01*
X517526Y295094D01*
X517526Y289106D01*
X515234Y283575D01*
X511001Y279341D01*
X505469Y277050D01*
X472431Y277050D01*
G37*
%LPD*%
%LPC*%
G36*
X332488Y71795D02*
X332488Y71795D01*
X331595Y72688D01*
X331595Y105112D01*
X332488Y106005D01*
X364912Y106005D01*
X365805Y105112D01*
X365805Y72688D01*
X364912Y71795D01*
X332488Y71795D01*
G37*
%LPD*%
%LPC*%
G36*
X225638Y71795D02*
X225638Y71795D01*
X224745Y72688D01*
X224745Y105112D01*
X225638Y106005D01*
X258062Y106005D01*
X258955Y105112D01*
X258955Y72688D01*
X258062Y71795D01*
X225638Y71795D01*
G37*
%LPD*%
%LPC*%
G36*
X148338Y478195D02*
X148338Y478195D01*
X147445Y479088D01*
X147445Y511512D01*
X148338Y512405D01*
X180762Y512405D01*
X181655Y511512D01*
X181655Y479088D01*
X180762Y478195D01*
X148338Y478195D01*
G37*
%LPD*%
%LPC*%
G36*
X422488Y71795D02*
X422488Y71795D01*
X421595Y72688D01*
X421595Y105112D01*
X422488Y106005D01*
X454912Y106005D01*
X455805Y105112D01*
X455805Y72688D01*
X454912Y71795D01*
X422488Y71795D01*
G37*
%LPD*%
%LPC*%
G36*
X238338Y478195D02*
X238338Y478195D01*
X237445Y479088D01*
X237445Y511512D01*
X238338Y512405D01*
X270762Y512405D01*
X271655Y511512D01*
X271655Y479088D01*
X270762Y478195D01*
X238338Y478195D01*
G37*
%LPD*%
%LPC*%
G36*
X135638Y71795D02*
X135638Y71795D01*
X134745Y72688D01*
X134745Y105112D01*
X135638Y106005D01*
X168062Y106005D01*
X168955Y105112D01*
X168955Y72688D01*
X168062Y71795D01*
X135638Y71795D01*
G37*
%LPD*%
%LPC*%
G36*
X319788Y446445D02*
X319788Y446445D01*
X318895Y447338D01*
X318895Y479762D01*
X319788Y480655D01*
X352212Y480655D01*
X353105Y479762D01*
X353105Y447338D01*
X352212Y446445D01*
X319788Y446445D01*
G37*
%LPD*%
%LPC*%
G36*
X409788Y446445D02*
X409788Y446445D01*
X408895Y447338D01*
X408895Y479762D01*
X409788Y480655D01*
X442212Y480655D01*
X443105Y479762D01*
X443105Y447338D01*
X442212Y446445D01*
X409788Y446445D01*
G37*
%LPD*%
%LPC*%
G36*
X371688Y655995D02*
X371688Y655995D01*
X370795Y656888D01*
X370795Y689312D01*
X371688Y690205D01*
X404112Y690205D01*
X405005Y689312D01*
X405005Y656888D01*
X404112Y655995D01*
X371688Y655995D01*
G37*
%LPD*%
%LPC*%
G36*
X281688Y655995D02*
X281688Y655995D01*
X280795Y656888D01*
X280795Y689312D01*
X281688Y690205D01*
X314112Y690205D01*
X315005Y689312D01*
X315005Y656888D01*
X314112Y655995D01*
X281688Y655995D01*
G37*
%LPD*%
%LPC*%
G36*
X402338Y909995D02*
X402338Y909995D01*
X401445Y910888D01*
X401445Y943312D01*
X402338Y944205D01*
X434762Y944205D01*
X435655Y943312D01*
X435655Y910888D01*
X434762Y909995D01*
X402338Y909995D01*
G37*
%LPD*%
%LPC*%
G36*
X453138Y592495D02*
X453138Y592495D01*
X452245Y593388D01*
X452245Y625812D01*
X453138Y626705D01*
X485562Y626705D01*
X486455Y625812D01*
X486455Y593388D01*
X485562Y592495D01*
X453138Y592495D01*
G37*
%LPD*%
%LPC*%
G36*
X492338Y909995D02*
X492338Y909995D01*
X491445Y910888D01*
X491445Y943312D01*
X492338Y944205D01*
X524762Y944205D01*
X525655Y943312D01*
X525655Y910888D01*
X524762Y909995D01*
X492338Y909995D01*
G37*
%LPD*%
%LPC*%
G36*
X188883Y740917D02*
X188883Y740917D01*
X185895Y742155D01*
X183609Y744441D01*
X182371Y747429D01*
X182371Y763871D01*
X183609Y766859D01*
X185895Y769145D01*
X188883Y770383D01*
X192117Y770383D01*
X195105Y769145D01*
X197391Y766859D01*
X198629Y763871D01*
X198629Y747429D01*
X197391Y744441D01*
X195105Y742155D01*
X192117Y740917D01*
X188883Y740917D01*
G37*
%LPD*%
%LPC*%
G36*
X175536Y415393D02*
X175536Y415393D01*
X174643Y416286D01*
X174643Y434314D01*
X175536Y435207D01*
X193564Y435207D01*
X194457Y434314D01*
X194457Y416286D01*
X193564Y415393D01*
X175536Y415393D01*
G37*
%LPD*%
%LPC*%
G36*
X169186Y885293D02*
X169186Y885293D01*
X168293Y886186D01*
X168293Y904214D01*
X169186Y905107D01*
X187214Y905107D01*
X188107Y904214D01*
X188107Y886186D01*
X187214Y885293D01*
X169186Y885293D01*
G37*
%LPD*%
%LPC*%
G36*
X284245Y202295D02*
X284245Y202295D01*
X281465Y203447D01*
X279337Y205575D01*
X278185Y208355D01*
X278185Y223445D01*
X279337Y226225D01*
X281465Y228353D01*
X284245Y229505D01*
X287255Y229505D01*
X290035Y228353D01*
X292163Y226225D01*
X293315Y223445D01*
X293315Y208355D01*
X292163Y205575D01*
X290035Y203447D01*
X287255Y202295D01*
X284245Y202295D01*
G37*
%LPD*%
%LPC*%
G36*
X309645Y202295D02*
X309645Y202295D01*
X306865Y203447D01*
X304737Y205575D01*
X303585Y208355D01*
X303585Y223445D01*
X304737Y226225D01*
X306865Y228353D01*
X309645Y229505D01*
X312655Y229505D01*
X315435Y228353D01*
X317563Y226225D01*
X318715Y223445D01*
X318715Y208355D01*
X317563Y205575D01*
X315435Y203447D01*
X312655Y202295D01*
X309645Y202295D01*
G37*
%LPD*%
%LPC*%
G36*
X335045Y278495D02*
X335045Y278495D01*
X332265Y279647D01*
X330137Y281775D01*
X328985Y284555D01*
X328985Y299645D01*
X330137Y302425D01*
X332265Y304553D01*
X332982Y304850D01*
X335045Y305705D01*
X338055Y305705D01*
X340835Y304553D01*
X342963Y302425D01*
X344115Y299645D01*
X344115Y284555D01*
X342963Y281775D01*
X340835Y279647D01*
X338055Y278495D01*
X335045Y278495D01*
G37*
%LPD*%
%LPC*%
G36*
X309645Y278495D02*
X309645Y278495D01*
X306865Y279647D01*
X304737Y281775D01*
X303585Y284555D01*
X303585Y299645D01*
X304737Y302425D01*
X306865Y304553D01*
X307582Y304850D01*
X309645Y305705D01*
X312655Y305705D01*
X315435Y304553D01*
X317563Y302425D01*
X318715Y299645D01*
X318715Y284555D01*
X317563Y281775D01*
X315435Y279647D01*
X312655Y278495D01*
X309645Y278495D01*
G37*
%LPD*%
%LPC*%
G36*
X230447Y415393D02*
X230447Y415393D01*
X224643Y421197D01*
X224643Y429403D01*
X230447Y435207D01*
X238653Y435207D01*
X244457Y429403D01*
X244457Y421197D01*
X238653Y415393D01*
X230447Y415393D01*
G37*
%LPD*%
%LPC*%
G36*
X224097Y885293D02*
X224097Y885293D01*
X218293Y891097D01*
X218293Y899303D01*
X224097Y905107D01*
X232303Y905107D01*
X238107Y899303D01*
X238107Y891097D01*
X232303Y885293D01*
X224097Y885293D01*
G37*
%LPD*%
%LPC*%
G36*
X401897Y383643D02*
X401897Y383643D01*
X396093Y389447D01*
X396093Y397653D01*
X401897Y403457D01*
X410103Y403457D01*
X415907Y397653D01*
X415907Y389447D01*
X410103Y383643D01*
X401897Y383643D01*
G37*
%LPD*%
%LPC*%
G36*
X510247Y529693D02*
X510247Y529693D01*
X504443Y535497D01*
X504443Y543703D01*
X510247Y549507D01*
X518453Y549507D01*
X524257Y543703D01*
X524257Y535497D01*
X518453Y529693D01*
X510247Y529693D01*
G37*
%LPD*%
%LPC*%
G36*
X199097Y885293D02*
X199097Y885293D01*
X193293Y891097D01*
X193293Y899303D01*
X199097Y905107D01*
X207303Y905107D01*
X213107Y899303D01*
X213107Y891097D01*
X207303Y885293D01*
X199097Y885293D01*
G37*
%LPD*%
%LPC*%
G36*
X376897Y383643D02*
X376897Y383643D01*
X371093Y389447D01*
X371093Y397653D01*
X376897Y403457D01*
X385103Y403457D01*
X390907Y397653D01*
X390907Y389447D01*
X385103Y383643D01*
X376897Y383643D01*
G37*
%LPD*%
%LPC*%
G36*
X363797Y593193D02*
X363797Y593193D01*
X357993Y598997D01*
X357993Y607203D01*
X363797Y613007D01*
X372003Y613007D01*
X377807Y607203D01*
X377807Y598997D01*
X372003Y593193D01*
X363797Y593193D01*
G37*
%LPD*%
%LPC*%
G36*
X525106Y129125D02*
X525106Y129125D01*
X521513Y130613D01*
X518763Y133363D01*
X517275Y136956D01*
X517275Y140844D01*
X518763Y144437D01*
X521513Y147187D01*
X525106Y148675D01*
X528994Y148675D01*
X532587Y147187D01*
X535337Y144437D01*
X536825Y140844D01*
X536825Y136956D01*
X535337Y133363D01*
X532587Y130613D01*
X528994Y129125D01*
X525106Y129125D01*
G37*
%LPD*%
%LPC*%
G36*
X99656Y748975D02*
X99656Y748975D01*
X96063Y750463D01*
X93313Y753213D01*
X91825Y756806D01*
X91825Y760694D01*
X93313Y764287D01*
X96063Y767037D01*
X99656Y768525D01*
X103544Y768525D01*
X107137Y767037D01*
X109887Y764287D01*
X111375Y760694D01*
X111375Y756806D01*
X109887Y753213D01*
X107137Y750463D01*
X103544Y748975D01*
X99656Y748975D01*
G37*
%LPD*%
%LPC*%
G36*
X61556Y129125D02*
X61556Y129125D01*
X57963Y130613D01*
X55213Y133363D01*
X53725Y136956D01*
X53725Y140844D01*
X55213Y144437D01*
X57963Y147187D01*
X61556Y148675D01*
X65444Y148675D01*
X69037Y147187D01*
X71787Y144437D01*
X73275Y140844D01*
X73275Y136956D01*
X71787Y133363D01*
X69037Y130613D01*
X65444Y129125D01*
X61556Y129125D01*
G37*
%LPD*%
%LPC*%
G36*
X525106Y44125D02*
X525106Y44125D01*
X521513Y45613D01*
X518763Y48363D01*
X517275Y51956D01*
X517275Y55844D01*
X518763Y59437D01*
X521513Y62187D01*
X525106Y63675D01*
X528994Y63675D01*
X532587Y62187D01*
X535337Y59437D01*
X536825Y55844D01*
X536825Y51956D01*
X535337Y48363D01*
X532587Y45613D01*
X529981Y44534D01*
X528994Y44125D01*
X525106Y44125D01*
G37*
%LPD*%
%LPC*%
G36*
X150197Y200885D02*
X150197Y200885D01*
X146865Y202265D01*
X144315Y204815D01*
X142935Y208147D01*
X142935Y211753D01*
X144315Y215085D01*
X146865Y217635D01*
X150197Y219015D01*
X153803Y219015D01*
X157135Y217635D01*
X159685Y215085D01*
X161065Y211753D01*
X161065Y208147D01*
X159685Y204815D01*
X157135Y202265D01*
X153803Y200885D01*
X150197Y200885D01*
G37*
%LPD*%
%LPC*%
G36*
X100197Y200885D02*
X100197Y200885D01*
X96865Y202265D01*
X94315Y204815D01*
X92935Y208147D01*
X92935Y211753D01*
X94315Y215085D01*
X96865Y217635D01*
X100197Y219015D01*
X103803Y219015D01*
X107135Y217635D01*
X109685Y215085D01*
X111065Y211753D01*
X111065Y208147D01*
X109685Y204815D01*
X107135Y202265D01*
X103803Y200885D01*
X100197Y200885D01*
G37*
%LPD*%
%LPC*%
G36*
X150197Y250885D02*
X150197Y250885D01*
X146865Y252265D01*
X144315Y254815D01*
X142935Y258147D01*
X142935Y261753D01*
X144315Y265085D01*
X146865Y267635D01*
X150197Y269015D01*
X153803Y269015D01*
X157135Y267635D01*
X159685Y265085D01*
X161065Y261753D01*
X161065Y258147D01*
X159685Y254815D01*
X157135Y252265D01*
X155822Y251721D01*
X153803Y250885D01*
X150197Y250885D01*
G37*
%LPD*%
%LPC*%
G36*
X100197Y250885D02*
X100197Y250885D01*
X96865Y252265D01*
X94315Y254815D01*
X92935Y258147D01*
X92935Y261753D01*
X94315Y265085D01*
X96865Y267635D01*
X100197Y269015D01*
X103803Y269015D01*
X107135Y267635D01*
X109685Y265085D01*
X111065Y261753D01*
X111065Y258147D01*
X109685Y254815D01*
X107135Y252265D01*
X105822Y251721D01*
X103803Y250885D01*
X100197Y250885D01*
G37*
%LPD*%
%LPC*%
G36*
X123633Y372871D02*
X123633Y372871D01*
X118871Y377633D01*
X118871Y384367D01*
X123633Y389129D01*
X130367Y389129D01*
X135129Y384367D01*
X135129Y377633D01*
X130367Y372871D01*
X123633Y372871D01*
G37*
%LPD*%
%LPC*%
G36*
X307783Y360171D02*
X307783Y360171D01*
X303021Y364933D01*
X303021Y371667D01*
X307783Y376429D01*
X314517Y376429D01*
X319279Y371667D01*
X319279Y364933D01*
X314517Y360171D01*
X307783Y360171D01*
G37*
%LPD*%
%LPC*%
G36*
X282383Y918971D02*
X282383Y918971D01*
X277621Y923733D01*
X277621Y930467D01*
X282383Y935229D01*
X289117Y935229D01*
X293879Y930467D01*
X293879Y923733D01*
X289117Y918971D01*
X282383Y918971D01*
G37*
%LPD*%
%LPC*%
G36*
X98233Y576071D02*
X98233Y576071D01*
X93471Y580833D01*
X93471Y587567D01*
X98233Y592329D01*
X104967Y592329D01*
X109729Y587567D01*
X109729Y580833D01*
X104967Y576071D01*
X98233Y576071D01*
G37*
%LPD*%
%LPC*%
G36*
X288733Y785621D02*
X288733Y785621D01*
X283971Y790383D01*
X283971Y797117D01*
X288733Y801879D01*
X295467Y801879D01*
X300229Y797117D01*
X300229Y790383D01*
X295467Y785621D01*
X288733Y785621D01*
G37*
%LPD*%
%LPC*%
G36*
X364933Y283971D02*
X364933Y283971D01*
X360171Y288733D01*
X360171Y295467D01*
X364933Y300229D01*
X371667Y300229D01*
X376429Y295467D01*
X376429Y288733D01*
X371667Y283971D01*
X364933Y283971D01*
G37*
%LPD*%
%LPC*%
G36*
X517333Y499871D02*
X517333Y499871D01*
X512571Y504633D01*
X512571Y511367D01*
X517333Y516129D01*
X524067Y516129D01*
X528829Y511367D01*
X528829Y504633D01*
X524067Y499871D01*
X517333Y499871D01*
G37*
%LPD*%
%LPC*%
G36*
X282383Y842771D02*
X282383Y842771D01*
X277621Y847533D01*
X277621Y854267D01*
X282383Y859029D01*
X289117Y859029D01*
X293879Y854267D01*
X293879Y847533D01*
X289117Y842771D01*
X282383Y842771D01*
G37*
%LPD*%
%LPC*%
G36*
X383983Y315721D02*
X383983Y315721D01*
X379221Y320483D01*
X379221Y327217D01*
X383983Y331979D01*
X390717Y331979D01*
X395479Y327217D01*
X395479Y320483D01*
X390717Y315721D01*
X383983Y315721D01*
G37*
%LPD*%
%LPC*%
G36*
X161733Y861821D02*
X161733Y861821D01*
X156971Y866583D01*
X156971Y873317D01*
X161733Y878079D01*
X168467Y878079D01*
X173229Y873317D01*
X173229Y866583D01*
X168467Y861821D01*
X161733Y861821D01*
G37*
%LPD*%
%LPC*%
G36*
X383983Y360171D02*
X383983Y360171D01*
X379221Y364933D01*
X379221Y371667D01*
X383983Y376429D01*
X390717Y376429D01*
X395479Y371667D01*
X395479Y364933D01*
X390717Y360171D01*
X383983Y360171D01*
G37*
%LPD*%
%LPC*%
G36*
X98233Y398271D02*
X98233Y398271D01*
X93471Y403033D01*
X93471Y409767D01*
X98233Y414529D01*
X104967Y414529D01*
X109729Y409767D01*
X109729Y403033D01*
X104967Y398271D01*
X98233Y398271D01*
G37*
%LPD*%
%LPC*%
G36*
X390333Y283971D02*
X390333Y283971D01*
X385571Y288733D01*
X385571Y295467D01*
X390333Y300229D01*
X397067Y300229D01*
X401829Y295467D01*
X401829Y288733D01*
X397067Y283971D01*
X390333Y283971D01*
G37*
%LPD*%
%LPC*%
G36*
X504633Y195071D02*
X504633Y195071D01*
X499871Y199833D01*
X499871Y206567D01*
X504633Y211329D01*
X511367Y211329D01*
X516129Y206567D01*
X516129Y199833D01*
X511367Y195071D01*
X504633Y195071D01*
G37*
%LPD*%
%LPC*%
G36*
X504633Y372871D02*
X504633Y372871D01*
X499871Y377633D01*
X499871Y384367D01*
X504633Y389129D01*
X511367Y389129D01*
X516129Y384367D01*
X516129Y377633D01*
X511367Y372871D01*
X504633Y372871D01*
G37*
%LPD*%
%LPC*%
G36*
X390333Y207771D02*
X390333Y207771D01*
X385571Y212533D01*
X385571Y219267D01*
X390333Y224029D01*
X397067Y224029D01*
X401829Y219267D01*
X401829Y212533D01*
X397067Y207771D01*
X390333Y207771D01*
G37*
%LPD*%
%LPC*%
G36*
X364933Y207771D02*
X364933Y207771D01*
X360171Y212533D01*
X360171Y219267D01*
X364933Y224029D01*
X371667Y224029D01*
X376429Y219267D01*
X376429Y212533D01*
X371667Y207771D01*
X364933Y207771D01*
G37*
%LPD*%
%LPC*%
G36*
X307783Y315721D02*
X307783Y315721D01*
X303021Y320483D01*
X303021Y327217D01*
X307783Y331979D01*
X314517Y331979D01*
X319279Y327217D01*
X319279Y320483D01*
X314517Y315721D01*
X307783Y315721D01*
G37*
%LPD*%
%LPC*%
G36*
X466299Y859849D02*
X466299Y859849D01*
X466299Y868023D01*
X468074Y868023D01*
X474614Y861483D01*
X474627Y861472D01*
X474639Y861458D01*
X474783Y861345D01*
X474925Y861228D01*
X474941Y861220D01*
X474955Y861209D01*
X475119Y861126D01*
X475281Y861040D01*
X475298Y861035D01*
X475314Y861026D01*
X475491Y860977D01*
X475667Y860925D01*
X475685Y860923D01*
X475702Y860918D01*
X475885Y860905D01*
X476068Y860888D01*
X476086Y860890D01*
X476103Y860889D01*
X476285Y860912D01*
X476468Y860932D01*
X476485Y860937D01*
X476503Y860940D01*
X476676Y860998D01*
X476852Y861053D01*
X476868Y861062D01*
X476884Y861068D01*
X477044Y861160D01*
X477204Y861248D01*
X477218Y861260D01*
X477233Y861269D01*
X477486Y861483D01*
X484026Y868023D01*
X485801Y868023D01*
X485801Y859849D01*
X466299Y859849D01*
G37*
%LPD*%
%LPC*%
G36*
X466299Y846177D02*
X466299Y846177D01*
X466299Y854351D01*
X485801Y854351D01*
X485801Y846177D01*
X484026Y846177D01*
X477486Y852717D01*
X477472Y852728D01*
X477461Y852742D01*
X477317Y852855D01*
X477175Y852972D01*
X477159Y852980D01*
X477145Y852991D01*
X476981Y853075D01*
X476819Y853160D01*
X476802Y853165D01*
X476786Y853174D01*
X476609Y853223D01*
X476433Y853275D01*
X476415Y853277D01*
X476398Y853282D01*
X476215Y853295D01*
X476032Y853312D01*
X476014Y853310D01*
X475997Y853311D01*
X475815Y853288D01*
X475632Y853268D01*
X475615Y853263D01*
X475597Y853260D01*
X475423Y853202D01*
X475248Y853147D01*
X475232Y853138D01*
X475216Y853132D01*
X475056Y853040D01*
X474896Y852952D01*
X474882Y852940D01*
X474867Y852931D01*
X474614Y852717D01*
X468074Y846177D01*
X466299Y846177D01*
G37*
%LPD*%
%LPC*%
G36*
X547671Y256539D02*
X547671Y256539D01*
X548114Y257900D01*
X548840Y259325D01*
X549780Y260619D01*
X550911Y261750D01*
X552205Y262690D01*
X553630Y263416D01*
X555151Y263911D01*
X556730Y264161D01*
X562611Y264161D01*
X562611Y256539D01*
X547671Y256539D01*
G37*
%LPD*%
%LPC*%
G36*
X556730Y243839D02*
X556730Y243839D01*
X555151Y244089D01*
X553630Y244584D01*
X552205Y245310D01*
X550911Y246250D01*
X549780Y247381D01*
X548840Y248675D01*
X548114Y250100D01*
X547671Y251461D01*
X562611Y251461D01*
X562611Y243839D01*
X556730Y243839D01*
G37*
%LPD*%
%LPC*%
G36*
X129031Y357631D02*
X129031Y357631D01*
X129031Y364745D01*
X134324Y364745D01*
X135745Y364520D01*
X137114Y364075D01*
X138397Y363421D01*
X139561Y362575D01*
X140579Y361557D01*
X141425Y360393D01*
X142079Y359110D01*
X142524Y357741D01*
X142541Y357631D01*
X129031Y357631D01*
G37*
%LPD*%
%LPC*%
G36*
X167131Y757681D02*
X167131Y757681D01*
X167131Y771191D01*
X167241Y771174D01*
X168610Y770729D01*
X169893Y770075D01*
X171057Y769229D01*
X172075Y768211D01*
X172921Y767047D01*
X173575Y765764D01*
X174020Y764395D01*
X174245Y762974D01*
X174245Y757681D01*
X167131Y757681D01*
G37*
%LPD*%
%LPC*%
G36*
X111459Y357631D02*
X111459Y357631D01*
X111476Y357741D01*
X111921Y359110D01*
X112575Y360393D01*
X113421Y361557D01*
X114439Y362575D01*
X115603Y363421D01*
X116886Y364075D01*
X118255Y364520D01*
X119676Y364745D01*
X124969Y364745D01*
X124969Y357631D01*
X111459Y357631D01*
G37*
%LPD*%
%LPC*%
G36*
X167131Y753619D02*
X167131Y753619D01*
X174245Y753619D01*
X174245Y748326D01*
X174020Y746905D01*
X173575Y745536D01*
X172921Y744253D01*
X172075Y743089D01*
X171057Y742071D01*
X169893Y741225D01*
X168610Y740571D01*
X167241Y740126D01*
X167131Y740109D01*
X167131Y753619D01*
G37*
%LPD*%
%LPC*%
G36*
X155955Y757681D02*
X155955Y757681D01*
X155955Y762974D01*
X156180Y764395D01*
X156625Y765764D01*
X157279Y767047D01*
X158125Y768211D01*
X159143Y769229D01*
X160307Y770075D01*
X161590Y770729D01*
X162959Y771174D01*
X163069Y771191D01*
X163069Y757681D01*
X155955Y757681D01*
G37*
%LPD*%
%LPC*%
G36*
X129031Y346455D02*
X129031Y346455D01*
X129031Y353569D01*
X142541Y353569D01*
X142524Y353459D01*
X142079Y352090D01*
X141425Y350807D01*
X140579Y349643D01*
X139561Y348625D01*
X138397Y347779D01*
X137114Y347125D01*
X135745Y346680D01*
X134324Y346455D01*
X129031Y346455D01*
G37*
%LPD*%
%LPC*%
G36*
X162959Y740126D02*
X162959Y740126D01*
X161590Y740571D01*
X160307Y741225D01*
X159143Y742071D01*
X158125Y743089D01*
X157279Y744253D01*
X156625Y745536D01*
X156180Y746905D01*
X155955Y748326D01*
X155955Y753619D01*
X163069Y753619D01*
X163069Y740109D01*
X162959Y740126D01*
G37*
%LPD*%
%LPC*%
G36*
X119676Y346455D02*
X119676Y346455D01*
X118255Y346680D01*
X116886Y347125D01*
X115603Y347779D01*
X114439Y348625D01*
X113421Y349643D01*
X112575Y350807D01*
X111921Y352090D01*
X111476Y353459D01*
X111459Y353569D01*
X124969Y353569D01*
X124969Y346455D01*
X119676Y346455D01*
G37*
%LPD*%
%LPC*%
G36*
X287781Y294131D02*
X287781Y294131D01*
X287781Y306502D01*
X289044Y306092D01*
X290247Y305479D01*
X291340Y304685D01*
X292295Y303730D01*
X293089Y302637D01*
X293702Y301434D01*
X294119Y300149D01*
X294331Y298815D01*
X294331Y294131D01*
X287781Y294131D01*
G37*
%LPD*%
%LPC*%
G36*
X287781Y290069D02*
X287781Y290069D01*
X294331Y290069D01*
X294331Y285385D01*
X294119Y284051D01*
X293702Y282766D01*
X293089Y281563D01*
X292295Y280470D01*
X291340Y279515D01*
X290247Y278721D01*
X289044Y278108D01*
X287781Y277698D01*
X287781Y290069D01*
G37*
%LPD*%
%LPC*%
G36*
X277169Y294131D02*
X277169Y294131D01*
X277169Y298815D01*
X277381Y300149D01*
X277798Y301434D01*
X278411Y302637D01*
X279205Y303730D01*
X280160Y304685D01*
X281253Y305479D01*
X282456Y306092D01*
X283719Y306502D01*
X283719Y294131D01*
X277169Y294131D01*
G37*
%LPD*%
%LPC*%
G36*
X282456Y278108D02*
X282456Y278108D01*
X281253Y278721D01*
X280160Y279515D01*
X279205Y280470D01*
X278411Y281563D01*
X277798Y282766D01*
X277381Y284051D01*
X277169Y285385D01*
X277169Y290069D01*
X283719Y290069D01*
X283719Y277698D01*
X282456Y278108D01*
G37*
%LPD*%
%LPC*%
G36*
X371449Y21649D02*
X371449Y21649D01*
X371449Y29823D01*
X377417Y29823D01*
X378063Y29650D01*
X378642Y29315D01*
X379115Y28842D01*
X379450Y28263D01*
X379623Y27617D01*
X379623Y21649D01*
X371449Y21649D01*
G37*
%LPD*%
%LPC*%
G36*
X492099Y542349D02*
X492099Y542349D01*
X492099Y550523D01*
X498067Y550523D01*
X498713Y550350D01*
X499292Y550015D01*
X499765Y549542D01*
X500100Y548963D01*
X500273Y548317D01*
X500273Y542349D01*
X492099Y542349D01*
G37*
%LPD*%
%LPC*%
G36*
X174599Y21649D02*
X174599Y21649D01*
X174599Y29823D01*
X180567Y29823D01*
X181213Y29650D01*
X181792Y29315D01*
X182265Y28842D01*
X182600Y28263D01*
X182773Y27617D01*
X182773Y21649D01*
X174599Y21649D01*
G37*
%LPD*%
%LPC*%
G36*
X358749Y396299D02*
X358749Y396299D01*
X358749Y404473D01*
X364717Y404473D01*
X365363Y404300D01*
X365942Y403965D01*
X366415Y403492D01*
X366750Y402913D01*
X366923Y402267D01*
X366923Y396299D01*
X358749Y396299D01*
G37*
%LPD*%
%LPC*%
G36*
X358749Y390801D02*
X358749Y390801D01*
X366923Y390801D01*
X366923Y384833D01*
X366750Y384187D01*
X366415Y383608D01*
X365942Y383135D01*
X365363Y382800D01*
X364717Y382627D01*
X358749Y382627D01*
X358749Y390801D01*
G37*
%LPD*%
%LPC*%
G36*
X345077Y396299D02*
X345077Y396299D01*
X345077Y402267D01*
X345250Y402913D01*
X345585Y403492D01*
X346058Y403965D01*
X346637Y404300D01*
X347283Y404473D01*
X353251Y404473D01*
X353251Y396299D01*
X345077Y396299D01*
G37*
%LPD*%
%LPC*%
G36*
X160927Y21649D02*
X160927Y21649D01*
X160927Y27617D01*
X161100Y28263D01*
X161435Y28842D01*
X161908Y29315D01*
X162487Y29650D01*
X163133Y29823D01*
X169101Y29823D01*
X169101Y21649D01*
X160927Y21649D01*
G37*
%LPD*%
%LPC*%
G36*
X492099Y528677D02*
X492099Y528677D01*
X492099Y536851D01*
X500273Y536851D01*
X500273Y530883D01*
X500100Y530237D01*
X499765Y529658D01*
X499292Y529185D01*
X498713Y528850D01*
X498067Y528677D01*
X492099Y528677D01*
G37*
%LPD*%
%LPC*%
G36*
X357777Y21649D02*
X357777Y21649D01*
X357777Y27617D01*
X357950Y28263D01*
X358285Y28842D01*
X358758Y29315D01*
X359337Y29650D01*
X359983Y29823D01*
X365951Y29823D01*
X365951Y21649D01*
X357777Y21649D01*
G37*
%LPD*%
%LPC*%
G36*
X478427Y542349D02*
X478427Y542349D01*
X478427Y548317D01*
X478600Y548963D01*
X478935Y549542D01*
X479408Y550015D01*
X479987Y550350D01*
X480633Y550523D01*
X486601Y550523D01*
X486601Y542349D01*
X478427Y542349D01*
G37*
%LPD*%
%LPC*%
G36*
X347283Y382627D02*
X347283Y382627D01*
X346637Y382800D01*
X346058Y383135D01*
X345585Y383608D01*
X345250Y384187D01*
X345077Y384833D01*
X345077Y390801D01*
X353251Y390801D01*
X353251Y382627D01*
X347283Y382627D01*
G37*
%LPD*%
%LPC*%
G36*
X480633Y528677D02*
X480633Y528677D01*
X479987Y528850D01*
X479408Y529185D01*
X478935Y529658D01*
X478600Y530237D01*
X478427Y530883D01*
X478427Y536851D01*
X486601Y536851D01*
X486601Y528677D01*
X480633Y528677D01*
G37*
%LPD*%
%LPC*%
G36*
X212299Y428049D02*
X212299Y428049D01*
X212299Y436223D01*
X214074Y436223D01*
X220473Y429824D01*
X220473Y428049D01*
X212299Y428049D01*
G37*
%LPD*%
%LPC*%
G36*
X491299Y859849D02*
X491299Y859849D01*
X491299Y868023D01*
X493074Y868023D01*
X499473Y861624D01*
X499473Y859849D01*
X491299Y859849D01*
G37*
%LPD*%
%LPC*%
G36*
X198627Y428049D02*
X198627Y428049D01*
X198627Y429824D01*
X205026Y436223D01*
X206801Y436223D01*
X206801Y428049D01*
X198627Y428049D01*
G37*
%LPD*%
%LPC*%
G36*
X452627Y859849D02*
X452627Y859849D01*
X452627Y861624D01*
X459026Y868023D01*
X460801Y868023D01*
X460801Y859849D01*
X452627Y859849D01*
G37*
%LPD*%
%LPC*%
G36*
X491299Y846177D02*
X491299Y846177D01*
X491299Y854351D01*
X499473Y854351D01*
X499473Y852576D01*
X493074Y846177D01*
X491299Y846177D01*
G37*
%LPD*%
%LPC*%
G36*
X212299Y414377D02*
X212299Y414377D01*
X212299Y422551D01*
X220473Y422551D01*
X220473Y420776D01*
X214074Y414377D01*
X212299Y414377D01*
G37*
%LPD*%
%LPC*%
G36*
X205026Y414377D02*
X205026Y414377D01*
X198627Y420776D01*
X198627Y422551D01*
X206801Y422551D01*
X206801Y414377D01*
X205026Y414377D01*
G37*
%LPD*%
%LPC*%
G36*
X459026Y846177D02*
X459026Y846177D01*
X452627Y852576D01*
X452627Y854351D01*
X460801Y854351D01*
X460801Y846177D01*
X459026Y846177D01*
G37*
%LPD*%
%LPC*%
G36*
X104349Y731499D02*
X104349Y731499D01*
X104349Y739203D01*
X105742Y738750D01*
X107256Y737979D01*
X108630Y736981D01*
X109831Y735780D01*
X110829Y734406D01*
X111600Y732892D01*
X112053Y731499D01*
X104349Y731499D01*
G37*
%LPD*%
%LPC*%
G36*
X529799Y26649D02*
X529799Y26649D01*
X529799Y34353D01*
X531192Y33900D01*
X532706Y33129D01*
X534080Y32131D01*
X535281Y30930D01*
X536279Y29556D01*
X537050Y28042D01*
X537503Y26649D01*
X529799Y26649D01*
G37*
%LPD*%
%LPC*%
G36*
X104349Y726001D02*
X104349Y726001D01*
X112053Y726001D01*
X111600Y724608D01*
X110829Y723094D01*
X109831Y721720D01*
X108630Y720519D01*
X107256Y719521D01*
X105742Y718750D01*
X104349Y718297D01*
X104349Y726001D01*
G37*
%LPD*%
%LPC*%
G36*
X516597Y26649D02*
X516597Y26649D01*
X517050Y28042D01*
X517821Y29556D01*
X518819Y30930D01*
X520020Y32131D01*
X521394Y33129D01*
X522908Y33900D01*
X524301Y34353D01*
X524301Y26649D01*
X516597Y26649D01*
G37*
%LPD*%
%LPC*%
G36*
X91147Y731499D02*
X91147Y731499D01*
X91600Y732892D01*
X92371Y734406D01*
X93369Y735780D01*
X94570Y736981D01*
X95944Y737979D01*
X97458Y738750D01*
X98851Y739203D01*
X98851Y731499D01*
X91147Y731499D01*
G37*
%LPD*%
%LPC*%
G36*
X97458Y718750D02*
X97458Y718750D01*
X95944Y719521D01*
X94570Y720519D01*
X93369Y721720D01*
X92371Y723094D01*
X91600Y724608D01*
X91147Y726001D01*
X98851Y726001D01*
X98851Y718297D01*
X97458Y718750D01*
G37*
%LPD*%
%LPC*%
G36*
X52831Y586231D02*
X52831Y586231D01*
X52831Y593345D01*
X54588Y593345D01*
X59945Y587988D01*
X59945Y586231D01*
X52831Y586231D01*
G37*
%LPD*%
%LPC*%
G36*
X52831Y408431D02*
X52831Y408431D01*
X52831Y415545D01*
X54588Y415545D01*
X59945Y410188D01*
X59945Y408431D01*
X52831Y408431D01*
G37*
%LPD*%
%LPC*%
G36*
X243331Y871981D02*
X243331Y871981D01*
X243331Y879095D01*
X245088Y879095D01*
X250445Y873738D01*
X250445Y871981D01*
X243331Y871981D01*
G37*
%LPD*%
%LPC*%
G36*
X522731Y757681D02*
X522731Y757681D01*
X522731Y764795D01*
X524488Y764795D01*
X529845Y759438D01*
X529845Y757681D01*
X522731Y757681D01*
G37*
%LPD*%
%LPC*%
G36*
X287781Y186181D02*
X287781Y186181D01*
X287781Y193295D01*
X289538Y193295D01*
X294895Y187938D01*
X294895Y186181D01*
X287781Y186181D01*
G37*
%LPD*%
%LPC*%
G36*
X230631Y230631D02*
X230631Y230631D01*
X230631Y237745D01*
X232388Y237745D01*
X237745Y232388D01*
X237745Y230631D01*
X230631Y230631D01*
G37*
%LPD*%
%LPC*%
G36*
X276605Y186181D02*
X276605Y186181D01*
X276605Y187938D01*
X281962Y193295D01*
X283719Y193295D01*
X283719Y186181D01*
X276605Y186181D01*
G37*
%LPD*%
%LPC*%
G36*
X41655Y586231D02*
X41655Y586231D01*
X41655Y587988D01*
X47012Y593345D01*
X48769Y593345D01*
X48769Y586231D01*
X41655Y586231D01*
G37*
%LPD*%
%LPC*%
G36*
X232155Y871981D02*
X232155Y871981D01*
X232155Y873738D01*
X237512Y879095D01*
X239269Y879095D01*
X239269Y871981D01*
X232155Y871981D01*
G37*
%LPD*%
%LPC*%
G36*
X511555Y757681D02*
X511555Y757681D01*
X511555Y759438D01*
X516912Y764795D01*
X518669Y764795D01*
X518669Y757681D01*
X511555Y757681D01*
G37*
%LPD*%
%LPC*%
G36*
X41655Y408431D02*
X41655Y408431D01*
X41655Y410188D01*
X47012Y415545D01*
X48769Y415545D01*
X48769Y408431D01*
X41655Y408431D01*
G37*
%LPD*%
%LPC*%
G36*
X522731Y746505D02*
X522731Y746505D01*
X522731Y753619D01*
X529845Y753619D01*
X529845Y751862D01*
X524488Y746505D01*
X522731Y746505D01*
G37*
%LPD*%
%LPC*%
G36*
X52831Y575055D02*
X52831Y575055D01*
X52831Y582169D01*
X59945Y582169D01*
X59945Y580412D01*
X54588Y575055D01*
X52831Y575055D01*
G37*
%LPD*%
%LPC*%
G36*
X243331Y860805D02*
X243331Y860805D01*
X243331Y867919D01*
X250445Y867919D01*
X250445Y866162D01*
X245088Y860805D01*
X243331Y860805D01*
G37*
%LPD*%
%LPC*%
G36*
X52831Y397255D02*
X52831Y397255D01*
X52831Y404369D01*
X59945Y404369D01*
X59945Y402612D01*
X54588Y397255D01*
X52831Y397255D01*
G37*
%LPD*%
%LPC*%
G36*
X287781Y175005D02*
X287781Y175005D01*
X287781Y182119D01*
X294895Y182119D01*
X294895Y180362D01*
X289538Y175005D01*
X287781Y175005D01*
G37*
%LPD*%
%LPC*%
G36*
X230631Y219455D02*
X230631Y219455D01*
X230631Y226569D01*
X237745Y226569D01*
X237745Y224812D01*
X232388Y219455D01*
X230631Y219455D01*
G37*
%LPD*%
%LPC*%
G36*
X281962Y175005D02*
X281962Y175005D01*
X276605Y180362D01*
X276605Y182119D01*
X283719Y182119D01*
X283719Y175005D01*
X281962Y175005D01*
G37*
%LPD*%
%LPC*%
G36*
X516912Y746505D02*
X516912Y746505D01*
X511555Y751862D01*
X511555Y753619D01*
X518669Y753619D01*
X518669Y746505D01*
X516912Y746505D01*
G37*
%LPD*%
%LPC*%
G36*
X47012Y397255D02*
X47012Y397255D01*
X41655Y402612D01*
X41655Y404369D01*
X48769Y404369D01*
X48769Y397255D01*
X47012Y397255D01*
G37*
%LPD*%
%LPC*%
G36*
X47012Y575055D02*
X47012Y575055D01*
X41655Y580412D01*
X41655Y582169D01*
X48769Y582169D01*
X48769Y575055D01*
X47012Y575055D01*
G37*
%LPD*%
%LPC*%
G36*
X237512Y860805D02*
X237512Y860805D01*
X232155Y866162D01*
X232155Y867919D01*
X239269Y867919D01*
X239269Y860805D01*
X237512Y860805D01*
G37*
%LPD*%
D10*
X438550Y857100D03*
D11*
X463550Y857100D03*
X488550Y857100D03*
D12*
X508550Y927100D03*
X418550Y927100D03*
D10*
X489350Y539600D03*
D11*
X514350Y539600D03*
X539350Y539600D03*
D12*
X559350Y609600D03*
X469350Y609600D03*
D10*
X184550Y425300D03*
D11*
X209550Y425300D03*
X234550Y425300D03*
D12*
X254550Y495300D03*
X164550Y495300D03*
D10*
X317900Y603100D03*
D11*
X342900Y603100D03*
X367900Y603100D03*
D12*
X387900Y673100D03*
X297900Y673100D03*
D10*
X356000Y393550D03*
D11*
X381000Y393550D03*
X406000Y393550D03*
D12*
X426000Y463550D03*
X336000Y463550D03*
D10*
X368700Y18900D03*
D11*
X393700Y18900D03*
X418700Y18900D03*
D12*
X438700Y88900D03*
X348700Y88900D03*
D13*
X101600Y843750D03*
X101600Y758750D03*
X101600Y728750D03*
X63500Y138900D03*
X63500Y53900D03*
X63500Y23900D03*
X527050Y138900D03*
X527050Y53900D03*
X527050Y23900D03*
D10*
X178200Y895200D03*
D11*
X203200Y895200D03*
X228200Y895200D03*
D12*
X248200Y965200D03*
X158200Y965200D03*
D14*
X89726Y448310D02*
X62675Y448310D01*
X62675Y495300D02*
X89726Y495300D01*
X89726Y542290D02*
X62675Y542290D01*
D15*
X102000Y259950D03*
X102000Y209950D03*
X152000Y209950D03*
X152000Y259950D03*
D16*
X387350Y368300D03*
X311150Y368300D03*
X101600Y406400D03*
X50800Y406400D03*
D17*
X215900Y831850D03*
X215900Y755650D03*
D16*
X520700Y508000D03*
X444500Y508000D03*
D17*
X285750Y927100D03*
X285750Y850900D03*
D16*
X241300Y869950D03*
X165100Y869950D03*
D18*
X292100Y793750D03*
X368300Y793750D03*
D16*
X520700Y755650D03*
X444500Y755650D03*
X101600Y584200D03*
X50800Y584200D03*
D18*
X127000Y381000D03*
X203200Y381000D03*
D19*
X557530Y254000D02*
X572770Y254000D01*
X572770Y279400D02*
X557530Y279400D01*
X557530Y304800D02*
X572770Y304800D01*
X572770Y330200D02*
X557530Y330200D01*
D20*
X336550Y298140D02*
X336550Y286060D01*
X311150Y286060D02*
X311150Y298140D01*
X285750Y298140D02*
X285750Y286060D01*
X260350Y286060D02*
X260350Y298140D01*
X260350Y221940D02*
X260350Y209860D01*
X285750Y209860D02*
X285750Y221940D01*
X311150Y221940D02*
X311150Y209860D01*
X336550Y209860D02*
X336550Y221940D01*
D17*
X228600Y279400D03*
X228600Y228600D03*
D16*
X336550Y184150D03*
X285750Y184150D03*
D17*
X368300Y292100D03*
X368300Y215900D03*
D21*
X393700Y215900D03*
X393700Y292100D03*
D16*
X387350Y323850D03*
X311150Y323850D03*
D19*
X557530Y844550D02*
X572770Y844550D01*
X572770Y869950D02*
X557530Y869950D01*
X557530Y895350D02*
X572770Y895350D01*
X572770Y920750D02*
X557530Y920750D01*
X557530Y946150D02*
X572770Y946150D01*
X572770Y971550D02*
X557530Y971550D01*
D14*
X502476Y245110D02*
X475425Y245110D01*
X475425Y292100D02*
X502476Y292100D01*
X502476Y339090D02*
X475425Y339090D01*
D10*
X171850Y18900D03*
D11*
X196850Y18900D03*
X221850Y18900D03*
D12*
X241850Y88900D03*
X151850Y88900D03*
D22*
X133604Y330200D02*
X120396Y330200D01*
X196596Y330200D02*
X209804Y330200D01*
X209804Y355600D02*
X196596Y355600D01*
X133604Y355600D02*
X120396Y355600D01*
D18*
X457200Y381000D03*
X508000Y381000D03*
X457200Y203200D03*
X508000Y203200D03*
D19*
X33020Y844550D02*
X17780Y844550D01*
X17780Y869950D02*
X33020Y869950D01*
X33020Y895350D02*
X17780Y895350D01*
X17780Y920750D02*
X33020Y920750D01*
X33020Y946150D02*
X17780Y946150D01*
X17780Y971550D02*
X33020Y971550D01*
D22*
X190500Y762254D02*
X190500Y749046D01*
X190500Y825246D02*
X190500Y838454D01*
X165100Y838454D02*
X165100Y825246D01*
X165100Y762254D02*
X165100Y749046D01*
D23*
X31750Y736600D03*
X88900Y933450D03*
D24*
X31750Y622300D02*
X31750Y361950D01*
X63500Y330200D01*
X101600Y330200D01*
X127000Y330200D01*
X69850Y660400D02*
X190500Y660400D01*
X69850Y660400D02*
X31750Y622300D01*
D23*
X190500Y660400D03*
X101600Y330200D03*
D25*
X190500Y831850D02*
X215900Y831850D01*
X190500Y831850D02*
X165100Y831850D01*
X146050Y831850D01*
X133350Y844550D01*
X101600Y844550D01*
X101600Y843750D01*
X215900Y755650D02*
X368300Y755650D01*
X368300Y793750D01*
X368300Y755650D02*
X444500Y755650D01*
X203200Y673100D02*
X152400Y673100D01*
X114300Y933450D02*
X101600Y946150D01*
X25400Y946150D01*
D23*
X114300Y933450D03*
X203200Y673100D03*
X152400Y673100D03*
D25*
X190500Y635000D02*
X63500Y635000D01*
D23*
X63500Y635000D03*
X190500Y635000D03*
D25*
X317500Y857250D02*
X254000Y920750D01*
X317500Y857250D02*
X438150Y857250D01*
X76200Y844550D02*
X25400Y844550D01*
X76200Y920750D02*
X254000Y920750D01*
D23*
X76200Y844550D03*
X76200Y920750D03*
X438150Y857250D03*
D25*
X400050Y38100D02*
X419100Y18900D01*
X400050Y38100D02*
X19050Y38100D01*
D23*
X19050Y38100D03*
X419100Y18900D03*
D25*
X95250Y495300D02*
X171450Y571500D01*
X95250Y495300D02*
X76200Y495300D01*
X171450Y571500D02*
X514350Y571500D01*
D23*
X514350Y571500D03*
D25*
X215900Y298450D02*
X215900Y158750D01*
D23*
X215900Y298450D03*
X215900Y158750D03*
D24*
X228600Y279400D02*
X241300Y292100D01*
X260350Y292100D01*
X552450Y279400D02*
X565150Y279400D01*
X552450Y279400D02*
X533400Y260350D01*
X533400Y203200D01*
X514350Y184150D01*
X381000Y184150D01*
X355600Y158750D01*
X266700Y158750D01*
X247650Y177800D01*
X247650Y234950D01*
X228600Y254000D01*
X228600Y279400D01*
X336550Y215900D02*
X336550Y184150D01*
X336550Y215900D02*
X336550Y234950D01*
X355600Y254000D01*
X393700Y254000D01*
X412750Y273050D01*
X412750Y317500D01*
D23*
X412750Y317500D03*
D25*
X508000Y971550D02*
X565150Y971550D01*
X508000Y971550D02*
X419100Y882650D01*
X419100Y558800D02*
X457200Y520700D01*
X457200Y412750D02*
X425450Y381000D01*
X425450Y292100D01*
X457200Y412750D02*
X457200Y520700D01*
D23*
X425450Y292100D03*
X419100Y558800D03*
X419100Y882650D03*
D25*
X539350Y539750D02*
X539350Y539600D01*
X539350Y539750D02*
X539483Y539747D01*
X539617Y539747D01*
X539750Y539750D01*
X539750Y571500D01*
X527050Y584200D01*
X527050Y654050D01*
X552450Y679450D01*
X552450Y806450D01*
X539750Y819150D01*
X539750Y882650D01*
X552450Y895350D01*
X565150Y895350D01*
X317500Y647700D02*
X342900Y622300D01*
X342900Y603100D01*
X107950Y895350D02*
X25400Y895350D01*
X107950Y895350D02*
X152400Y850900D01*
X177800Y850900D01*
X177800Y647700D02*
X317500Y647700D01*
D23*
X177800Y850900D03*
X177800Y647700D03*
D25*
X438150Y222250D02*
X457200Y203200D01*
X438150Y222250D02*
X438150Y349250D01*
X438150Y361950D02*
X457200Y381000D01*
X438150Y361950D02*
X438150Y349250D01*
X317900Y603100D02*
X139700Y603100D01*
X114300Y908050D02*
X63500Y908050D01*
X50800Y920750D01*
X25400Y920750D01*
D23*
X139700Y603100D03*
X114300Y908050D03*
X438150Y349250D03*
D25*
X203200Y355600D02*
X203200Y381000D01*
X203200Y355600D02*
X203200Y330200D01*
X222250Y50800D02*
X120650Y50800D01*
X203200Y171450D02*
X203200Y330200D01*
D23*
X120650Y50800D03*
X222250Y50800D03*
X203200Y171450D03*
M02*
