M48
;GenerationSoftware,Autodesk,EAGLE,9.6.2*%
;CreationDate,2022-04-22T14:08:25Z*%
FMAT,2
ICI,OFF
METRIC,TZ,000.000
T9C0.350
T8C0.700
T7C0.813
T6C1.000
T5C1.016
T4C1.100
T3C1.803
T2C2.100
T1C3.200
%
G90
M71
T1
X55880Y49530
X5080Y19050
T2
X15820Y96520
X24820Y96520
X34870Y8890
X43870Y8890
X33600Y46355
X15185Y8890
X24185Y8890
X42600Y46355
X29790Y67310
X38790Y67310
X16455Y49530
X25455Y49530
X46935Y60960
X55935Y60960
X41855Y92710
X50855Y92710
T3
X7620Y49530
X7620Y44831
X48895Y33909
X48895Y29210
X48895Y24511
X7620Y54229
T4
X53935Y53960
X35600Y39355
X22820Y89520
X20320Y89520
X17820Y89520
X52705Y2390
X52705Y5390
X43855Y85710
X46355Y85710
X48855Y85710
X52705Y13890
X6350Y2390
X48935Y53960
X51435Y53960
X6350Y5390
X6350Y13890
X10160Y72875
X18455Y42530
X20955Y42530
X23455Y42530
X10160Y75875
X10160Y84375
X31790Y60310
X34290Y60310
X36790Y60310
X17185Y1890
X19685Y1890
X41870Y1890
X38100Y39355
X40600Y39355
X22185Y1890
X39370Y1890
X36870Y1890
T5
X2540Y84455
X2540Y92075
X2540Y86995
X2540Y89535
X56515Y97155
X56515Y94615
X56515Y92075
X56515Y89535
X56515Y25400
X56515Y86995
X56515Y84455
X56515Y33020
X56515Y30480
X56515Y27940
X2540Y94615
X2540Y97155
T6
X15200Y25995
X10200Y20995
X15200Y20995
X10200Y25995
T7
X16510Y75565
X28575Y18415
X16510Y83185
X19050Y83185
X19050Y75565
X38735Y36830
X31115Y36830
X10160Y40640
X5080Y40640
X21590Y83185
X21590Y75565
X52070Y50800
X44450Y50800
X28575Y92710
X28575Y85090
X24130Y86995
X16510Y86995
X29210Y79375
X36830Y79375
X52070Y75565
X44450Y75565
X10160Y58420
X5080Y58420
X12700Y38100
X20320Y38100
X50800Y20320
X45720Y20320
X50800Y38100
X45720Y38100
X12700Y33020
X20320Y33020
X20320Y35560
X31115Y32385
X38735Y32385
X39370Y29210
X39370Y21590
X36830Y21590
X22860Y27940
X22860Y22860
X33655Y18415
X12700Y35560
X36830Y29210
T8
X33655Y21590
X31115Y21590
X28575Y21590
X26035Y21590
X26035Y29210
X28575Y29210
X31115Y29210
X33655Y29210
T9
X41275Y31750
X21590Y15875
X21590Y29845
X51435Y57150
X41910Y1890
X1905Y3810
X43815Y85725
X7620Y92075
X7620Y84455
X19050Y63500
X6350Y63500
X42545Y29210
X41910Y55880
X41910Y88265
X20320Y17145
X17780Y85090
X17780Y64770
X13970Y60310
X11430Y90805
X15240Y67310
X20320Y67310
X11430Y93345
X10160Y33020
X19050Y66040
X8890Y93345
X43815Y34925
X12065Y5080
X22225Y5080
X3175Y73660
M30