G04 EAGLE Gerber RS-274X export*
G75*
%MOMM*%
%FSLAX34Y34*%
%LPD*%
%INSoldermask Bottom*%
%IPPOS*%
%AMOC8*
5,1,8,0,0,1.08239X$1,22.5*%
G01*
%ADD10C,3.403600*%
%ADD11R,1.879600X1.879600*%
%ADD12P,2.034460X8X292.500000*%
%ADD13R,3.319200X3.319200*%
%ADD14C,1.853200*%
%ADD15C,2.908300*%
%ADD16C,1.711200*%
%ADD17P,1.649562X8X202.500000*%
%ADD18P,1.649562X8X292.500000*%
%ADD19P,1.649562X8X22.500000*%
%ADD20C,1.727200*%
%ADD21C,1.411200*%
%ADD22P,1.649562X8X112.500000*%
%ADD23C,1.524000*%
%ADD24C,0.959600*%


D10*
X50800Y190500D03*
X558800Y495300D03*
D11*
X438550Y857100D03*
D12*
X463550Y857100D03*
X488550Y857100D03*
D13*
X508550Y927100D03*
X418550Y927100D03*
D11*
X489350Y539600D03*
D12*
X514350Y539600D03*
X539350Y539600D03*
D13*
X559350Y609600D03*
X469350Y609600D03*
D11*
X184550Y425300D03*
D12*
X209550Y425300D03*
X234550Y425300D03*
D13*
X254550Y495300D03*
X164550Y495300D03*
D11*
X317900Y603100D03*
D12*
X342900Y603100D03*
X367900Y603100D03*
D13*
X387900Y673100D03*
X297900Y673100D03*
D11*
X356000Y393550D03*
D12*
X381000Y393550D03*
X406000Y393550D03*
D13*
X426000Y463550D03*
X336000Y463550D03*
D11*
X368700Y18900D03*
D12*
X393700Y18900D03*
X418700Y18900D03*
D13*
X438700Y88900D03*
X348700Y88900D03*
D14*
X101600Y843750D03*
X101600Y758750D03*
X101600Y728750D03*
X63500Y138900D03*
X63500Y53900D03*
X63500Y23900D03*
X527050Y138900D03*
X527050Y53900D03*
X527050Y23900D03*
D11*
X178200Y895200D03*
D12*
X203200Y895200D03*
X228200Y895200D03*
D13*
X248200Y965200D03*
X158200Y965200D03*
D15*
X89726Y448310D02*
X62675Y448310D01*
X62675Y495300D02*
X89726Y495300D01*
X89726Y542290D02*
X62675Y542290D01*
D16*
X102000Y259950D03*
X102000Y209950D03*
X152000Y209950D03*
X152000Y259950D03*
D17*
X387350Y368300D03*
X311150Y368300D03*
X101600Y406400D03*
X50800Y406400D03*
D18*
X215900Y831850D03*
X215900Y755650D03*
D17*
X520700Y508000D03*
X444500Y508000D03*
D18*
X285750Y927100D03*
X285750Y850900D03*
D17*
X241300Y869950D03*
X165100Y869950D03*
D19*
X292100Y793750D03*
X368300Y793750D03*
D17*
X520700Y755650D03*
X444500Y755650D03*
X101600Y584200D03*
X50800Y584200D03*
D19*
X127000Y381000D03*
X203200Y381000D03*
D20*
X557530Y254000D02*
X572770Y254000D01*
X572770Y279400D02*
X557530Y279400D01*
X557530Y304800D02*
X572770Y304800D01*
X572770Y330200D02*
X557530Y330200D01*
D21*
X336550Y298140D02*
X336550Y286060D01*
X311150Y286060D02*
X311150Y298140D01*
X285750Y298140D02*
X285750Y286060D01*
X260350Y286060D02*
X260350Y298140D01*
X260350Y221940D02*
X260350Y209860D01*
X285750Y209860D02*
X285750Y221940D01*
X311150Y221940D02*
X311150Y209860D01*
X336550Y209860D02*
X336550Y221940D01*
D18*
X228600Y279400D03*
X228600Y228600D03*
D17*
X336550Y184150D03*
X285750Y184150D03*
D18*
X368300Y292100D03*
X368300Y215900D03*
D22*
X393700Y215900D03*
X393700Y292100D03*
D17*
X387350Y323850D03*
X311150Y323850D03*
D20*
X557530Y844550D02*
X572770Y844550D01*
X572770Y869950D02*
X557530Y869950D01*
X557530Y895350D02*
X572770Y895350D01*
X572770Y920750D02*
X557530Y920750D01*
X557530Y946150D02*
X572770Y946150D01*
X572770Y971550D02*
X557530Y971550D01*
D15*
X502476Y245110D02*
X475425Y245110D01*
X475425Y292100D02*
X502476Y292100D01*
X502476Y339090D02*
X475425Y339090D01*
D11*
X171850Y18900D03*
D12*
X196850Y18900D03*
X221850Y18900D03*
D13*
X241850Y88900D03*
X151850Y88900D03*
D23*
X133604Y330200D02*
X120396Y330200D01*
X196596Y330200D02*
X209804Y330200D01*
X209804Y355600D02*
X196596Y355600D01*
X133604Y355600D02*
X120396Y355600D01*
D19*
X457200Y381000D03*
X508000Y381000D03*
X457200Y203200D03*
X508000Y203200D03*
D20*
X33020Y844550D02*
X17780Y844550D01*
X17780Y869950D02*
X33020Y869950D01*
X33020Y895350D02*
X17780Y895350D01*
X17780Y920750D02*
X33020Y920750D01*
X33020Y946150D02*
X17780Y946150D01*
X17780Y971550D02*
X33020Y971550D01*
D23*
X190500Y762254D02*
X190500Y749046D01*
X190500Y825246D02*
X190500Y838454D01*
X165100Y838454D02*
X165100Y825246D01*
X165100Y762254D02*
X165100Y749046D01*
D24*
X31750Y736600D03*
X88900Y933450D03*
X190500Y660400D03*
X101600Y330200D03*
X114300Y933450D03*
X203200Y673100D03*
X152400Y673100D03*
X63500Y635000D03*
X190500Y635000D03*
X76200Y844550D03*
X76200Y920750D03*
X438150Y857250D03*
X19050Y38100D03*
X419100Y18900D03*
X514350Y571500D03*
X215900Y298450D03*
X215900Y158750D03*
X412750Y317500D03*
X425450Y292100D03*
X419100Y558800D03*
X419100Y882650D03*
X177800Y850900D03*
X177800Y647700D03*
X139700Y603100D03*
X114300Y908050D03*
X438150Y349250D03*
X120650Y50800D03*
X222250Y50800D03*
X203200Y171450D03*
M02*
