G04 EAGLE Gerber RS-274X export*
G75*
%MOMM*%
%FSLAX34Y34*%
%LPD*%
%INBoard Outline*%
%IPPOS*%
%AMOC8*
5,1,8,0,0,1.08239X$1,22.5*%
G01*
%ADD10C,0.000000*%
%ADD11C,0.254000*%


D10*
X0Y0D02*
X590550Y0D01*
X590550Y990600D01*
X0Y990500D01*
X0Y0D01*
X34798Y190500D02*
X34803Y190893D01*
X34817Y191285D01*
X34841Y191677D01*
X34875Y192068D01*
X34918Y192459D01*
X34971Y192848D01*
X35034Y193236D01*
X35105Y193622D01*
X35187Y194006D01*
X35278Y194388D01*
X35378Y194768D01*
X35487Y195145D01*
X35606Y195520D01*
X35733Y195891D01*
X35870Y196259D01*
X36016Y196624D01*
X36171Y196985D01*
X36334Y197342D01*
X36507Y197695D01*
X36687Y198043D01*
X36877Y198387D01*
X37075Y198727D01*
X37281Y199061D01*
X37495Y199390D01*
X37717Y199714D01*
X37947Y200032D01*
X38185Y200345D01*
X38430Y200652D01*
X38683Y200952D01*
X38943Y201246D01*
X39211Y201534D01*
X39485Y201815D01*
X39766Y202089D01*
X40054Y202357D01*
X40348Y202617D01*
X40648Y202870D01*
X40955Y203115D01*
X41268Y203353D01*
X41586Y203583D01*
X41910Y203805D01*
X42239Y204019D01*
X42573Y204225D01*
X42913Y204423D01*
X43257Y204613D01*
X43605Y204793D01*
X43958Y204966D01*
X44315Y205129D01*
X44676Y205284D01*
X45041Y205430D01*
X45409Y205567D01*
X45780Y205694D01*
X46155Y205813D01*
X46532Y205922D01*
X46912Y206022D01*
X47294Y206113D01*
X47678Y206195D01*
X48064Y206266D01*
X48452Y206329D01*
X48841Y206382D01*
X49232Y206425D01*
X49623Y206459D01*
X50015Y206483D01*
X50407Y206497D01*
X50800Y206502D01*
X51193Y206497D01*
X51585Y206483D01*
X51977Y206459D01*
X52368Y206425D01*
X52759Y206382D01*
X53148Y206329D01*
X53536Y206266D01*
X53922Y206195D01*
X54306Y206113D01*
X54688Y206022D01*
X55068Y205922D01*
X55445Y205813D01*
X55820Y205694D01*
X56191Y205567D01*
X56559Y205430D01*
X56924Y205284D01*
X57285Y205129D01*
X57642Y204966D01*
X57995Y204793D01*
X58343Y204613D01*
X58687Y204423D01*
X59027Y204225D01*
X59361Y204019D01*
X59690Y203805D01*
X60014Y203583D01*
X60332Y203353D01*
X60645Y203115D01*
X60952Y202870D01*
X61252Y202617D01*
X61546Y202357D01*
X61834Y202089D01*
X62115Y201815D01*
X62389Y201534D01*
X62657Y201246D01*
X62917Y200952D01*
X63170Y200652D01*
X63415Y200345D01*
X63653Y200032D01*
X63883Y199714D01*
X64105Y199390D01*
X64319Y199061D01*
X64525Y198727D01*
X64723Y198387D01*
X64913Y198043D01*
X65093Y197695D01*
X65266Y197342D01*
X65429Y196985D01*
X65584Y196624D01*
X65730Y196259D01*
X65867Y195891D01*
X65994Y195520D01*
X66113Y195145D01*
X66222Y194768D01*
X66322Y194388D01*
X66413Y194006D01*
X66495Y193622D01*
X66566Y193236D01*
X66629Y192848D01*
X66682Y192459D01*
X66725Y192068D01*
X66759Y191677D01*
X66783Y191285D01*
X66797Y190893D01*
X66802Y190500D01*
X66797Y190107D01*
X66783Y189715D01*
X66759Y189323D01*
X66725Y188932D01*
X66682Y188541D01*
X66629Y188152D01*
X66566Y187764D01*
X66495Y187378D01*
X66413Y186994D01*
X66322Y186612D01*
X66222Y186232D01*
X66113Y185855D01*
X65994Y185480D01*
X65867Y185109D01*
X65730Y184741D01*
X65584Y184376D01*
X65429Y184015D01*
X65266Y183658D01*
X65093Y183305D01*
X64913Y182957D01*
X64723Y182613D01*
X64525Y182273D01*
X64319Y181939D01*
X64105Y181610D01*
X63883Y181286D01*
X63653Y180968D01*
X63415Y180655D01*
X63170Y180348D01*
X62917Y180048D01*
X62657Y179754D01*
X62389Y179466D01*
X62115Y179185D01*
X61834Y178911D01*
X61546Y178643D01*
X61252Y178383D01*
X60952Y178130D01*
X60645Y177885D01*
X60332Y177647D01*
X60014Y177417D01*
X59690Y177195D01*
X59361Y176981D01*
X59027Y176775D01*
X58687Y176577D01*
X58343Y176387D01*
X57995Y176207D01*
X57642Y176034D01*
X57285Y175871D01*
X56924Y175716D01*
X56559Y175570D01*
X56191Y175433D01*
X55820Y175306D01*
X55445Y175187D01*
X55068Y175078D01*
X54688Y174978D01*
X54306Y174887D01*
X53922Y174805D01*
X53536Y174734D01*
X53148Y174671D01*
X52759Y174618D01*
X52368Y174575D01*
X51977Y174541D01*
X51585Y174517D01*
X51193Y174503D01*
X50800Y174498D01*
X50407Y174503D01*
X50015Y174517D01*
X49623Y174541D01*
X49232Y174575D01*
X48841Y174618D01*
X48452Y174671D01*
X48064Y174734D01*
X47678Y174805D01*
X47294Y174887D01*
X46912Y174978D01*
X46532Y175078D01*
X46155Y175187D01*
X45780Y175306D01*
X45409Y175433D01*
X45041Y175570D01*
X44676Y175716D01*
X44315Y175871D01*
X43958Y176034D01*
X43605Y176207D01*
X43257Y176387D01*
X42913Y176577D01*
X42573Y176775D01*
X42239Y176981D01*
X41910Y177195D01*
X41586Y177417D01*
X41268Y177647D01*
X40955Y177885D01*
X40648Y178130D01*
X40348Y178383D01*
X40054Y178643D01*
X39766Y178911D01*
X39485Y179185D01*
X39211Y179466D01*
X38943Y179754D01*
X38683Y180048D01*
X38430Y180348D01*
X38185Y180655D01*
X37947Y180968D01*
X37717Y181286D01*
X37495Y181610D01*
X37281Y181939D01*
X37075Y182273D01*
X36877Y182613D01*
X36687Y182957D01*
X36507Y183305D01*
X36334Y183658D01*
X36171Y184015D01*
X36016Y184376D01*
X35870Y184741D01*
X35733Y185109D01*
X35606Y185480D01*
X35487Y185855D01*
X35378Y186232D01*
X35278Y186612D01*
X35187Y186994D01*
X35105Y187378D01*
X35034Y187764D01*
X34971Y188152D01*
X34918Y188541D01*
X34875Y188932D01*
X34841Y189323D01*
X34817Y189715D01*
X34803Y190107D01*
X34798Y190500D01*
X549148Y495300D02*
X549153Y495693D01*
X549167Y496085D01*
X549191Y496477D01*
X549225Y496868D01*
X549268Y497259D01*
X549321Y497648D01*
X549384Y498036D01*
X549455Y498422D01*
X549537Y498806D01*
X549628Y499188D01*
X549728Y499568D01*
X549837Y499945D01*
X549956Y500320D01*
X550083Y500691D01*
X550220Y501059D01*
X550366Y501424D01*
X550521Y501785D01*
X550684Y502142D01*
X550857Y502495D01*
X551037Y502843D01*
X551227Y503187D01*
X551425Y503527D01*
X551631Y503861D01*
X551845Y504190D01*
X552067Y504514D01*
X552297Y504832D01*
X552535Y505145D01*
X552780Y505452D01*
X553033Y505752D01*
X553293Y506046D01*
X553561Y506334D01*
X553835Y506615D01*
X554116Y506889D01*
X554404Y507157D01*
X554698Y507417D01*
X554998Y507670D01*
X555305Y507915D01*
X555618Y508153D01*
X555936Y508383D01*
X556260Y508605D01*
X556589Y508819D01*
X556923Y509025D01*
X557263Y509223D01*
X557607Y509413D01*
X557955Y509593D01*
X558308Y509766D01*
X558665Y509929D01*
X559026Y510084D01*
X559391Y510230D01*
X559759Y510367D01*
X560130Y510494D01*
X560505Y510613D01*
X560882Y510722D01*
X561262Y510822D01*
X561644Y510913D01*
X562028Y510995D01*
X562414Y511066D01*
X562802Y511129D01*
X563191Y511182D01*
X563582Y511225D01*
X563973Y511259D01*
X564365Y511283D01*
X564757Y511297D01*
X565150Y511302D01*
X565543Y511297D01*
X565935Y511283D01*
X566327Y511259D01*
X566718Y511225D01*
X567109Y511182D01*
X567498Y511129D01*
X567886Y511066D01*
X568272Y510995D01*
X568656Y510913D01*
X569038Y510822D01*
X569418Y510722D01*
X569795Y510613D01*
X570170Y510494D01*
X570541Y510367D01*
X570909Y510230D01*
X571274Y510084D01*
X571635Y509929D01*
X571992Y509766D01*
X572345Y509593D01*
X572693Y509413D01*
X573037Y509223D01*
X573377Y509025D01*
X573711Y508819D01*
X574040Y508605D01*
X574364Y508383D01*
X574682Y508153D01*
X574995Y507915D01*
X575302Y507670D01*
X575602Y507417D01*
X575896Y507157D01*
X576184Y506889D01*
X576465Y506615D01*
X576739Y506334D01*
X577007Y506046D01*
X577267Y505752D01*
X577520Y505452D01*
X577765Y505145D01*
X578003Y504832D01*
X578233Y504514D01*
X578455Y504190D01*
X578669Y503861D01*
X578875Y503527D01*
X579073Y503187D01*
X579263Y502843D01*
X579443Y502495D01*
X579616Y502142D01*
X579779Y501785D01*
X579934Y501424D01*
X580080Y501059D01*
X580217Y500691D01*
X580344Y500320D01*
X580463Y499945D01*
X580572Y499568D01*
X580672Y499188D01*
X580763Y498806D01*
X580845Y498422D01*
X580916Y498036D01*
X580979Y497648D01*
X581032Y497259D01*
X581075Y496868D01*
X581109Y496477D01*
X581133Y496085D01*
X581147Y495693D01*
X581152Y495300D01*
X581147Y494907D01*
X581133Y494515D01*
X581109Y494123D01*
X581075Y493732D01*
X581032Y493341D01*
X580979Y492952D01*
X580916Y492564D01*
X580845Y492178D01*
X580763Y491794D01*
X580672Y491412D01*
X580572Y491032D01*
X580463Y490655D01*
X580344Y490280D01*
X580217Y489909D01*
X580080Y489541D01*
X579934Y489176D01*
X579779Y488815D01*
X579616Y488458D01*
X579443Y488105D01*
X579263Y487757D01*
X579073Y487413D01*
X578875Y487073D01*
X578669Y486739D01*
X578455Y486410D01*
X578233Y486086D01*
X578003Y485768D01*
X577765Y485455D01*
X577520Y485148D01*
X577267Y484848D01*
X577007Y484554D01*
X576739Y484266D01*
X576465Y483985D01*
X576184Y483711D01*
X575896Y483443D01*
X575602Y483183D01*
X575302Y482930D01*
X574995Y482685D01*
X574682Y482447D01*
X574364Y482217D01*
X574040Y481995D01*
X573711Y481781D01*
X573377Y481575D01*
X573037Y481377D01*
X572693Y481187D01*
X572345Y481007D01*
X571992Y480834D01*
X571635Y480671D01*
X571274Y480516D01*
X570909Y480370D01*
X570541Y480233D01*
X570170Y480106D01*
X569795Y479987D01*
X569418Y479878D01*
X569038Y479778D01*
X568656Y479687D01*
X568272Y479605D01*
X567886Y479534D01*
X567498Y479471D01*
X567109Y479418D01*
X566718Y479375D01*
X566327Y479341D01*
X565935Y479317D01*
X565543Y479303D01*
X565150Y479298D01*
X564757Y479303D01*
X564365Y479317D01*
X563973Y479341D01*
X563582Y479375D01*
X563191Y479418D01*
X562802Y479471D01*
X562414Y479534D01*
X562028Y479605D01*
X561644Y479687D01*
X561262Y479778D01*
X560882Y479878D01*
X560505Y479987D01*
X560130Y480106D01*
X559759Y480233D01*
X559391Y480370D01*
X559026Y480516D01*
X558665Y480671D01*
X558308Y480834D01*
X557955Y481007D01*
X557607Y481187D01*
X557263Y481377D01*
X556923Y481575D01*
X556589Y481781D01*
X556260Y481995D01*
X555936Y482217D01*
X555618Y482447D01*
X555305Y482685D01*
X554998Y482930D01*
X554698Y483183D01*
X554404Y483443D01*
X554116Y483711D01*
X553835Y483985D01*
X553561Y484266D01*
X553293Y484554D01*
X553033Y484848D01*
X552780Y485148D01*
X552535Y485455D01*
X552297Y485768D01*
X552067Y486086D01*
X551845Y486410D01*
X551631Y486739D01*
X551425Y487073D01*
X551227Y487413D01*
X551037Y487757D01*
X550857Y488105D01*
X550684Y488458D01*
X550521Y488815D01*
X550366Y489176D01*
X550220Y489541D01*
X550083Y489909D01*
X549956Y490280D01*
X549837Y490655D01*
X549728Y491032D01*
X549628Y491412D01*
X549537Y491794D01*
X549455Y492178D01*
X549384Y492564D01*
X549321Y492952D01*
X549268Y493341D01*
X549225Y493732D01*
X549191Y494123D01*
X549167Y494515D01*
X549153Y494907D01*
X549148Y495300D01*
D11*
X0Y0D02*
X590550Y0D01*
X590550Y990600D01*
X0Y990500D01*
X0Y0D01*
X66802Y189976D02*
X66733Y188931D01*
X66597Y187892D01*
X66392Y186864D01*
X66121Y185852D01*
X65784Y184860D01*
X65383Y183892D01*
X64920Y182953D01*
X64396Y182045D01*
X63814Y181174D01*
X63176Y180343D01*
X62486Y179555D01*
X61745Y178814D01*
X60957Y178124D01*
X60126Y177486D01*
X59255Y176904D01*
X58347Y176380D01*
X57408Y175917D01*
X56440Y175516D01*
X55448Y175179D01*
X54436Y174908D01*
X53408Y174703D01*
X52369Y174567D01*
X51324Y174498D01*
X50276Y174498D01*
X49231Y174567D01*
X48192Y174703D01*
X47164Y174908D01*
X46152Y175179D01*
X45160Y175516D01*
X44192Y175917D01*
X43253Y176380D01*
X42345Y176904D01*
X41474Y177486D01*
X40643Y178124D01*
X39855Y178814D01*
X39114Y179555D01*
X38424Y180343D01*
X37786Y181174D01*
X37204Y182045D01*
X36680Y182953D01*
X36217Y183892D01*
X35816Y184860D01*
X35479Y185852D01*
X35208Y186864D01*
X35003Y187892D01*
X34867Y188931D01*
X34798Y189976D01*
X34798Y191024D01*
X34867Y192069D01*
X35003Y193108D01*
X35208Y194136D01*
X35479Y195148D01*
X35816Y196140D01*
X36217Y197108D01*
X36680Y198047D01*
X37204Y198955D01*
X37786Y199826D01*
X38424Y200657D01*
X39114Y201445D01*
X39855Y202186D01*
X40643Y202876D01*
X41474Y203514D01*
X42345Y204096D01*
X43253Y204620D01*
X44192Y205083D01*
X45160Y205484D01*
X46152Y205821D01*
X47164Y206092D01*
X48192Y206297D01*
X49231Y206433D01*
X50276Y206502D01*
X51324Y206502D01*
X52369Y206433D01*
X53408Y206297D01*
X54436Y206092D01*
X55448Y205821D01*
X56440Y205484D01*
X57408Y205083D01*
X58347Y204620D01*
X59255Y204096D01*
X60126Y203514D01*
X60957Y202876D01*
X61745Y202186D01*
X62486Y201445D01*
X63176Y200657D01*
X63814Y199826D01*
X64396Y198955D01*
X64920Y198047D01*
X65383Y197108D01*
X65784Y196140D01*
X66121Y195148D01*
X66392Y194136D01*
X66597Y193108D01*
X66733Y192069D01*
X66802Y191024D01*
X66802Y189976D01*
X581152Y494776D02*
X581083Y493731D01*
X580947Y492692D01*
X580742Y491664D01*
X580471Y490652D01*
X580134Y489660D01*
X579733Y488692D01*
X579270Y487753D01*
X578746Y486845D01*
X578164Y485974D01*
X577526Y485143D01*
X576836Y484355D01*
X576095Y483614D01*
X575307Y482924D01*
X574476Y482286D01*
X573605Y481704D01*
X572697Y481180D01*
X571758Y480717D01*
X570790Y480316D01*
X569798Y479979D01*
X568786Y479708D01*
X567758Y479503D01*
X566719Y479367D01*
X565674Y479298D01*
X564626Y479298D01*
X563581Y479367D01*
X562542Y479503D01*
X561514Y479708D01*
X560502Y479979D01*
X559510Y480316D01*
X558542Y480717D01*
X557603Y481180D01*
X556695Y481704D01*
X555824Y482286D01*
X554993Y482924D01*
X554205Y483614D01*
X553464Y484355D01*
X552774Y485143D01*
X552136Y485974D01*
X551554Y486845D01*
X551030Y487753D01*
X550567Y488692D01*
X550166Y489660D01*
X549829Y490652D01*
X549558Y491664D01*
X549353Y492692D01*
X549217Y493731D01*
X549148Y494776D01*
X549148Y495824D01*
X549217Y496869D01*
X549353Y497908D01*
X549558Y498936D01*
X549829Y499948D01*
X550166Y500940D01*
X550567Y501908D01*
X551030Y502847D01*
X551554Y503755D01*
X552136Y504626D01*
X552774Y505457D01*
X553464Y506245D01*
X554205Y506986D01*
X554993Y507676D01*
X555824Y508314D01*
X556695Y508896D01*
X557603Y509420D01*
X558542Y509883D01*
X559510Y510284D01*
X560502Y510621D01*
X561514Y510892D01*
X562542Y511097D01*
X563581Y511233D01*
X564626Y511302D01*
X565674Y511302D01*
X566719Y511233D01*
X567758Y511097D01*
X568786Y510892D01*
X569798Y510621D01*
X570790Y510284D01*
X571758Y509883D01*
X572697Y509420D01*
X573605Y508896D01*
X574476Y508314D01*
X575307Y507676D01*
X576095Y506986D01*
X576836Y506245D01*
X577526Y505457D01*
X578164Y504626D01*
X578746Y503755D01*
X579270Y502847D01*
X579733Y501908D01*
X580134Y500940D01*
X580471Y499948D01*
X580742Y498936D01*
X580947Y497908D01*
X581083Y496869D01*
X581152Y495824D01*
X581152Y494776D01*
M02*
