G04 EAGLE Gerber RS-274X export*
G75*
%MOMM*%
%FSLAX34Y34*%
%LPD*%
%INBoard Outline*%
%IPPOS*%
%AMOC8*
5,1,8,0,0,1.08239X$1,22.5*%
G01*
%ADD10C,0.000000*%
%ADD11C,0.254000*%


D10*
X0Y0D02*
X590550Y0D01*
X590550Y990600D01*
X0Y990500D01*
X0Y0D01*
X34798Y190500D02*
X34803Y190893D01*
X34817Y191285D01*
X34841Y191677D01*
X34875Y192068D01*
X34918Y192459D01*
X34971Y192848D01*
X35034Y193236D01*
X35105Y193622D01*
X35187Y194006D01*
X35278Y194388D01*
X35378Y194768D01*
X35487Y195145D01*
X35606Y195520D01*
X35733Y195891D01*
X35870Y196259D01*
X36016Y196624D01*
X36171Y196985D01*
X36334Y197342D01*
X36507Y197695D01*
X36687Y198043D01*
X36877Y198387D01*
X37075Y198727D01*
X37281Y199061D01*
X37495Y199390D01*
X37717Y199714D01*
X37947Y200032D01*
X38185Y200345D01*
X38430Y200652D01*
X38683Y200952D01*
X38943Y201246D01*
X39211Y201534D01*
X39485Y201815D01*
X39766Y202089D01*
X40054Y202357D01*
X40348Y202617D01*
X40648Y202870D01*
X40955Y203115D01*
X41268Y203353D01*
X41586Y203583D01*
X41910Y203805D01*
X42239Y204019D01*
X42573Y204225D01*
X42913Y204423D01*
X43257Y204613D01*
X43605Y204793D01*
X43958Y204966D01*
X44315Y205129D01*
X44676Y205284D01*
X45041Y205430D01*
X45409Y205567D01*
X45780Y205694D01*
X46155Y205813D01*
X46532Y205922D01*
X46912Y206022D01*
X47294Y206113D01*
X47678Y206195D01*
X48064Y206266D01*
X48452Y206329D01*
X48841Y206382D01*
X49232Y206425D01*
X49623Y206459D01*
X50015Y206483D01*
X50407Y206497D01*
X50800Y206502D01*
X51193Y206497D01*
X51585Y206483D01*
X51977Y206459D01*
X52368Y206425D01*
X52759Y206382D01*
X53148Y206329D01*
X53536Y206266D01*
X53922Y206195D01*
X54306Y206113D01*
X54688Y206022D01*
X55068Y205922D01*
X55445Y205813D01*
X55820Y205694D01*
X56191Y205567D01*
X56559Y205430D01*
X56924Y205284D01*
X57285Y205129D01*
X57642Y204966D01*
X57995Y204793D01*
X58343Y204613D01*
X58687Y204423D01*
X59027Y204225D01*
X59361Y204019D01*
X59690Y203805D01*
X60014Y203583D01*
X60332Y203353D01*
X60645Y203115D01*
X60952Y202870D01*
X61252Y202617D01*
X61546Y202357D01*
X61834Y202089D01*
X62115Y201815D01*
X62389Y201534D01*
X62657Y201246D01*
X62917Y200952D01*
X63170Y200652D01*
X63415Y200345D01*
X63653Y200032D01*
X63883Y199714D01*
X64105Y199390D01*
X64319Y199061D01*
X64525Y198727D01*
X64723Y198387D01*
X64913Y198043D01*
X65093Y197695D01*
X65266Y197342D01*
X65429Y196985D01*
X65584Y196624D01*
X65730Y196259D01*
X65867Y195891D01*
X65994Y195520D01*
X66113Y195145D01*
X66222Y194768D01*
X66322Y194388D01*
X66413Y194006D01*
X66495Y193622D01*
X66566Y193236D01*
X66629Y192848D01*
X66682Y192459D01*
X66725Y192068D01*
X66759Y191677D01*
X66783Y191285D01*
X66797Y190893D01*
X66802Y190500D01*
X66797Y190107D01*
X66783Y189715D01*
X66759Y189323D01*
X66725Y188932D01*
X66682Y188541D01*
X66629Y188152D01*
X66566Y187764D01*
X66495Y187378D01*
X66413Y186994D01*
X66322Y186612D01*
X66222Y186232D01*
X66113Y185855D01*
X65994Y185480D01*
X65867Y185109D01*
X65730Y184741D01*
X65584Y184376D01*
X65429Y184015D01*
X65266Y183658D01*
X65093Y183305D01*
X64913Y182957D01*
X64723Y182613D01*
X64525Y182273D01*
X64319Y181939D01*
X64105Y181610D01*
X63883Y181286D01*
X63653Y180968D01*
X63415Y180655D01*
X63170Y180348D01*
X62917Y180048D01*
X62657Y179754D01*
X62389Y179466D01*
X62115Y179185D01*
X61834Y178911D01*
X61546Y178643D01*
X61252Y178383D01*
X60952Y178130D01*
X60645Y177885D01*
X60332Y177647D01*
X60014Y177417D01*
X59690Y177195D01*
X59361Y176981D01*
X59027Y176775D01*
X58687Y176577D01*
X58343Y176387D01*
X57995Y176207D01*
X57642Y176034D01*
X57285Y175871D01*
X56924Y175716D01*
X56559Y175570D01*
X56191Y175433D01*
X55820Y175306D01*
X55445Y175187D01*
X55068Y175078D01*
X54688Y174978D01*
X54306Y174887D01*
X53922Y174805D01*
X53536Y174734D01*
X53148Y174671D01*
X52759Y174618D01*
X52368Y174575D01*
X51977Y174541D01*
X51585Y174517D01*
X51193Y174503D01*
X50800Y174498D01*
X50407Y174503D01*
X50015Y174517D01*
X49623Y174541D01*
X49232Y174575D01*
X48841Y174618D01*
X48452Y174671D01*
X48064Y174734D01*
X47678Y174805D01*
X47294Y174887D01*
X46912Y174978D01*
X46532Y175078D01*
X46155Y175187D01*
X45780Y175306D01*
X45409Y175433D01*
X45041Y175570D01*
X44676Y175716D01*
X44315Y175871D01*
X43958Y176034D01*
X43605Y176207D01*
X43257Y176387D01*
X42913Y176577D01*
X42573Y176775D01*
X42239Y176981D01*
X41910Y177195D01*
X41586Y177417D01*
X41268Y177647D01*
X40955Y177885D01*
X40648Y178130D01*
X40348Y178383D01*
X40054Y178643D01*
X39766Y178911D01*
X39485Y179185D01*
X39211Y179466D01*
X38943Y179754D01*
X38683Y180048D01*
X38430Y180348D01*
X38185Y180655D01*
X37947Y180968D01*
X37717Y181286D01*
X37495Y181610D01*
X37281Y181939D01*
X37075Y182273D01*
X36877Y182613D01*
X36687Y182957D01*
X36507Y183305D01*
X36334Y183658D01*
X36171Y184015D01*
X36016Y184376D01*
X35870Y184741D01*
X35733Y185109D01*
X35606Y185480D01*
X35487Y185855D01*
X35378Y186232D01*
X35278Y186612D01*
X35187Y186994D01*
X35105Y187378D01*
X35034Y187764D01*
X34971Y188152D01*
X34918Y188541D01*
X34875Y188932D01*
X34841Y189323D01*
X34817Y189715D01*
X34803Y190107D01*
X34798Y190500D01*
X542798Y495300D02*
X542803Y495693D01*
X542817Y496085D01*
X542841Y496477D01*
X542875Y496868D01*
X542918Y497259D01*
X542971Y497648D01*
X543034Y498036D01*
X543105Y498422D01*
X543187Y498806D01*
X543278Y499188D01*
X543378Y499568D01*
X543487Y499945D01*
X543606Y500320D01*
X543733Y500691D01*
X543870Y501059D01*
X544016Y501424D01*
X544171Y501785D01*
X544334Y502142D01*
X544507Y502495D01*
X544687Y502843D01*
X544877Y503187D01*
X545075Y503527D01*
X545281Y503861D01*
X545495Y504190D01*
X545717Y504514D01*
X545947Y504832D01*
X546185Y505145D01*
X546430Y505452D01*
X546683Y505752D01*
X546943Y506046D01*
X547211Y506334D01*
X547485Y506615D01*
X547766Y506889D01*
X548054Y507157D01*
X548348Y507417D01*
X548648Y507670D01*
X548955Y507915D01*
X549268Y508153D01*
X549586Y508383D01*
X549910Y508605D01*
X550239Y508819D01*
X550573Y509025D01*
X550913Y509223D01*
X551257Y509413D01*
X551605Y509593D01*
X551958Y509766D01*
X552315Y509929D01*
X552676Y510084D01*
X553041Y510230D01*
X553409Y510367D01*
X553780Y510494D01*
X554155Y510613D01*
X554532Y510722D01*
X554912Y510822D01*
X555294Y510913D01*
X555678Y510995D01*
X556064Y511066D01*
X556452Y511129D01*
X556841Y511182D01*
X557232Y511225D01*
X557623Y511259D01*
X558015Y511283D01*
X558407Y511297D01*
X558800Y511302D01*
X559193Y511297D01*
X559585Y511283D01*
X559977Y511259D01*
X560368Y511225D01*
X560759Y511182D01*
X561148Y511129D01*
X561536Y511066D01*
X561922Y510995D01*
X562306Y510913D01*
X562688Y510822D01*
X563068Y510722D01*
X563445Y510613D01*
X563820Y510494D01*
X564191Y510367D01*
X564559Y510230D01*
X564924Y510084D01*
X565285Y509929D01*
X565642Y509766D01*
X565995Y509593D01*
X566343Y509413D01*
X566687Y509223D01*
X567027Y509025D01*
X567361Y508819D01*
X567690Y508605D01*
X568014Y508383D01*
X568332Y508153D01*
X568645Y507915D01*
X568952Y507670D01*
X569252Y507417D01*
X569546Y507157D01*
X569834Y506889D01*
X570115Y506615D01*
X570389Y506334D01*
X570657Y506046D01*
X570917Y505752D01*
X571170Y505452D01*
X571415Y505145D01*
X571653Y504832D01*
X571883Y504514D01*
X572105Y504190D01*
X572319Y503861D01*
X572525Y503527D01*
X572723Y503187D01*
X572913Y502843D01*
X573093Y502495D01*
X573266Y502142D01*
X573429Y501785D01*
X573584Y501424D01*
X573730Y501059D01*
X573867Y500691D01*
X573994Y500320D01*
X574113Y499945D01*
X574222Y499568D01*
X574322Y499188D01*
X574413Y498806D01*
X574495Y498422D01*
X574566Y498036D01*
X574629Y497648D01*
X574682Y497259D01*
X574725Y496868D01*
X574759Y496477D01*
X574783Y496085D01*
X574797Y495693D01*
X574802Y495300D01*
X574797Y494907D01*
X574783Y494515D01*
X574759Y494123D01*
X574725Y493732D01*
X574682Y493341D01*
X574629Y492952D01*
X574566Y492564D01*
X574495Y492178D01*
X574413Y491794D01*
X574322Y491412D01*
X574222Y491032D01*
X574113Y490655D01*
X573994Y490280D01*
X573867Y489909D01*
X573730Y489541D01*
X573584Y489176D01*
X573429Y488815D01*
X573266Y488458D01*
X573093Y488105D01*
X572913Y487757D01*
X572723Y487413D01*
X572525Y487073D01*
X572319Y486739D01*
X572105Y486410D01*
X571883Y486086D01*
X571653Y485768D01*
X571415Y485455D01*
X571170Y485148D01*
X570917Y484848D01*
X570657Y484554D01*
X570389Y484266D01*
X570115Y483985D01*
X569834Y483711D01*
X569546Y483443D01*
X569252Y483183D01*
X568952Y482930D01*
X568645Y482685D01*
X568332Y482447D01*
X568014Y482217D01*
X567690Y481995D01*
X567361Y481781D01*
X567027Y481575D01*
X566687Y481377D01*
X566343Y481187D01*
X565995Y481007D01*
X565642Y480834D01*
X565285Y480671D01*
X564924Y480516D01*
X564559Y480370D01*
X564191Y480233D01*
X563820Y480106D01*
X563445Y479987D01*
X563068Y479878D01*
X562688Y479778D01*
X562306Y479687D01*
X561922Y479605D01*
X561536Y479534D01*
X561148Y479471D01*
X560759Y479418D01*
X560368Y479375D01*
X559977Y479341D01*
X559585Y479317D01*
X559193Y479303D01*
X558800Y479298D01*
X558407Y479303D01*
X558015Y479317D01*
X557623Y479341D01*
X557232Y479375D01*
X556841Y479418D01*
X556452Y479471D01*
X556064Y479534D01*
X555678Y479605D01*
X555294Y479687D01*
X554912Y479778D01*
X554532Y479878D01*
X554155Y479987D01*
X553780Y480106D01*
X553409Y480233D01*
X553041Y480370D01*
X552676Y480516D01*
X552315Y480671D01*
X551958Y480834D01*
X551605Y481007D01*
X551257Y481187D01*
X550913Y481377D01*
X550573Y481575D01*
X550239Y481781D01*
X549910Y481995D01*
X549586Y482217D01*
X549268Y482447D01*
X548955Y482685D01*
X548648Y482930D01*
X548348Y483183D01*
X548054Y483443D01*
X547766Y483711D01*
X547485Y483985D01*
X547211Y484266D01*
X546943Y484554D01*
X546683Y484848D01*
X546430Y485148D01*
X546185Y485455D01*
X545947Y485768D01*
X545717Y486086D01*
X545495Y486410D01*
X545281Y486739D01*
X545075Y487073D01*
X544877Y487413D01*
X544687Y487757D01*
X544507Y488105D01*
X544334Y488458D01*
X544171Y488815D01*
X544016Y489176D01*
X543870Y489541D01*
X543733Y489909D01*
X543606Y490280D01*
X543487Y490655D01*
X543378Y491032D01*
X543278Y491412D01*
X543187Y491794D01*
X543105Y492178D01*
X543034Y492564D01*
X542971Y492952D01*
X542918Y493341D01*
X542875Y493732D01*
X542841Y494123D01*
X542817Y494515D01*
X542803Y494907D01*
X542798Y495300D01*
D11*
X0Y0D02*
X590550Y0D01*
X590550Y990600D01*
X0Y990500D01*
X0Y0D01*
X66802Y189976D02*
X66733Y188931D01*
X66597Y187892D01*
X66392Y186864D01*
X66121Y185852D01*
X65784Y184860D01*
X65383Y183892D01*
X64920Y182953D01*
X64396Y182045D01*
X63814Y181174D01*
X63176Y180343D01*
X62486Y179555D01*
X61745Y178814D01*
X60957Y178124D01*
X60126Y177486D01*
X59255Y176904D01*
X58347Y176380D01*
X57408Y175917D01*
X56440Y175516D01*
X55448Y175179D01*
X54436Y174908D01*
X53408Y174703D01*
X52369Y174567D01*
X51324Y174498D01*
X50276Y174498D01*
X49231Y174567D01*
X48192Y174703D01*
X47164Y174908D01*
X46152Y175179D01*
X45160Y175516D01*
X44192Y175917D01*
X43253Y176380D01*
X42345Y176904D01*
X41474Y177486D01*
X40643Y178124D01*
X39855Y178814D01*
X39114Y179555D01*
X38424Y180343D01*
X37786Y181174D01*
X37204Y182045D01*
X36680Y182953D01*
X36217Y183892D01*
X35816Y184860D01*
X35479Y185852D01*
X35208Y186864D01*
X35003Y187892D01*
X34867Y188931D01*
X34798Y189976D01*
X34798Y191024D01*
X34867Y192069D01*
X35003Y193108D01*
X35208Y194136D01*
X35479Y195148D01*
X35816Y196140D01*
X36217Y197108D01*
X36680Y198047D01*
X37204Y198955D01*
X37786Y199826D01*
X38424Y200657D01*
X39114Y201445D01*
X39855Y202186D01*
X40643Y202876D01*
X41474Y203514D01*
X42345Y204096D01*
X43253Y204620D01*
X44192Y205083D01*
X45160Y205484D01*
X46152Y205821D01*
X47164Y206092D01*
X48192Y206297D01*
X49231Y206433D01*
X50276Y206502D01*
X51324Y206502D01*
X52369Y206433D01*
X53408Y206297D01*
X54436Y206092D01*
X55448Y205821D01*
X56440Y205484D01*
X57408Y205083D01*
X58347Y204620D01*
X59255Y204096D01*
X60126Y203514D01*
X60957Y202876D01*
X61745Y202186D01*
X62486Y201445D01*
X63176Y200657D01*
X63814Y199826D01*
X64396Y198955D01*
X64920Y198047D01*
X65383Y197108D01*
X65784Y196140D01*
X66121Y195148D01*
X66392Y194136D01*
X66597Y193108D01*
X66733Y192069D01*
X66802Y191024D01*
X66802Y189976D01*
X574802Y494776D02*
X574733Y493731D01*
X574597Y492692D01*
X574392Y491664D01*
X574121Y490652D01*
X573784Y489660D01*
X573383Y488692D01*
X572920Y487753D01*
X572396Y486845D01*
X571814Y485974D01*
X571176Y485143D01*
X570486Y484355D01*
X569745Y483614D01*
X568957Y482924D01*
X568126Y482286D01*
X567255Y481704D01*
X566347Y481180D01*
X565408Y480717D01*
X564440Y480316D01*
X563448Y479979D01*
X562436Y479708D01*
X561408Y479503D01*
X560369Y479367D01*
X559324Y479298D01*
X558276Y479298D01*
X557231Y479367D01*
X556192Y479503D01*
X555164Y479708D01*
X554152Y479979D01*
X553160Y480316D01*
X552192Y480717D01*
X551253Y481180D01*
X550345Y481704D01*
X549474Y482286D01*
X548643Y482924D01*
X547855Y483614D01*
X547114Y484355D01*
X546424Y485143D01*
X545786Y485974D01*
X545204Y486845D01*
X544680Y487753D01*
X544217Y488692D01*
X543816Y489660D01*
X543479Y490652D01*
X543208Y491664D01*
X543003Y492692D01*
X542867Y493731D01*
X542798Y494776D01*
X542798Y495824D01*
X542867Y496869D01*
X543003Y497908D01*
X543208Y498936D01*
X543479Y499948D01*
X543816Y500940D01*
X544217Y501908D01*
X544680Y502847D01*
X545204Y503755D01*
X545786Y504626D01*
X546424Y505457D01*
X547114Y506245D01*
X547855Y506986D01*
X548643Y507676D01*
X549474Y508314D01*
X550345Y508896D01*
X551253Y509420D01*
X552192Y509883D01*
X553160Y510284D01*
X554152Y510621D01*
X555164Y510892D01*
X556192Y511097D01*
X557231Y511233D01*
X558276Y511302D01*
X559324Y511302D01*
X560369Y511233D01*
X561408Y511097D01*
X562436Y510892D01*
X563448Y510621D01*
X564440Y510284D01*
X565408Y509883D01*
X566347Y509420D01*
X567255Y508896D01*
X568126Y508314D01*
X568957Y507676D01*
X569745Y506986D01*
X570486Y506245D01*
X571176Y505457D01*
X571814Y504626D01*
X572396Y503755D01*
X572920Y502847D01*
X573383Y501908D01*
X573784Y500940D01*
X574121Y499948D01*
X574392Y498936D01*
X574597Y497908D01*
X574733Y496869D01*
X574802Y495824D01*
X574802Y494776D01*
M02*
