M48
;GenerationSoftware,Autodesk,EAGLE,9.6.2*%
;CreationDate,2022-05-25T13:05:51Z*%
FMAT,2
ICI,OFF
METRIC,TZ,000.000
T7C0.350
T6C0.813
T5C0.914
T4C1.016
T3C1.118
T2C3.200
T1C3.302
%
G90
M71
T1
X6985Y18161
T2
X54610Y19050
X2540Y49530
T3
X4445Y3175
X6985Y3175
X9525Y3175
T4
X2540Y97155
X56515Y97155
X56515Y94615
X56515Y92075
X56515Y89535
X56515Y86995
X56515Y84455
X2540Y94615
X2540Y92075
X2540Y89535
X2540Y86995
X2540Y84455
X2540Y33020
X2540Y30480
X2540Y27940
X2540Y25400
T5
X31750Y6350
X34290Y3810
X34290Y6350
X31750Y3810
X29210Y6350
X29210Y3810
X26670Y6350
X26670Y3810
X24130Y6350
X24130Y3810
T6
X15875Y6350
X15875Y3810
X43815Y5080
X41275Y5080
X25400Y46990
X15240Y14605
X15240Y12065
X20955Y79375
X13335Y79375
X25400Y90805
X33020Y90805
X52070Y66675
X49530Y66675
X17145Y55880
X17145Y53340
X52070Y55245
X49530Y55245
X22225Y34925
X17145Y34925
X38100Y54610
X43180Y54610
X38735Y79375
X43815Y79375
X22225Y21590
X17145Y21590
X19685Y84455
X14605Y84455
X6985Y69215
X6985Y71755
X50800Y79375
X50800Y76835
X53975Y29210
X48895Y29210
X43815Y24130
X38735Y24130
X38735Y21590
X43815Y21590
X50800Y38735
X50800Y43815
X48260Y46355
X53340Y46355
X45085Y66675
X37465Y66675
X13335Y71755
X20955Y71755
X33020Y71755
X33020Y74295
X33020Y86995
X25400Y86995
X33020Y76835
X33020Y79375
X33020Y84455
X33020Y81915
X25400Y84455
X25400Y81915
X25400Y79375
X25400Y76835
X25400Y74295
X25400Y71755
X13335Y86995
X20955Y86995
X13335Y89535
X33020Y19050
X33020Y21590
X25400Y21590
X25400Y19050
X33020Y24130
X33020Y26670
X25400Y24130
X25400Y26670
X33020Y46990
X33020Y49530
X33020Y62230
X25400Y62230
X33020Y52070
X33020Y54610
X33020Y59690
X33020Y57150
X25400Y59690
X25400Y57150
X25400Y54610
X25400Y52070
X25400Y49530
X20955Y89535
X33020Y32385
X33020Y34925
X25400Y34925
X25400Y32385
X33020Y37465
X33020Y40005
X25400Y37465
X25400Y40005
X20955Y81915
X13335Y81915
X20955Y40005
X13335Y40005
X13335Y64770
X20955Y64770
X37465Y84455
X45085Y84455
X37465Y89535
X45085Y89535
X53975Y25400
X48895Y25400
X51435Y25400
X48895Y33020
X53975Y33020
X51435Y33020
X8255Y41910
X8255Y46990
X8255Y44450
X37465Y69215
X45085Y69215
X20955Y74295
X13335Y74295
X37465Y37465
X45085Y37465
X13335Y62230
X20955Y62230
X37465Y86995
X45085Y86995
X45085Y59690
X37465Y59690
X13335Y76835
X20955Y76835
X37465Y26670
X45085Y26670
X45085Y29210
X37465Y29210
X37465Y74930
X45085Y74930
X13335Y59690
X20955Y59690
X37465Y71755
X45085Y71755
X37465Y49530
X45085Y49530
X45085Y46990
X37465Y46990
X45085Y52070
X37465Y52070
X37465Y57150
X45085Y57150
X37465Y44450
X45085Y44450
X37465Y81915
X45085Y81915
X37465Y41910
X45085Y41910
X20955Y46990
X13335Y46990
X45085Y32385
X37465Y32385
X37465Y34925
X45085Y34925
X45085Y64135
X37465Y64135
X20955Y49530
X13335Y49530
T7
X5080Y38100
X12065Y36195
X16510Y70485
X16510Y92075
X23495Y53340
X23495Y70485
X50800Y62230
X34925Y66675
X40005Y84455
X53975Y81915
X29210Y54610
X45085Y94615
X41910Y74930
X50800Y81915
X27940Y33655
X13335Y9525
X29210Y34925
X9525Y48260
X42545Y43180
X20320Y36195
X5080Y76835
X30480Y64770
X30480Y70485
X46990Y36195
X46990Y55245
X30480Y38735
X30480Y58420
X27940Y67945
X15240Y67945
X27940Y88265
X10795Y40005
X10795Y69215
X20955Y69215
X22860Y85725
X43180Y77470
X30480Y94615
X17780Y88265
X17780Y75565
X29210Y79375
X35560Y77470
M30