G04 EAGLE Gerber RS-274X export*
G75*
%MOMM*%
%FSLAX34Y34*%
%LPD*%
%INSoldermask Top*%
%IPPOS*%
%AMOC8*
5,1,8,0,0,1.08239X$1,22.5*%
G01*
%ADD10C,3.403600*%
%ADD11P,1.951982X8X22.500000*%
%ADD12C,1.803400*%
%ADD13P,1.951982X8X112.500000*%
%ADD14P,1.649562X8X202.500000*%
%ADD15P,1.649562X8X22.500000*%
%ADD16P,1.951982X8X292.500000*%
%ADD17C,1.524000*%
%ADD18C,1.879600*%
%ADD19C,3.505200*%
%ADD20C,1.524000*%
%ADD21C,1.727200*%
%ADD22P,1.759533X8X202.500000*%
%ADD23P,1.951982X8X202.500000*%
%ADD24C,0.959600*%


D10*
X539750Y190500D03*
X25400Y495300D03*
D11*
X520700Y666750D03*
D12*
X495300Y666750D03*
D13*
X171450Y558800D03*
D12*
X171450Y533400D03*
D11*
X520700Y552450D03*
D12*
X495300Y552450D03*
D14*
X222250Y349250D03*
X171450Y349250D03*
D15*
X381000Y546100D03*
X431800Y546100D03*
X387350Y793750D03*
X438150Y793750D03*
D14*
X222250Y215900D03*
X171450Y215900D03*
X196850Y844550D03*
X146050Y844550D03*
D16*
X69850Y692150D03*
D12*
X69850Y717550D03*
D13*
X508000Y793750D03*
D12*
X508000Y768350D03*
D14*
X539750Y292100D03*
X488950Y292100D03*
X438150Y241300D03*
X387350Y241300D03*
D15*
X387350Y215900D03*
X438150Y215900D03*
D13*
X508000Y425450D03*
D12*
X508000Y400050D03*
D15*
X482600Y463550D03*
X533400Y463550D03*
D17*
X457454Y666750D02*
X444246Y666750D01*
X381254Y666750D02*
X368046Y666750D01*
X139954Y717550D02*
X126746Y717550D01*
X202946Y717550D02*
X216154Y717550D01*
X323596Y717550D02*
X336804Y717550D01*
X336804Y742950D02*
X323596Y742950D01*
X323596Y869950D02*
X336804Y869950D01*
X260604Y869950D02*
X247396Y869950D01*
X323596Y768350D02*
X336804Y768350D01*
X336804Y793750D02*
X323596Y793750D01*
X323596Y844550D02*
X336804Y844550D01*
X336804Y819150D02*
X323596Y819150D01*
X260604Y844550D02*
X247396Y844550D01*
X247396Y819150D02*
X260604Y819150D01*
X260604Y793750D02*
X247396Y793750D01*
X247396Y768350D02*
X260604Y768350D01*
X260604Y742950D02*
X247396Y742950D01*
X247396Y717550D02*
X260604Y717550D01*
D18*
X44450Y40132D02*
X44450Y23368D01*
X69850Y23368D02*
X69850Y40132D01*
X95250Y40132D02*
X95250Y23368D01*
D19*
X69850Y181610D03*
D20*
X330200Y190500D03*
X330200Y215900D03*
X254000Y215900D03*
X254000Y190500D03*
X330200Y241300D03*
X330200Y266700D03*
X254000Y241300D03*
X254000Y266700D03*
D17*
X323596Y469900D02*
X336804Y469900D01*
X336804Y495300D02*
X323596Y495300D01*
X323596Y622300D02*
X336804Y622300D01*
X260604Y622300D02*
X247396Y622300D01*
X323596Y520700D02*
X336804Y520700D01*
X336804Y546100D02*
X323596Y546100D01*
X323596Y596900D02*
X336804Y596900D01*
X336804Y571500D02*
X323596Y571500D01*
X260604Y596900D02*
X247396Y596900D01*
X247396Y571500D02*
X260604Y571500D01*
X260604Y546100D02*
X247396Y546100D01*
X247396Y520700D02*
X260604Y520700D01*
X260604Y495300D02*
X247396Y495300D01*
X247396Y469900D02*
X260604Y469900D01*
X323596Y323850D02*
X336804Y323850D01*
X336804Y349250D02*
X323596Y349250D01*
X260604Y349250D02*
X247396Y349250D01*
X247396Y323850D02*
X260604Y323850D01*
X323596Y374650D02*
X336804Y374650D01*
X336804Y400050D02*
X323596Y400050D01*
X260604Y374650D02*
X247396Y374650D01*
X247396Y400050D02*
X260604Y400050D01*
D21*
X33020Y254000D02*
X17780Y254000D01*
X17780Y279400D02*
X33020Y279400D01*
X33020Y304800D02*
X17780Y304800D01*
X17780Y330200D02*
X33020Y330200D01*
X33020Y844550D02*
X17780Y844550D01*
X17780Y869950D02*
X33020Y869950D01*
X33020Y895350D02*
X17780Y895350D01*
X17780Y920750D02*
X33020Y920750D01*
X33020Y946150D02*
X17780Y946150D01*
X17780Y971550D02*
X33020Y971550D01*
D17*
X539750Y260604D02*
X539750Y247396D01*
X488950Y247396D02*
X488950Y260604D01*
X514350Y260604D02*
X514350Y247396D01*
X488950Y323596D02*
X488950Y336804D01*
X539750Y336804D02*
X539750Y323596D01*
X514350Y323596D02*
X514350Y336804D01*
X89154Y419100D02*
X75946Y419100D01*
X75946Y469900D02*
X89154Y469900D01*
X89154Y444500D02*
X75946Y444500D01*
D15*
X374650Y692150D03*
X450850Y692150D03*
D14*
X209550Y742950D03*
X133350Y742950D03*
D15*
X374650Y374650D03*
X450850Y374650D03*
X133350Y622300D03*
X209550Y622300D03*
X374650Y869950D03*
X450850Y869950D03*
D14*
X450850Y596900D03*
X374650Y596900D03*
D15*
X133350Y768350D03*
X209550Y768350D03*
X374650Y266700D03*
X450850Y266700D03*
D14*
X450850Y292100D03*
X374650Y292100D03*
D15*
X374650Y749300D03*
X450850Y749300D03*
X133350Y596900D03*
X209550Y596900D03*
X374650Y717550D03*
X450850Y717550D03*
X374650Y495300D03*
X450850Y495300D03*
D14*
X450850Y469900D03*
X374650Y469900D03*
X450850Y520700D03*
X374650Y520700D03*
D15*
X374650Y571500D03*
X450850Y571500D03*
X374650Y444500D03*
X450850Y444500D03*
X374650Y819150D03*
X450850Y819150D03*
X374650Y419100D03*
X450850Y419100D03*
D14*
X209550Y469900D03*
X133350Y469900D03*
X450850Y323850D03*
X374650Y323850D03*
D15*
X374650Y349250D03*
X450850Y349250D03*
D14*
X450850Y641350D03*
X374650Y641350D03*
X209550Y495300D03*
X133350Y495300D03*
X450850Y895350D03*
X374650Y895350D03*
X450850Y844550D03*
X374650Y844550D03*
X209550Y647700D03*
X133350Y647700D03*
D15*
X133350Y400050D03*
X209550Y400050D03*
X133350Y819150D03*
X209550Y819150D03*
D14*
X209550Y895350D03*
X133350Y895350D03*
X209550Y869950D03*
X133350Y869950D03*
X330200Y908050D03*
X254000Y908050D03*
D15*
X133350Y793750D03*
X209550Y793750D03*
D16*
X152400Y120650D03*
D12*
X152400Y146050D03*
D21*
X551180Y844550D02*
X566420Y844550D01*
X566420Y869950D02*
X551180Y869950D01*
X551180Y895350D02*
X566420Y895350D01*
X566420Y920750D02*
X551180Y920750D01*
X551180Y946150D02*
X566420Y946150D01*
X566420Y971550D02*
X551180Y971550D01*
D22*
X342900Y63500D03*
X342900Y38100D03*
X317500Y63500D03*
X317500Y38100D03*
X292100Y63500D03*
X292100Y38100D03*
X266700Y63500D03*
X266700Y38100D03*
X241300Y63500D03*
X241300Y38100D03*
D23*
X412750Y50800D03*
D12*
X438150Y50800D03*
D16*
X158750Y38100D03*
D12*
X158750Y63500D03*
D24*
X355600Y774700D03*
X431800Y774700D03*
X228600Y857250D03*
X209550Y692150D03*
X107950Y692150D03*
X107950Y400050D03*
X279400Y882650D03*
X152400Y679450D03*
X279400Y679450D03*
X304800Y584200D03*
X304800Y387350D03*
X469900Y552450D03*
X469900Y361950D03*
X304800Y704850D03*
X304800Y647700D03*
X50800Y768350D03*
X50800Y381000D03*
X120650Y361950D03*
X165100Y704850D03*
X165100Y920750D03*
X234950Y533400D03*
X234950Y704850D03*
X508000Y622300D03*
X349250Y666750D03*
X400050Y844550D03*
X539750Y819150D03*
X450850Y946150D03*
X419100Y749300D03*
X508000Y819150D03*
X279400Y336550D03*
X133350Y95250D03*
X292100Y349250D03*
X292100Y546100D03*
X292100Y793750D03*
X177800Y755650D03*
X177800Y882650D03*
X304800Y946150D03*
X203200Y361950D03*
X425450Y431800D03*
X95250Y482600D03*
M02*
